<svg width="120" height="120" viewBox="0 0 120 120" fill="none" xmlns="http://www.w3.org/2000/svg">
<circle cx="60" cy="60" r="60" fill="#FCFBF7"/>
<path d="M58.2589 38.0009C62.9462 38.0009 66.76 34.1878 66.76 29.5005C66.76 24.8138 62.9462 21 58.2589 21C53.5715 21 49.7598 24.8138 49.7598 29.4998C49.7598 34.1878 53.5708 38.0009 58.2589 38.0009ZM58.2589 24.696C60.9091 24.696 63.0642 26.8509 63.0642 29.4993C63.0642 32.1483 60.9093 34.3053 58.2589 34.3053C55.6111 34.3053 53.4535 32.149 53.4535 29.4993C53.4535 26.8509 55.6111 24.696 58.2589 24.696Z" fill="#FB5607"/>
<path d="M83.8466 45.7173C86.3797 44.2431 88.0883 41.5066 88.0883 38.3716C88.0883 33.6849 84.2759 29.8711 79.5893 29.8711C74.902 29.8711 71.0881 33.6849 71.0881 38.3716C71.0881 38.9782 71.1548 39.5693 71.2762 40.1403C66.9987 39.5323 61.2976 39.481 61.2146 39.481C57.1899 39.481 52.979 39.6745 49.4404 41.092C46.5608 42.244 44.1491 44.8491 42.886 46.4224C41.7509 45.7713 40.4412 45.3945 39.0413 45.3945C34.761 45.3945 31.2797 48.876 31.2797 53.1549C31.2797 55.9833 32.8044 58.4543 35.0699 59.8111C31.9794 60.3658 28.0719 61.7389 26.9396 65.1374C25.857 68.3877 25.9622 71.9587 26.0539 75.1079C26.0802 75.9706 26.1064 76.8179 26.1064 77.6368C26.1064 80.9755 28.5916 82.7785 30.9327 82.7785C31.2967 82.7785 31.6627 82.7313 32.0192 82.6491V89.376C32.0192 92.7536 34.4114 94.5339 36.7759 94.548H36.8022C37.8558 94.548 38.9376 94.1719 39.8118 93.4507C40.6779 94.1719 41.753 94.548 42.7972 94.548H42.8234C45.1671 94.5339 47.5398 92.7538 47.5398 89.376L47.5391 69.803C48.0514 69.5226 48.6951 69.1444 49.359 68.6962C49.5626 76.5758 49.7587 85.095 49.7587 88.635C49.7587 92.3807 52.5231 94.3415 55.2536 94.3415C56.9125 94.3415 58.586 93.6189 59.6633 92.2135C60.667 93.6519 62.2658 94.39 63.8505 94.39C66.3978 94.39 68.976 92.4817 68.976 88.8357C68.976 84.2845 69.5031 71.1125 69.9048 61.7668C70.3093 61.3867 71.0662 60.8225 71.9161 60.2307C72.1116 67.7193 72.5666 85.5464 72.5666 89.5618C72.5666 91.4288 73.3579 92.5815 74.0205 93.2205C74.8826 94.0509 76.0379 94.5059 77.2735 94.5059C78.3432 94.5059 79.4412 94.1419 80.3276 93.4389C81.2133 94.1419 82.3127 94.5059 83.3803 94.5059C84.6179 94.5059 85.7724 94.0496 86.6333 93.2205C87.2966 92.5822 88.0866 91.4302 88.0866 89.5618C88.0866 85.8268 88.4836 77.5819 88.6946 73.454C88.8624 73.4709 89.0296 73.4823 89.1961 73.4823C91.558 73.4823 93.9993 71.6853 93.9993 68.6777L94 55.3732C94.0027 50.1845 90.278 46.738 83.8468 45.7175L83.8466 45.7173ZM79.59 33.5676C82.2377 33.5676 84.3946 35.7225 84.3946 38.3722C84.3946 41.0206 82.2384 43.1769 79.59 43.1769C76.9397 43.1769 74.7846 41.0213 74.7846 38.3722C74.7853 35.7226 76.9402 33.5676 79.59 33.5676V33.5676ZM39.041 49.0889C41.2814 49.0889 43.1067 50.9128 43.1067 53.1546C43.1067 55.3972 41.2828 57.2204 39.041 57.2204C36.7991 57.2204 34.9752 55.3979 34.9752 53.1546C34.9752 50.9128 36.7984 49.0889 39.041 49.0889ZM48.8201 64.4146C47.4234 65.8126 44.9322 66.9935 44.9079 67.005C44.2588 67.3083 43.8449 67.9608 43.8449 68.678V89.3761C43.8449 90.2962 43.454 90.8496 42.8015 90.8523C42.7988 90.8523 42.7967 90.853 42.7961 90.853C42.2771 90.8523 41.7223 90.46 41.7095 89.3546C41.6839 87.1774 41.7082 81.3119 41.7095 81.2532C41.7129 80.2327 40.8892 79.4017 39.8694 79.3975H39.8613C39.8471 79.3975 39.835 79.4023 39.8202 79.4023C39.806 79.4023 39.7939 79.3975 39.779 79.3975H39.7703C38.7504 79.4023 37.9267 80.2327 37.9315 81.2532C37.9315 81.3119 37.9551 87.1781 37.9315 89.3546C37.9147 90.7512 37.0762 90.8631 36.7964 90.8523C36.5423 90.8516 35.7139 90.7411 35.7139 89.3761L35.7132 77.6363V70.244C35.7132 69.2234 34.8855 68.3957 33.865 68.3957C32.8438 68.3957 32.0174 69.2234 32.0174 70.244V77.6363C32.0174 78.9412 31.2558 79.0828 30.9309 79.0828C30.6653 79.0828 29.7998 78.9776 29.7998 77.6363C29.7998 76.7816 29.7735 75.8979 29.7472 74.9974C29.6596 72.0154 29.5673 68.9329 30.4442 66.3055C31.2396 63.9222 36.5788 63.1388 39.0403 63.1321C39.0834 63.1321 39.1279 63.1314 39.1717 63.1273C41.0726 62.9925 45.9735 62.4701 49.1429 60.6151C49.1732 61.7165 49.2049 62.888 49.2379 64.1087C49.0896 64.1922 48.9474 64.2886 48.82 64.4147L48.8201 64.4146ZM63.8506 90.6932C63.1132 90.6932 62.3232 90.1533 62.3232 88.6346C62.3232 84.868 61.6141 69.2565 61.5837 68.5939C61.5379 67.6098 60.7284 66.834 59.7429 66.8306H59.7382C58.7541 66.8306 57.9426 67.601 57.892 68.5844C57.861 69.1803 57.1499 83.2389 57.1499 88.4526C57.1499 90.5413 55.5692 90.6473 55.2538 90.6473C54.9539 90.6473 53.4534 90.5502 53.4534 88.636C53.4534 81.2659 52.6176 52.6511 52.6081 52.3612C52.5819 51.4728 51.928 50.73 51.0498 50.5911C50.1661 50.453 49.3188 50.9578 49.0215 51.7943L46.9332 57.641C46.336 57.9268 45.5717 58.1998 44.7028 58.4465C46.0003 57.058 46.8025 55.1997 46.8025 53.1532C46.8025 51.615 46.3448 50.184 45.5716 48.9775C46.644 47.5984 48.6871 45.3726 50.8151 44.5221C53.7715 43.3378 57.5617 43.1754 61.2156 43.1754C66.2568 43.1754 72.2903 43.8231 73.3727 44.3334C73.4907 44.4129 73.612 44.4722 73.7387 44.5221C74.317 45.0728 74.9715 45.5433 75.6874 45.914C71.4233 46.9615 67.7222 49.2452 67.5213 49.3698C66.8486 49.7904 66.5473 50.573 66.6977 51.3083C66.6788 51.4 66.6592 51.4936 66.6545 51.5907C66.5999 52.8067 65.2801 81.4481 65.2801 88.8353C65.2795 90.2083 64.5427 90.6949 63.8505 90.6949L63.8506 90.6932ZM90.3069 68.6785C90.3069 69.5547 89.5823 69.7873 89.1988 69.7873C88.1958 69.7873 88.0893 68.4951 88.0893 67.939V56.1122C88.0893 55.0924 87.2629 54.2646 86.2424 54.2646C85.2212 54.2646 84.3942 55.0924 84.3942 56.1122V67.9397C84.3942 69.2022 84.6726 70.2335 85.1228 71.0525C85.0177 72.9917 84.3942 84.7275 84.3942 89.5626C84.3942 90.5939 83.8441 90.8096 83.3824 90.8096C83.1815 90.8096 82.1752 90.7402 82.1752 89.3772V74.5926C82.1752 73.5721 81.3488 72.7444 80.3283 72.7444C79.3071 72.7444 78.4801 73.5721 78.4801 74.5926V89.3772C78.4801 90.7401 77.4757 90.8096 77.2742 90.8096C77.1138 90.8096 76.8125 90.7772 76.584 90.5582C76.3184 90.3027 76.2611 89.8747 76.2611 89.5619C76.2611 84.4216 75.5527 57.9272 75.5217 56.8021C75.5048 56.1388 75.1327 55.5349 74.5477 55.2222C73.9633 54.9101 73.2548 54.933 72.692 55.2848C72.4702 55.4257 71.3338 56.1436 70.1132 56.9841C70.2244 54.4679 70.3066 52.6514 70.3363 52.013C72.0531 51.07 76.0731 49.089 79.5896 49.089C88.9144 49.089 90.3069 53.0248 90.3069 55.3725L90.3055 68.6788L90.3069 68.6785Z" fill="#FB5607"/>
</svg>
