<svg width="120" height="120" viewBox="0 0 120 120" fill="none" xmlns="http://www.w3.org/2000/svg">
<circle cx="60" cy="60" r="60" fill="#FCFBF7"/>
<path d="M65.1295 67.9498C65.4645 68.174 65.8504 68.2868 66.2369 68.2868C66.6235 68.2868 67.01 68.174 67.3444 67.9498C68.026 67.495 84.0599 56.7205 89.9659 45.8973C91.4271 43.634 92.1982 41.0197 92.1982 38.3305C92.1982 30.6215 85.9272 24.3516 78.2193 24.3516C72.5512 24.3516 68.3539 29.0547 66.2369 31.5118C64.1199 29.054 59.9233 24.3516 54.2557 24.3516C46.5466 24.3516 40.2754 30.6215 40.2754 38.3305C40.2754 41.019 41.0478 43.6333 42.5077 45.8973C48.4129 56.7207 64.4464 67.4946 65.1292 67.9498H65.1295ZM54.2564 28.344C58.2495 28.344 61.5893 32.23 63.3849 34.3175C64.5001 35.6157 65.1146 36.3321 66.2383 36.3321C67.3612 36.3321 67.9765 35.6157 69.093 34.3175C70.8873 32.2289 74.2271 28.344 78.2215 28.344C83.7273 28.344 88.2067 32.8241 88.2067 38.3299C88.2067 40.2678 87.6436 42.1542 86.58 43.7809C86.5503 43.8273 86.5213 43.8743 86.4956 43.9233C81.9343 52.3488 69.9483 61.2391 66.2391 63.8582C62.5309 61.2386 50.5459 52.3487 45.9826 43.9233C45.9562 43.875 45.9279 43.8273 45.8982 43.7809C44.8346 42.1542 44.2715 40.2685 44.2715 38.3299C44.2696 32.8254 48.749 28.344 54.2567 28.344H54.2564Z" fill="#1EB53A"/>
<path d="M90.2529 67.4659C86.6006 65.3263 83.5379 68.4993 82.3847 69.6924C79.9534 72.2114 77.0246 74.7015 75.5415 75.9243C74.9121 75.6421 74.2176 75.4823 73.4863 75.4752C68.9695 75.2323 61.8505 74.4173 60.0691 73.3582C58.1545 72.2204 56.6218 71.1084 55.2694 70.1292C51.3833 67.3126 48.3153 65.0898 40.6745 65.0898C38.4596 65.0898 36.5179 65.7038 34.6392 66.2991C32.7115 66.9098 30.8903 67.4871 28.6927 67.4871C26.2691 67.4871 24.2988 69.4572 24.2988 71.8809L24.2995 83.0626C24.2995 85.4862 26.2695 87.4564 28.6933 87.4564C32.8706 87.4564 39.4008 87.671 40.8419 88.1522C43.4389 89.0175 49.5257 92.6272 51.6518 93.944C51.6789 93.9601 51.7066 93.9775 51.7336 93.9923C52.5029 94.4195 53.3752 94.6462 54.2565 94.6462H74.5642C76.7133 94.6462 79.103 92.6574 79.9314 91.282C82.5942 86.8638 92.1419 74.8407 92.2379 74.7199C92.3235 74.6104 92.3983 74.4932 92.4595 74.3701C93.6964 71.8955 92.7468 68.9268 90.2523 67.4664L90.2529 67.4659ZM74.5635 90.6515H54.2559C54.0639 90.6515 53.8739 90.6051 53.7044 90.5188C52.9538 90.0543 45.5649 85.5169 42.1047 84.3643C39.5315 83.5068 30.4799 83.463 28.6927 83.463C28.4717 83.463 28.292 83.284 28.292 83.0636L28.2926 71.8806C28.2926 71.659 28.4724 71.4799 28.6934 71.4799C31.5069 71.4799 33.8126 70.7493 35.8438 70.107C37.5794 69.5581 39.0772 69.084 40.6744 69.084C47.0197 69.084 49.2429 70.6946 52.9261 73.3637C54.3467 74.3932 55.958 75.5599 58.0267 76.7917C59.0652 77.4096 60.7859 77.8947 62.7156 78.2716C66.862 79.082 71.9695 79.3945 73.3219 79.4666C73.3561 79.4692 73.3915 79.4692 73.4276 79.4692C74.0873 79.4692 74.6259 80.0065 74.6259 80.6682C74.6259 81.3292 74.0886 81.8645 73.4276 81.8645C73.3922 81.8645 73.358 81.8671 73.3219 81.8684L58.2097 82.6634C57.0063 82.6196 54.1663 80.6082 52.2801 79.2746C51.7917 78.928 51.3156 78.595 50.8466 78.2715C49.8255 77.5655 48.8506 76.9315 47.959 76.485C46.9727 75.989 45.7737 76.3916 45.2809 77.378C44.7881 78.3643 45.1875 79.5639 46.1739 80.0581C47.2028 80.5715 48.5485 81.525 49.9737 82.534C52.9688 84.6554 55.7996 86.6598 58.2504 86.6598C58.2859 86.6598 58.3213 86.6585 58.3561 86.6572L73.4876 85.8597C76.3235 85.8287 78.6216 83.5101 78.6216 80.6689C78.6216 80.0259 78.505 79.4106 78.2898 78.8405C79.8921 77.5133 82.777 75.04 85.26 72.4701C86.9614 70.708 87.6399 70.5644 88.2378 70.9143C88.7674 71.2254 89.1559 71.8323 88.951 72.4405C87.6238 74.1162 79.1422 84.8584 76.5131 89.2219C76.1626 89.7992 74.9907 90.6051 74.5643 90.6509L74.5635 90.6515Z" fill="#1EB53A"/>
</svg>
