<svg width="78" height="56" viewBox="0 0 78 56" fill="none" xmlns="http://www.w3.org/2000/svg">
<path fill-rule="evenodd" clip-rule="evenodd" d="M74.0866 49.4486C76.4782 45.35 77.5 38.741 77.5 27.9902C77.5 17.2822 76.4878 10.7117 74.0707 6.5031C71.6484 2.13277 68.7756 0.74561 63.0741 0.412653C59.1817 0.148828 49.5079 0 39.0093 0C28.4881 0 18.8101 0.148772 14.8885 0.414721C9.21891 0.746405 6.34538 2.13663 3.90176 6.5191C1.51984 10.7132 0.5 17.3158 0.5 28.0294C0.5 38.6821 1.52478 45.318 3.92269 49.4983C6.33454 53.8243 9.16226 55.1978 14.8801 55.5994C18.9896 55.8399 29.2155 56 39.0093 56C48.7812 56 59.002 55.8398 63.0741 55.6021C68.8445 55.1979 71.6717 53.8222 74.0866 49.4486ZM62.6334 7.3987C66.1998 7.60712 66.8612 7.92768 67.9917 9.97373C69.6374 12.824 70.5 18.402 70.5 28.0294C70.5 37.584 69.6328 43.1927 67.9993 45.9935C66.8649 48.0459 66.2082 48.3655 62.6253 48.6166C58.7712 48.8414 48.6495 49 39.0093 49C29.3474 49 19.2206 48.8414 15.3296 48.614C11.791 48.3652 11.1248 48.0416 10.0156 46.0523C8.37102 43.1848 7.5 37.5446 7.5 27.9902C7.5 18.4415 8.36638 12.8324 10.0021 9.95197C11.1286 7.93195 11.7995 7.60734 15.3298 7.40072C19.0678 7.14737 28.6549 7 39.0093 7C49.3416 7 58.9242 7.14742 62.6334 7.3987ZM32 17.5L49.5 28L32 38.5V17.5Z" fill="#262831"/>
</svg>
