<svg width="36" height="36" viewBox="0 0 36 36" fill="none" xmlns="http://www.w3.org/2000/svg">
<rect width="36" height="36" rx="8" fill="#1EB53A"/>
<path fill-rule="evenodd" clip-rule="evenodd" d="M16 24C11.5817 24 8 20.4183 8 16C8 11.5817 11.5817 8 16 8C20.4183 8 24 11.5817 24 16C24 17.8487 23.3729 19.551 22.3199 20.9056L27.7071 26.2929L26.2929 27.7071L20.9056 22.3199C19.551 23.3729 17.8487 24 16 24ZM22 16C22 19.3137 19.3137 22 16 22C12.6863 22 10 19.3137 10 16C10 12.6863 12.6863 10 16 10C19.3137 10 22 12.6863 22 16Z" fill="white"/>
</svg>
