<svg width="18" height="14" viewBox="0 0 18 14" fill="none" xmlns="http://www.w3.org/2000/svg">
<path d="M16.9704 2.36311C17.3609 2.75364 17.3609 3.3868 16.9704 3.77733L7.77803 12.9697C7.3875 13.3602 6.75434 13.3602 6.36381 12.9697L4.9496 11.5555C4.55907 11.165 4.55907 10.5318 4.9496 10.1413L14.142 0.948899C14.5325 0.558375 15.1657 0.558375 15.5562 0.948899L16.9704 2.36311Z" fill="#1EB53A"/>
<path d="M7.77803 12.9697C7.3875 13.3602 6.75434 13.3602 6.36381 12.9697L0.706955 7.31286C0.316432 6.92233 0.316431 6.28917 0.706956 5.89864L2.12117 4.48443C2.51169 4.09391 3.14486 4.09391 3.53538 4.48443L9.19224 10.1413C9.58276 10.5318 9.58276 11.165 9.19224 11.5555L7.77803 12.9697Z" fill="#1EB53A"/>
</svg>
