<svg width="30" height="22" viewBox="0 0 30 22" fill="none" xmlns="http://www.w3.org/2000/svg">
<path d="M29.4785 2.9791C30.1738 3.66061 30.1738 4.76556 29.4785 5.44707L13.1115 21.4889C12.4162 22.1704 11.2888 22.1704 10.5935 21.4889L8.0755 19.0209C7.38017 18.3394 7.38017 17.2344 8.0755 16.5529L24.4425 0.511133C25.1378 -0.170378 26.2652 -0.170378 26.9605 0.511133L29.4785 2.9791Z" fill="#1EB53A"/>
<path d="M13.1115 21.4889C12.4162 22.1704 11.2888 22.1704 10.5935 21.4889L0.521495 11.617C-0.173832 10.9355 -0.173832 9.83053 0.521495 9.14902L3.03949 6.68105C3.73482 5.99954 4.86217 5.99954 5.5575 6.68105L15.6295 16.5529C16.3248 17.2344 16.3248 18.3394 15.6295 19.0209L13.1115 21.4889Z" fill="#1EB53A"/>
</svg>
