<svg width="255" height="291" viewBox="0 0 255 291" fill="none" xmlns="http://www.w3.org/2000/svg">
<g filter="url(#filter0_d_1_2125)">
<path d="M89.6095 278.894C89.3233 278.787 89.0461 278.679 88.7599 278.572C88.3754 277.096 89.0371 275.165 86.9356 274.449L86.9624 274.503C87.4722 272.205 86.0771 270.711 84.3958 269.88C81.7398 268.565 79.8171 266.884 79.1822 263.906C78.9765 262.931 78.2611 262.457 77.2416 262.502C75.6587 258.71 74.0848 254.927 72.5109 251.136C72.7702 248.962 72.5466 246.78 70.5882 245.573C68.576 244.339 68.1557 242.336 67.3062 240.485C67.2167 237.453 65.9826 234.922 64.4534 232.293C62.1641 228.358 59.204 224.692 58.3008 220.041C58.3008 219.102 58.3008 218.163 58.3008 217.225C58.2561 216.706 58.1487 216.25 57.4601 216.348L57.4959 216.393C57.5675 215.695 57.2545 215.391 56.5659 215.463L56.6106 215.507C56.1366 213.218 56.1366 210.598 52.9888 210.097L53.0335 210.142C53.105 209.444 52.792 209.14 52.1034 209.212L52.1481 209.256C52.2197 208.559 51.9067 208.255 51.2181 208.326L51.2628 208.38C51.4327 206.565 50.6815 205.134 49.4385 203.891C49.6441 199.902 49.6531 196.093 46.4784 192.882C43.2769 189.654 46.4695 185.647 45.7183 181.909C44.7793 177.268 45.5662 172.359 46.4695 167.61C46.9613 165.043 44.8776 163.264 44.0996 161.073C45.4053 158.247 45.6378 155.233 45.7361 152.184C46.0044 151.137 46.2638 150.091 46.5321 149.045C46.6125 146.013 46.7109 142.973 46.7646 139.941C46.7914 138.734 46.7467 137.508 44.976 137.723L45.0207 137.786C44.4931 134.405 42.007 134.96 39.7087 135.148C36.1942 136.095 33.5292 132.894 30.1399 133.225C29.9968 132.948 29.8627 132.67 29.7196 132.393C29.6928 131.231 29.6659 130.059 29.6481 128.897C30.4261 128.297 31.3293 127.806 31.9374 127.063C32.6618 126.178 32.6081 125.489 31.1594 126.035C30.6854 125.695 30.2204 125.355 29.7464 125.006L29.7911 124.863C30.3277 124.702 30.8196 124.488 30.6586 123.781C30.6318 123.665 30.4797 123.522 30.3635 123.495C29.6481 123.334 29.4424 123.826 29.2814 124.363C29.1652 123.62 29.0489 122.878 28.9326 122.136C30.2562 121.563 29.6749 120.061 30.3635 119.185C31.3293 117.754 30.3903 116.278 30.3903 114.838C30.3903 112.066 30.3188 109.678 32.5634 107.309C34.9064 104.84 33.2699 95.0302 30.7391 92.6246C29.9163 91.8376 29.0221 91.5514 27.8953 91.8734C24.7474 92.7855 22.2345 90.3799 21.9751 88.4751C21.3491 83.8875 17.6647 82.7428 14.8925 80.5876C13.4974 79.5055 12.6925 78.7006 12.5852 76.7511C12.3348 72.6285 8.65038 70.0351 7.40734 66.2791C6.9602 64.9377 5.10904 65.197 3.76762 65.3222C2.301 65.4653 0.610815 66.0287 0.190504 63.8824C-0.194036 61.915 -0.176151 59.7598 1.98801 58.8476C7.59514 56.4689 9.63409 52.7487 8.56096 46.4977C8.16747 44.1815 7.42522 39.9784 10.6983 38.5475C14.1144 37.0541 17.9956 37.4386 21.4743 39.2003C24.6848 40.8279 28.0831 41.8027 31.6334 42.1336C34.4772 42.3929 37.1779 43.1083 39.8518 44.0652C41.7924 44.7627 43.4021 45.5408 43.0533 48.0895C42.9639 48.7333 43.2679 49.6813 43.733 50.1105C46.1565 52.3105 46.8003 53.9738 44.9134 57.5062C43.5005 60.1622 45.2711 64.5532 47.7572 67.084C50.0734 69.4538 52.3717 67.6742 54.7773 65.9929C58.8284 63.167 63.0852 65.5816 66.9484 66.9588C69.7386 67.9514 71.6434 68.1571 74.3084 66.4311C77.4205 64.419 81.7756 65.2328 84.8966 62.5678C85.6657 61.915 86.8104 62.9882 87.6063 63.6768C90.8525 66.5116 94.6979 65.3669 98.3108 65.0897C99.9742 64.9645 101.083 63.4174 101.289 61.611C101.602 58.9102 103.176 58.7135 105.018 59.9476C109.248 62.7735 112.646 60.4126 115.383 57.8371C121.115 52.4267 124.361 45.7733 123.208 37.5638C122.474 32.3591 122.045 27.2975 126.803 23.3716C128.046 22.3521 127.67 20.4294 127.5 18.7213C126.955 13.2662 124.039 7.88267 127.044 1.99832C129.092 3.61696 130.764 6.0494 134.332 4.53807C135.969 3.84053 137.686 6.5502 139.099 8.07942C142.211 11.4598 145.1 15.028 150.081 15.958C152.737 16.4588 154.776 16.0653 156.43 13.9548C158.558 11.2362 160.812 8.5981 162.681 5.71852C163.584 4.33239 164.112 4.85107 165.131 5.26244C171.561 7.8469 178 6.12094 182.489 0.683726C183.741 -0.836549 189.009 0.3439 190.556 2.59748C193.426 6.78271 197.352 9.52815 202.155 10.9232C204.936 11.737 205.776 13.141 203.621 15.1532C200.929 17.6571 200.724 21.1359 199.275 24.0244C196.538 29.4616 196.512 36.2492 191.217 40.4523C189.08 42.1425 187.014 44.5213 188.696 47.3472C190.52 50.4057 193.569 50.1016 196.458 48.4114C197.352 50.3878 196.064 50.7276 194.83 51.4072C191.611 53.16 189 55.3689 190.359 59.6614C190.654 60.5915 190.314 61.3695 189.84 62.1833C185.056 70.4554 184.949 70.5627 191.37 77.4576C192.693 78.8706 193.713 80.4445 194.866 81.929C197.173 84.8891 198.944 85.1037 201.484 82.2867C205.946 77.3324 209.103 77.2161 214.183 81.9022C215.649 83.2525 217.617 84.0484 218.144 86.4272C218.475 87.9028 220.407 88.2337 221.551 87.7329C224.431 86.4719 226.55 87.9028 228.983 88.9849C233.266 90.8897 237.362 88.2068 241.682 87.9743C241.869 89.745 240.26 90.4694 239.491 91.4888C236.772 95.1017 235.037 98.2943 240.492 100.986C241.78 101.621 241.637 102.962 241.333 104.161C241.029 105.377 240.85 106.754 241.861 107.514C246.234 110.823 242.746 113.855 241.53 116.851C241.127 117.843 239.893 118.451 240.072 119.864C240.77 125.31 236.951 128.19 231.639 126.294C231.111 126.106 230.128 125.901 229.985 126.115C227.382 130.157 222.231 129.353 218.949 132.009C217.697 133.019 216.526 134.2 215.515 135.452C213.78 137.616 213.118 139.458 216.874 140.397C220.273 141.238 219.745 142.892 217.635 145.11C213.735 149.215 208.289 150.359 203.702 153.078C199.74 155.43 195.009 156.566 191.843 160.241C190.833 161.413 189.652 162.843 190.091 164.176C191.432 168.209 189.536 171.178 187.292 173.977C183.124 179.173 181.837 184.726 185.432 191.237C176.82 188.938 175.442 189.216 172.572 196.808C170.747 201.637 166.696 204.409 163.942 208.291C160.964 212.494 161.384 217.296 159.31 221.463C155.688 228.752 153.041 236.872 144.652 240.324C140.959 241.844 139.188 245.046 138.75 248.104C137.883 254.069 133.796 256.483 129.351 258.809C127.724 259.658 126.498 260.74 125.229 262.046C121.303 266.07 116.59 268.306 110.759 267.34C108.318 266.937 106.207 267.322 105.671 270.246C105.376 271.838 104.66 272.965 103.185 273.698C100.716 274.923 99.7774 276.864 101.271 280.352C97.0767 278.018 93.1866 281.058 89.6095 278.894Z" fill="#CE1126"/>
</g>
<mask id="mask0_1_2125" style="mask-type:alpha" maskUnits="userSpaceOnUse" x="0" y="0" width="244" height="281">
<path d="M89.6095 278.894C89.3233 278.787 89.0461 278.679 88.7599 278.572C88.3754 277.096 89.0371 275.165 86.9356 274.449L86.9624 274.503C87.4722 272.205 86.0771 270.711 84.3958 269.88C81.7398 268.565 79.8171 266.884 79.1822 263.906C78.9765 262.931 78.2611 262.457 77.2416 262.502C75.6587 258.71 74.0848 254.927 72.5109 251.136C72.7702 248.962 72.5466 246.78 70.5882 245.573C68.576 244.339 68.1557 242.336 67.3062 240.485C67.2167 237.453 65.9826 234.922 64.4534 232.293C62.1641 228.358 59.204 224.692 58.3008 220.041C58.3008 219.102 58.3008 218.163 58.3008 217.225C58.2561 216.706 58.1487 216.25 57.4601 216.348L57.4959 216.393C57.5675 215.695 57.2545 215.391 56.5659 215.463L56.6106 215.507C56.1366 213.218 56.1366 210.598 52.9888 210.097L53.0335 210.142C53.105 209.444 52.792 209.14 52.1034 209.212L52.1481 209.256C52.2197 208.559 51.9067 208.255 51.2181 208.326L51.2628 208.38C51.4327 206.565 50.6815 205.134 49.4385 203.891C49.6441 199.902 49.6531 196.093 46.4784 192.882C43.2769 189.654 46.4695 185.647 45.7183 181.909C44.7793 177.268 45.5662 172.359 46.4695 167.61C46.9613 165.043 44.8776 163.264 44.0996 161.073C45.4053 158.247 45.6378 155.233 45.7361 152.184C46.0044 151.137 46.2638 150.091 46.5321 149.045C46.6125 146.013 46.7109 142.973 46.7646 139.941C46.7914 138.734 46.7467 137.508 44.976 137.723L45.0207 137.786C44.4931 134.405 42.007 134.96 39.7087 135.148C36.1942 136.095 33.5292 132.894 30.1399 133.225C29.9968 132.948 29.8627 132.67 29.7196 132.393C29.6928 131.231 29.6659 130.059 29.6481 128.897C30.4261 128.297 31.3293 127.806 31.9374 127.063C32.6618 126.178 32.6081 125.489 31.1594 126.035C30.6854 125.695 30.2204 125.355 29.7464 125.006L29.7911 124.863C30.3277 124.702 30.8196 124.488 30.6586 123.781C30.6318 123.665 30.4797 123.522 30.3635 123.495C29.6481 123.334 29.4424 123.826 29.2814 124.363C29.1652 123.62 29.0489 122.878 28.9326 122.136C30.2562 121.563 29.6749 120.061 30.3635 119.185C31.3293 117.754 30.3903 116.278 30.3903 114.838C30.3903 112.066 30.3188 109.678 32.5634 107.309C34.9064 104.84 33.2699 95.0302 30.7391 92.6246C29.9163 91.8376 29.0221 91.5514 27.8953 91.8734C24.7474 92.7855 22.2345 90.3799 21.9751 88.4751C21.3491 83.8875 17.6647 82.7428 14.8925 80.5876C13.4974 79.5055 12.6925 78.7006 12.5852 76.7511C12.3348 72.6285 8.65038 70.0351 7.40734 66.2791C6.9602 64.9377 5.10904 65.197 3.76762 65.3222C2.301 65.4653 0.610815 66.0287 0.190504 63.8824C-0.194036 61.915 -0.176151 59.7598 1.98801 58.8476C7.59514 56.4689 9.63409 52.7487 8.56096 46.4977C8.16747 44.1815 7.42522 39.9784 10.6983 38.5475C14.1144 37.0541 17.9956 37.4386 21.4743 39.2003C24.6848 40.8279 28.0831 41.8027 31.6334 42.1336C34.4772 42.3929 37.1779 43.1083 39.8518 44.0652C41.7924 44.7627 43.4021 45.5408 43.0533 48.0895C42.9639 48.7333 43.2679 49.6813 43.733 50.1105C46.1565 52.3105 46.8003 53.9738 44.9134 57.5062C43.5005 60.1622 45.2711 64.5532 47.7572 67.084C50.0734 69.4538 52.3717 67.6742 54.7773 65.9929C58.8284 63.167 63.0852 65.5816 66.9484 66.9588C69.7386 67.9514 71.6434 68.1571 74.3084 66.4311C77.4205 64.419 81.7756 65.2328 84.8966 62.5678C85.6657 61.915 86.8104 62.9882 87.6063 63.6768C90.8525 66.5116 94.6979 65.3669 98.3108 65.0897C99.9742 64.9645 101.083 63.4174 101.289 61.611C101.602 58.9102 103.176 58.7135 105.018 59.9476C109.248 62.7735 112.646 60.4126 115.383 57.8371C121.115 52.4267 124.361 45.7733 123.208 37.5638C122.474 32.3591 122.045 27.2975 126.803 23.3716C128.046 22.3521 127.67 20.4294 127.5 18.7213C126.955 13.2662 124.039 7.88267 127.044 1.99832C129.092 3.61696 130.764 6.0494 134.332 4.53807C135.969 3.84053 137.686 6.5502 139.099 8.07942C142.211 11.4598 145.1 15.028 150.081 15.958C152.737 16.4588 154.776 16.0653 156.43 13.9548C158.558 11.2362 160.812 8.5981 162.681 5.71852C163.584 4.33239 164.112 4.85107 165.131 5.26244C171.561 7.8469 178 6.12094 182.489 0.683726C183.741 -0.836549 189.009 0.3439 190.556 2.59748C193.426 6.78271 197.352 9.52815 202.155 10.9232C204.936 11.737 205.776 13.141 203.621 15.1532C200.929 17.6571 200.724 21.1359 199.275 24.0244C196.538 29.4616 196.512 36.2492 191.217 40.4523C189.08 42.1425 187.014 44.5213 188.696 47.3472C190.52 50.4057 193.569 50.1016 196.458 48.4114C197.352 50.3878 196.064 50.7276 194.83 51.4072C191.611 53.16 189 55.3689 190.359 59.6614C190.654 60.5915 190.314 61.3695 189.84 62.1833C185.056 70.4554 184.949 70.5627 191.37 77.4576C192.693 78.8706 193.713 80.4445 194.866 81.929C197.173 84.8891 198.944 85.1037 201.484 82.2867C205.946 77.3324 209.103 77.2161 214.183 81.9022C215.649 83.2525 217.617 84.0484 218.144 86.4272C218.475 87.9028 220.407 88.2337 221.551 87.7329C224.431 86.4719 226.55 87.9028 228.983 88.9849C233.266 90.8897 237.362 88.2068 241.682 87.9743C241.869 89.745 240.26 90.4694 239.491 91.4888C236.772 95.1017 235.037 98.2943 240.492 100.986C241.78 101.621 241.637 102.962 241.333 104.161C241.029 105.377 240.85 106.754 241.861 107.514C246.234 110.823 242.746 113.855 241.53 116.851C241.127 117.843 239.893 118.451 240.072 119.864C240.77 125.31 236.951 128.19 231.639 126.294C231.111 126.106 230.128 125.901 229.985 126.115C227.382 130.157 222.231 129.353 218.949 132.009C217.697 133.019 216.526 134.2 215.515 135.452C213.78 137.616 213.118 139.458 216.874 140.397C220.273 141.238 219.745 142.892 217.635 145.11C213.735 149.215 208.289 150.359 203.702 153.078C199.74 155.43 195.009 156.566 191.843 160.241C190.833 161.413 189.652 162.843 190.091 164.176C191.432 168.209 189.536 171.178 187.292 173.977C183.124 179.173 181.837 184.726 185.432 191.237C176.82 188.938 175.442 189.216 172.572 196.808C170.747 201.637 166.696 204.409 163.942 208.291C160.964 212.494 161.384 217.296 159.31 221.463C155.688 228.752 153.041 236.872 144.652 240.324C140.959 241.844 139.188 245.046 138.75 248.104C137.883 254.069 133.796 256.483 129.351 258.809C127.724 259.658 126.498 260.74 125.229 262.046C121.303 266.07 116.59 268.306 110.759 267.34C108.318 266.937 106.207 267.322 105.671 270.246C105.376 271.838 104.66 272.965 103.185 273.698C100.716 274.923 99.7774 276.864 101.271 280.352C97.0767 278.018 93.1866 281.058 89.6095 278.894Z" fill="#FFBE0B"/>
</mask>
<g mask="url(#mask0_1_2125)">
<path d="M268 215.978C268 219.383 268 222.792 268 226.198C261.795 226.198 255.59 226.198 249.385 226.198C249.338 225.57 248.743 225.544 248.363 225.314C223.799 210.547 199.228 195.786 174.656 181.03C169.827 178.132 164.991 175.248 160.18 172.376C140.102 195.286 103.785 195.348 83.6444 172.23C83.4948 172.299 83.3232 172.354 83.1736 172.445C53.7112 190.151 24.2524 207.857 -5.20639 225.566C-5.44729 225.712 -5.77943 225.807 -5.75023 226.198C-11.8347 226.198 -17.9155 226.198 -24 226.198C-24 222.303 -24 218.412 -24 214.518C-23.3795 214.627 -22.9999 214.157 -22.551 213.886C5.15583 197.385 32.8553 180.88 60.5585 164.371C64.9786 161.736 69.395 159.093 73.8589 156.429C68.9607 144.621 70.1834 132.879 73.6837 121.232C73.1107 120.849 72.7712 120.597 72.4099 120.382C44.6118 103.687 16.8138 86.9885 -10.9989 70.3156C-15.3095 67.735 -19.5179 64.972 -23.9964 62.6799C-23.9964 58.7854 -23.9964 54.8945 -23.9964 51C-17.7914 51 -11.5865 51 -5.38159 51C-5.36334 51.5548 -4.85599 51.5913 -4.5202 51.792C20.7776 66.9795 46.0791 82.167 71.3806 97.3508C75.5306 99.84 79.6879 102.322 83.8452 104.808C94.2293 93.3468 107.077 87.5068 122.345 87.6127C137.591 87.7185 150.362 93.7337 160.502 105.147C160.936 104.91 161.261 104.746 161.571 104.559C189.219 87.8499 216.871 71.1477 244.505 54.4164C246.286 53.336 248.272 52.5512 249.75 51C255.835 51 261.915 51 268 51C268 54.8945 268 58.7854 268 62.6799C267.23 62.4974 266.785 63.1251 266.252 63.45C238.698 80.1084 211.156 96.7814 183.617 113.458C179.153 116.159 174.7 118.875 170.192 121.612C172.433 127.452 173.528 133.383 173.503 139.522C173.477 145.658 172.221 151.553 170.105 157.334C170.553 157.615 170.908 157.841 171.265 158.057C200.476 175.609 229.683 193.166 258.908 210.7C261.912 212.5 264.799 214.511 268 215.978ZM88.685 158.002C91.3969 158.002 93.7548 158.002 96.1163 158.002C97.4595 160.232 98.7552 162.386 100.146 164.692C101.573 162.305 102.872 160.13 104.208 157.896C106.606 157.896 108.953 157.896 111.537 157.896C110.351 155.582 109.26 153.447 108.205 151.396C109.406 149.103 110.534 146.943 111.778 144.559C109.023 144.559 106.603 144.559 104.143 144.559C102.814 142.347 101.526 140.194 100.131 137.873C98.6932 140.271 97.3975 142.435 96.0652 144.658C93.5577 144.658 91.1524 144.658 88.5208 144.658C89.78 147.045 90.9261 149.224 92.0685 151.388C90.9735 153.535 89.9005 155.626 88.685 158.002ZM139.175 144.651C136.744 144.651 134.346 144.651 131.769 144.651C133.006 146.997 134.131 149.125 135.269 151.282C134.196 153.407 133.141 155.484 131.966 157.809C134.612 157.809 136.963 157.809 139.262 157.809C140.613 160.05 141.879 162.156 143.234 164.411C144.646 162.064 145.924 159.947 147.267 157.717C149.643 157.717 151.979 157.717 154.479 157.717C153.304 155.422 152.231 153.33 151.19 151.297C152.358 149.078 153.475 146.957 154.731 144.574C152.03 144.574 149.625 144.574 147.249 144.574C145.894 142.318 144.624 140.201 143.23 137.883C141.858 140.168 140.591 142.282 139.175 144.651ZM121.87 100.296C120.432 102.676 119.155 104.789 117.848 106.954C115.414 106.954 113.096 106.954 110.614 106.954C111.829 109.268 112.95 111.392 114.019 113.429C112.921 115.586 111.895 117.601 110.749 119.853C113.366 119.853 115.655 119.853 117.954 119.853C119.253 122.021 120.498 124.09 121.859 126.353C123.214 124.109 124.484 122.006 125.845 119.751C128.163 119.751 130.492 119.751 132.959 119.751C131.798 117.491 130.754 115.455 129.718 113.436C130.857 111.253 131.959 109.136 133.174 106.811C130.492 106.811 128.137 106.811 125.79 106.811C124.498 104.665 123.254 102.596 121.87 100.296Z" fill="#FDFDFD"/>
<path d="M268.001 215.978C264.8 214.511 261.912 212.5 258.909 210.7C229.683 193.166 200.476 175.61 171.262 158.057C170.905 157.842 170.551 157.615 170.102 157.334C172.219 151.553 173.474 145.655 173.5 139.523C173.525 133.383 172.43 127.452 170.189 121.612C174.697 118.875 179.15 116.163 183.614 113.458C211.156 96.7817 238.695 80.105 266.249 63.4503C266.782 63.1291 267.227 62.5013 267.997 62.6801C268.001 113.779 268.001 164.879 268.001 215.978Z" fill="#1EB53A"/>
<path d="M-23.9961 62.6802C-19.5176 64.9723 -15.3092 67.7354 -10.9986 70.3159C16.8177 86.9889 44.6121 103.687 72.4138 120.382C72.7751 120.598 73.1146 120.849 73.6876 121.233C70.1873 132.88 68.9646 144.622 73.8628 156.429C69.4026 159.094 64.9861 161.736 60.5624 164.372C32.8629 180.88 5.15974 197.389 -22.5471 213.887C-22.996 214.157 -23.3756 214.628 -23.9961 214.518C-23.9961 163.904 -23.9961 113.294 -23.9961 62.6802Z" fill="#1EB53A"/>
<path d="M249.751 51.0002C248.273 52.5515 246.287 53.3362 244.506 54.4166C216.872 71.148 189.22 87.8502 161.572 104.556C161.261 104.742 160.937 104.906 160.502 105.144C150.359 93.7303 137.591 87.7151 122.346 87.6093C107.078 87.5034 94.23 93.3434 83.8459 104.804C79.6886 102.319 75.5313 99.8366 71.3813 97.3474C46.0798 82.1672 20.7784 66.9797 -4.51947 51.7923C-4.85527 51.5915 -5.36261 51.555 -5.38086 51.0002C79.6631 51.0002 164.707 51.0002 249.751 51.0002Z" fill="#CE1126"/>
<path d="M-5.74625 226.197C-5.77545 225.807 -5.4433 225.712 -5.2024 225.566C24.2564 207.856 53.7152 190.147 83.1776 172.444C83.3272 172.353 83.4951 172.298 83.6484 172.229C103.789 195.348 140.106 195.286 160.184 172.375C164.991 175.251 169.831 178.131 174.66 181.029C199.232 195.786 223.803 210.546 248.367 225.314C248.747 225.544 249.342 225.569 249.389 226.197C164.342 226.197 79.2977 226.197 -5.74625 226.197Z" fill="#CE1126"/>
<path d="M88.684 158.003C89.9031 155.626 90.9726 153.535 92.0712 151.392C90.9288 149.228 89.7827 147.049 88.5234 144.662C91.1551 144.662 93.5604 144.662 96.0679 144.662C97.4001 142.439 98.6959 140.275 100.134 137.877C101.528 140.198 102.817 142.352 104.145 144.563C106.605 144.563 109.029 144.563 111.781 144.563C110.536 146.947 109.408 149.104 108.208 151.4C109.259 153.455 110.354 155.586 111.54 157.9C108.956 157.9 106.609 157.9 104.211 157.9C102.875 160.134 101.576 162.306 100.149 164.697C98.7616 162.39 97.4622 160.236 96.119 158.006C93.7502 158.003 91.396 158.003 88.684 158.003ZM97.0169 156.305C98.0644 158.039 99.0535 159.674 100.13 161.448C101.284 159.568 102.287 157.93 103.309 156.262C105.175 156.262 106.916 156.262 108.865 156.262C107.959 154.488 107.145 152.885 106.324 151.272C107.2 149.597 108.062 147.954 109.043 146.075C106.905 146.075 105.047 146.075 103.196 146.075C102.167 144.37 101.211 142.782 100.138 141.008C99.0499 142.793 98.079 144.385 97.0424 146.085C95.1846 146.085 93.3268 146.085 91.2135 146.085C92.1953 147.951 93.0603 149.593 93.94 151.265C93.1151 152.889 92.3048 154.495 91.385 156.305C93.4071 156.305 95.2065 156.305 97.0169 156.305Z" fill="#1EB53A"/>
<path d="M139.175 144.651C140.591 142.286 141.858 140.169 143.23 137.88C144.625 140.198 145.895 142.315 147.249 144.57C149.621 144.57 152.027 144.57 154.731 144.57C153.476 146.95 152.359 149.075 151.191 151.294C152.235 153.33 153.304 155.418 154.48 157.714C151.979 157.714 149.643 157.714 147.267 157.714C145.924 159.944 144.647 162.061 143.234 164.408C141.876 162.152 140.61 160.046 139.263 157.805C136.963 157.805 134.613 157.805 131.967 157.805C133.142 155.48 134.197 153.403 135.27 151.279C134.131 149.126 133.011 146.994 131.77 144.647C134.346 144.651 136.744 144.651 139.175 144.651ZM143.249 141.008C142.176 142.764 141.179 144.388 140.121 146.114C138.237 146.114 136.387 146.114 134.321 146.114C135.299 147.969 136.164 149.611 137.04 151.272C136.204 152.914 135.39 154.509 134.474 156.316C136.514 156.316 138.31 156.316 140.124 156.316C141.168 158.046 142.15 159.681 143.234 161.477C144.376 159.583 145.369 157.933 146.384 156.247C148.238 156.247 149.983 156.247 151.965 156.247C151.049 154.458 150.231 152.856 149.428 151.283C150.308 149.586 151.151 147.958 152.114 146.103C149.954 146.103 148.147 146.103 146.311 146.103C145.3 144.424 144.336 142.819 143.249 141.008Z" fill="#1EB53A"/>
<path d="M121.871 100.296C123.255 102.595 124.496 104.665 125.788 106.815C128.135 106.815 130.493 106.815 133.172 106.815C131.96 109.14 130.854 111.257 129.715 113.439C130.752 115.458 131.799 117.498 132.956 119.754C130.485 119.754 128.16 119.754 125.843 119.754C124.481 122.009 123.211 124.112 121.857 126.357C120.499 124.094 119.254 122.02 117.951 119.856C115.648 119.856 113.36 119.856 110.746 119.856C111.892 117.604 112.918 115.589 114.017 113.432C112.944 111.395 111.827 109.271 110.611 106.957C113.093 106.957 115.411 106.957 117.846 106.957C119.16 104.789 120.433 102.676 121.871 100.296ZM113.112 108.289C114.093 110.165 114.929 111.764 115.791 113.41C114.977 115.005 114.166 116.593 113.247 118.385C115.298 118.385 117.043 118.385 118.842 118.385C119.838 120.042 120.798 121.637 121.871 123.418C122.934 121.648 123.897 120.049 124.945 118.305C126.722 118.305 128.507 118.305 130.456 118.305C129.54 116.52 128.744 114.961 127.949 113.407C128.814 111.76 129.649 110.165 130.609 108.333C128.536 108.333 126.748 108.333 124.952 108.333C123.904 106.603 122.923 104.982 121.857 103.223C120.747 105.066 119.784 106.672 118.809 108.289C116.966 108.289 115.21 108.289 113.112 108.289Z" fill="#1EB53A"/>
<path d="M97.0185 156.305C95.2081 156.305 93.4124 156.305 91.3903 156.305C92.3064 154.494 93.1204 152.892 93.9453 151.264C93.0656 149.592 92.2006 147.95 91.2188 146.085C93.3357 146.085 95.1936 146.085 97.0477 146.085C98.0843 144.384 99.0552 142.792 100.143 141.008C101.212 142.781 102.172 144.369 103.202 146.074C105.052 146.074 106.91 146.074 109.049 146.074C108.067 147.953 107.206 149.596 106.33 151.271C107.151 152.885 107.965 154.487 108.87 156.261C106.917 156.261 105.176 156.261 103.315 156.261C102.293 157.925 101.285 159.568 100.136 161.447C99.0552 159.67 98.0661 158.038 97.0185 156.305Z" fill="#CE1126"/>
<path d="M143.248 141.008C144.336 142.818 145.303 144.424 146.31 146.103C148.143 146.103 149.953 146.103 152.114 146.103C151.15 147.957 150.307 149.585 149.427 151.282C150.23 152.852 151.052 154.454 151.964 156.246C149.982 156.246 148.238 156.246 146.383 156.246C145.369 157.932 144.376 159.579 143.234 161.477C142.153 159.684 141.168 158.049 140.124 156.315C138.31 156.315 136.514 156.315 134.474 156.315C135.393 154.509 136.204 152.914 137.04 151.271C136.164 149.611 135.299 147.968 134.32 146.114C136.386 146.114 138.237 146.114 140.12 146.114C141.175 144.387 142.171 142.76 143.248 141.008Z" fill="#CE1126"/>
<path d="M113.111 108.29C115.21 108.29 116.966 108.29 118.816 108.29C119.791 106.673 120.754 105.067 121.864 103.223C122.93 104.983 123.912 106.603 124.959 108.333C126.751 108.333 128.543 108.333 130.617 108.333C129.657 110.166 128.821 111.757 127.956 113.407C128.751 114.962 129.551 116.52 130.463 118.305C128.51 118.305 126.729 118.305 124.952 118.305C123.904 120.05 122.941 121.652 121.879 123.419C120.805 121.637 119.845 120.042 118.849 118.385C117.053 118.385 115.305 118.385 113.254 118.385C114.17 116.593 114.98 115.005 115.798 113.41C114.933 111.764 114.097 110.166 113.111 108.29Z" fill="#CE1126"/>
</g>
<defs>
<filter id="filter0_d_1_2125" x="0" y="0" width="255" height="290.352" filterUnits="userSpaceOnUse" color-interpolation-filters="sRGB">
<feFlood flood-opacity="0" result="BackgroundImageFix"/>
<feColorMatrix in="SourceAlpha" type="matrix" values="0 0 0 0 0 0 0 0 0 0 0 0 0 0 0 0 0 0 127 0" result="hardAlpha"/>
<feOffset dx="11" dy="10"/>
<feComposite in2="hardAlpha" operator="out"/>
<feColorMatrix type="matrix" values="0 0 0 0 0.121569 0 0 0 0 0.705882 0 0 0 0 0.227451 0 0 0 0.07 0"/>
<feBlend mode="normal" in2="BackgroundImageFix" result="effect1_dropShadow_1_2125"/>
<feBlend mode="normal" in="SourceGraphic" in2="effect1_dropShadow_1_2125" result="shape"/>
</filter>
</defs>
</svg>
