<svg width="1440" height="400" viewBox="0 0 1440 400" fill="none" xmlns="http://www.w3.org/2000/svg">
<mask id="mask0_1_10553" style="mask-type:alpha" maskUnits="userSpaceOnUse" x="0" y="0" width="1440" height="400">
<rect width="1440" height="400" fill="#F5F8E6"/>
</mask>
<g mask="url(#mask0_1_10553)">
<g clip-path="url(#clip0_1_10553)">
<path d="M126.07 111.035C129.911 111.035 133.595 109.509 136.311 106.793C139.027 104.077 140.553 100.394 140.553 96.5526C140.553 92.7117 139.027 89.028 136.311 86.3121C133.595 83.5961 129.911 82.0703 126.07 82.0703V111.035Z" fill="#E1F4E4"/>
</g>
<g clip-path="url(#clip1_1_10553)">
<path d="M213.987 101.091C213.987 103.498 213.031 105.806 211.329 107.508C209.627 109.21 207.319 110.166 204.912 110.166C202.505 110.166 200.196 109.21 198.495 107.508C196.793 105.806 195.836 103.498 195.836 101.091H213.987Z" stroke="#FBE5E7" stroke-width="1.73787" stroke-linecap="round" stroke-linejoin="round"/>
<path d="M213.987 92.0154C213.987 94.4223 213.031 96.7307 211.329 98.4327C209.627 100.135 207.319 101.091 204.912 101.091C202.505 101.091 200.196 100.135 198.495 98.4327C196.793 96.7307 195.836 94.4223 195.836 92.0154H213.987Z" stroke="#FBE5E7" stroke-width="1.73787" stroke-linecap="round" stroke-linejoin="round"/>
<path d="M213.987 82.9392C213.987 85.3461 213.031 87.6545 211.329 89.3565C209.627 91.0585 207.319 92.0146 204.912 92.0146C202.505 92.0146 200.196 91.0585 198.495 89.3565C196.793 87.6545 195.836 85.3461 195.836 82.9392H213.987Z" stroke="#FBE5E7" stroke-width="1.73787" stroke-linecap="round" stroke-linejoin="round"/>
</g>
<g clip-path="url(#clip2_1_10553)">
<path d="M412.495 46.6649C412.495 42.824 410.969 39.1403 408.253 36.4244C405.537 33.7084 401.853 32.1826 398.013 32.1826C394.172 32.1826 390.488 33.7084 387.772 36.4244C385.056 39.1403 383.53 42.824 383.53 46.6649H412.495Z" fill="#E1F4E4"/>
</g>
<g clip-path="url(#clip3_1_10553)">
<path d="M605.595 17.7005C601.754 17.7005 598.07 19.2263 595.354 21.9422C592.638 24.6582 591.112 28.3418 591.112 32.1828C591.112 36.0237 592.638 39.7073 595.354 42.4233C598.07 45.1392 601.754 46.665 605.595 46.665V17.7005Z" fill="#E1F4E4"/>
</g>
<g clip-path="url(#clip4_1_10553)">
<path d="M605.594 82.0706V96.5529C601.754 96.5533 598.07 98.0792 595.354 100.795C592.638 103.511 591.113 107.194 591.112 111.035H576.63C576.63 103.353 579.681 95.986 585.113 90.5541C590.545 85.1222 597.913 82.0706 605.594 82.0706Z" fill="#FCEEBC"/>
</g>
<g clip-path="url(#clip5_1_10553)">
<path d="M512.26 175.395C516.101 175.395 519.784 173.869 522.5 171.153C525.216 168.438 526.742 164.754 526.742 160.913C526.742 157.072 525.216 153.388 522.5 150.672C519.784 147.956 516.101 146.431 512.26 146.431V175.395Z" fill="#E1F4E4"/>
</g>
<g clip-path="url(#clip6_1_10553)">
<path d="M734.325 22.1607V23.7799L729.772 19.3222L724.804 24.1883L719.84 19.3222L714.875 24.1883L709.911 19.3222L705.36 23.7828V22.1607L709.911 17.7002L714.875 22.5662L719.84 17.7002L724.804 22.5662L729.772 17.7002L734.325 22.1607Z" fill="#F9EBDA"/>
<path d="M734.325 27.7799V29.399L729.772 24.9414L724.804 29.8074L719.84 24.9414L714.875 29.8074L709.911 24.9414L705.36 29.4019V27.7799L709.911 23.3193L714.875 28.1854L719.84 23.3193L724.804 28.1854L729.772 23.3193L734.325 27.7799Z" fill="#F9EBDA"/>
<path d="M734.325 39.0182V40.6373L729.772 36.1796L724.804 41.0457L719.84 36.1796L714.875 41.0457L709.911 36.1796L705.36 40.6402V39.0182L709.911 34.5576L714.875 39.4237L719.84 34.5576L724.804 39.4237L729.772 34.5576L734.325 39.0182Z" fill="#F9EBDA"/>
<path d="M734.325 33.399V35.0181L729.772 30.5605L724.804 35.4265L719.84 30.5605L714.875 35.4265L709.911 30.5605L705.36 35.021V33.399L709.911 28.9385L714.875 33.8045L719.84 28.9385L724.804 33.8045L729.772 28.9385L734.325 33.399Z" fill="#F9EBDA"/>
<path d="M734.325 44.6373V46.2564L729.772 41.7988L724.804 46.6648L719.84 41.7988L714.875 46.6648L709.911 41.7988L705.36 46.2593V44.6373L709.911 40.1768L714.875 45.0428L719.84 40.1768L724.804 45.0428L729.772 40.1768L734.325 44.6373Z" fill="#F9EBDA"/>
</g>
<g clip-path="url(#clip7_1_10553)">
<path d="M660.01 87.4775C662.417 87.4775 664.726 88.4337 666.428 90.1357C668.13 91.8377 669.086 94.146 669.086 96.553C669.086 98.96 668.13 101.268 666.428 102.97C664.726 104.672 662.417 105.628 660.01 105.628V87.4775Z" stroke="#FBE5E7" stroke-width="1.73787" stroke-linecap="round" stroke-linejoin="round"/>
<path d="M650.935 87.4775C653.342 87.4775 655.651 88.4337 657.353 90.1357C659.055 91.8377 660.011 94.146 660.011 96.553C660.011 98.96 659.055 101.268 657.353 102.97C655.651 104.672 653.342 105.628 650.935 105.628V87.4775Z" stroke="#FBE5E7" stroke-width="1.73787" stroke-linecap="round" stroke-linejoin="round"/>
<path d="M641.859 87.4775C644.266 87.4775 646.574 88.4337 648.276 90.1357C649.978 91.8377 650.935 94.146 650.935 96.553C650.935 98.96 649.978 101.268 648.276 102.97C646.574 104.672 644.266 105.628 641.859 105.628V87.4775Z" stroke="#FBE5E7" stroke-width="1.73787" stroke-linecap="round" stroke-linejoin="round"/>
</g>
<g clip-path="url(#clip8_1_10553)">
<path d="M728.918 101.091C728.918 103.498 727.962 105.806 726.26 107.508C724.558 109.21 722.249 110.166 719.842 110.166C717.436 110.166 715.127 109.21 713.425 107.508C711.723 105.806 710.767 103.498 710.767 101.091H728.918Z" stroke="#FBE5E7" stroke-width="1.73787" stroke-linecap="round" stroke-linejoin="round"/>
<path d="M728.918 92.0154C728.918 94.4223 727.962 96.7307 726.26 98.4327C724.558 100.135 722.249 101.091 719.842 101.091C717.436 101.091 715.127 100.135 713.425 98.4327C711.723 96.7307 710.767 94.4223 710.767 92.0154H728.918Z" stroke="#FBE5E7" stroke-width="1.73787" stroke-linecap="round" stroke-linejoin="round"/>
<path d="M728.918 82.9392C728.918 85.3461 727.962 87.6545 726.26 89.3565C724.558 91.0585 722.249 92.0146 719.842 92.0146C717.436 92.0146 715.127 91.0585 713.425 89.3565C711.723 87.6545 710.767 85.3461 710.767 82.9392H728.918Z" stroke="#FBE5E7" stroke-width="1.73787" stroke-linecap="round" stroke-linejoin="round"/>
</g>
<g clip-path="url(#clip9_1_10553)">
<path d="M834.09 111.035V96.5526C837.931 96.5522 841.614 95.0263 844.33 92.3104C847.046 89.5945 848.572 85.9111 848.572 82.0703H863.055C863.055 89.7522 860.003 97.1194 854.571 102.551C849.139 107.983 841.772 111.035 834.09 111.035Z" fill="#FCEEBC"/>
</g>
<g clip-path="url(#clip10_1_10553)">
<path d="M917.47 87.4775C919.877 87.4775 922.186 88.4337 923.888 90.1357C925.59 91.8377 926.546 94.146 926.546 96.553C926.546 98.96 925.59 101.268 923.888 102.97C922.186 104.672 919.877 105.628 917.47 105.628V87.4775Z" stroke="#FBE5E7" stroke-width="1.73787" stroke-linecap="round" stroke-linejoin="round"/>
<path d="M908.395 87.4775C910.802 87.4775 913.111 88.4337 914.813 90.1357C916.515 91.8377 917.471 94.146 917.471 96.553C917.471 98.96 916.515 101.268 914.813 102.97C913.111 104.672 910.802 105.628 908.395 105.628V87.4775Z" stroke="#FBE5E7" stroke-width="1.73787" stroke-linecap="round" stroke-linejoin="round"/>
<path d="M899.319 87.4775C901.726 87.4775 904.034 88.4337 905.736 90.1357C907.438 91.8377 908.395 94.146 908.395 96.553C908.395 98.96 907.438 101.268 905.736 102.97C904.034 104.672 901.726 105.628 899.319 105.628V87.4775Z" stroke="#FBE5E7" stroke-width="1.73787" stroke-linecap="round" stroke-linejoin="round"/>
</g>
<g clip-path="url(#clip11_1_10553)">
<path d="M1184.88 46.6649C1184.88 42.824 1183.36 39.1403 1180.64 36.4244C1177.93 33.7084 1174.24 32.1826 1170.4 32.1826C1166.56 32.1826 1162.88 33.7084 1160.16 36.4244C1157.45 39.1403 1155.92 42.824 1155.92 46.6649H1184.88Z" fill="#E1F4E4"/>
</g>
<g clip-path="url(#clip12_1_10553)">
<path d="M1120.52 111.035C1120.52 107.194 1118.99 103.51 1116.27 100.794C1113.56 98.0783 1109.87 96.5525 1106.03 96.5525C1102.19 96.5525 1098.51 98.0783 1095.79 100.794C1093.08 103.51 1091.55 107.194 1091.55 111.035H1120.52Z" fill="#E1F4E4"/>
</g>
<g clip-path="url(#clip13_1_10553)">
<path d="M1294.6 105.628C1292.19 105.628 1289.88 104.672 1288.18 102.97C1286.48 101.268 1285.52 98.9594 1285.52 96.5525C1285.52 94.1455 1286.48 91.8371 1288.18 90.1351C1289.88 88.4332 1292.19 87.477 1294.6 87.477V105.628Z" stroke="#FBE5E7" stroke-width="1.73787" stroke-linecap="round" stroke-linejoin="round"/>
<path d="M1303.67 105.628C1301.26 105.628 1298.96 104.672 1297.25 102.97C1295.55 101.268 1294.6 98.9594 1294.6 96.5525C1294.6 94.1455 1295.55 91.8371 1297.25 90.1351C1298.96 88.4332 1301.26 87.477 1303.67 87.477V105.628Z" stroke="#FBE5E7" stroke-width="1.73787" stroke-linecap="round" stroke-linejoin="round"/>
<path d="M1312.75 105.628C1310.34 105.628 1308.03 104.672 1306.33 102.97C1304.63 101.268 1303.67 98.9594 1303.67 96.5525C1303.67 94.1455 1304.63 91.8371 1306.33 90.1351C1308.03 88.4332 1310.34 87.477 1312.75 87.477V105.628Z" stroke="#FBE5E7" stroke-width="1.73787" stroke-linecap="round" stroke-linejoin="round"/>
</g>
<g clip-path="url(#clip14_1_10553)">
<path d="M1349.01 111.035V96.5526C1352.85 96.5522 1356.54 95.0263 1359.25 92.3104C1361.97 89.5945 1363.49 85.9111 1363.49 82.0703H1377.98C1377.98 89.7522 1374.92 97.1194 1369.49 102.551C1364.06 107.983 1356.69 111.035 1349.01 111.035Z" fill="#FCEEBC"/>
</g>
<g clip-path="url(#clip15_1_10553)">
<path d="M1284.65 175.395C1288.49 175.395 1292.18 173.869 1294.89 171.153C1297.61 168.438 1299.13 164.754 1299.13 160.913C1299.13 157.072 1297.61 153.388 1294.89 150.672C1292.18 147.956 1288.49 146.431 1284.65 146.431V175.395Z" fill="#E1F4E4"/>
</g>
<g clip-path="url(#clip16_1_10553)">
<path d="M219.395 239.764C219.395 235.923 217.869 232.24 215.153 229.524C212.438 226.808 208.754 225.282 204.913 225.282C201.072 225.282 197.388 226.808 194.672 229.524C191.956 232.24 190.431 235.923 190.431 239.764H219.395Z" fill="#E1F4E4"/>
</g>
<g clip-path="url(#clip17_1_10553)">
<path d="M126.071 299.664V298.045L130.624 302.503L135.591 297.637L140.556 302.503L145.52 297.637L150.485 302.503L155.035 298.042V299.664L150.485 304.125L145.52 299.259L140.556 304.125L135.591 299.259L130.624 304.125L126.071 299.664Z" fill="#F9EBDA"/>
<path d="M126.071 294.045V292.426L130.624 296.884L135.591 292.018L140.556 296.884L145.52 292.018L150.485 296.884L155.035 292.423V294.045L150.485 298.506L145.52 293.64L140.556 298.506L135.591 293.64L130.624 298.506L126.071 294.045Z" fill="#F9EBDA"/>
<path d="M126.071 282.807V281.188L130.624 285.646L135.591 280.78L140.556 285.646L145.52 280.78L150.485 285.646L155.035 281.185V282.807L150.485 287.268L145.52 282.402L140.556 287.268L135.591 282.402L130.624 287.268L126.071 282.807Z" fill="#F9EBDA"/>
<path d="M126.071 288.426V286.807L130.624 291.265L135.591 286.399L140.556 291.265L145.52 286.399L150.485 291.265L155.035 286.804V288.426L150.485 292.887L145.52 288.021L140.556 292.887L135.591 288.021L130.624 292.887L126.071 288.426Z" fill="#F9EBDA"/>
<path d="M126.071 277.188V275.569L130.624 280.026L135.591 275.16L140.556 280.026L145.52 275.16L150.485 280.026L155.035 275.566V277.188L150.485 281.648L145.52 276.782L140.556 281.648L135.591 276.782L130.624 281.648L126.071 277.188Z" fill="#F9EBDA"/>
</g>
<g clip-path="url(#clip18_1_10553)">
<path d="M209.45 280.566C211.857 280.566 214.165 281.523 215.867 283.225C217.569 284.927 218.525 287.235 218.525 289.642C218.525 292.049 217.569 294.357 215.867 296.059C214.165 297.761 211.857 298.717 209.45 298.717V280.566Z" stroke="#FBE5E7" stroke-width="1.73787" stroke-linecap="round" stroke-linejoin="round"/>
<path d="M200.375 280.566C202.782 280.566 205.09 281.523 206.792 283.225C208.494 284.927 209.45 287.235 209.45 289.642C209.45 292.049 208.494 294.357 206.792 296.059C205.09 297.761 202.782 298.717 200.375 298.717V280.566Z" stroke="#FBE5E7" stroke-width="1.73787" stroke-linecap="round" stroke-linejoin="round"/>
<path d="M191.299 280.566C193.706 280.566 196.014 281.523 197.716 283.225C199.418 284.927 200.374 287.235 200.374 289.642C200.374 292.049 199.418 294.357 197.716 296.059C196.014 297.761 193.706 298.717 191.299 298.717V280.566Z" stroke="#FBE5E7" stroke-width="1.73787" stroke-linecap="round" stroke-linejoin="round"/>
</g>
<g clip-path="url(#clip19_1_10553)">
<path d="M324.567 285.105C324.567 282.698 325.524 280.389 327.226 278.687C328.928 276.985 331.236 276.029 333.643 276.029C336.05 276.029 338.358 276.985 340.06 278.687C341.762 280.389 342.718 282.698 342.718 285.105H324.567Z" stroke="#FBE5E7" stroke-width="1.73787" stroke-linecap="round" stroke-linejoin="round"/>
<path d="M324.567 294.181C324.567 291.774 325.524 289.466 327.226 287.764C328.928 286.062 331.236 285.105 333.643 285.105C336.05 285.105 338.358 286.062 340.06 287.764C341.762 289.466 342.718 291.774 342.718 294.181H324.567Z" stroke="#FBE5E7" stroke-width="1.73787" stroke-linecap="round" stroke-linejoin="round"/>
<path d="M324.567 303.255C324.567 300.848 325.524 298.54 327.226 296.838C328.928 295.136 331.236 294.18 333.643 294.18C336.05 294.18 338.358 295.136 340.06 296.838C341.762 298.54 342.718 300.848 342.718 303.255H324.567Z" stroke="#FBE5E7" stroke-width="1.73787" stroke-linecap="round" stroke-linejoin="round"/>
</g>
<g clip-path="url(#clip20_1_10553)">
<path d="M541.225 368.494C541.225 364.653 539.7 360.969 536.984 358.253C534.268 355.537 530.584 354.011 526.743 354.011C522.902 354.011 519.218 355.537 516.503 358.253C513.787 360.969 512.261 364.653 512.261 368.494H541.225Z" fill="#E1F4E4"/>
</g>
<g clip-path="url(#clip21_1_10553)">
<path d="M709.821 210.8H711.44L706.982 215.353L711.848 220.321L706.982 225.285L711.848 230.25L706.982 235.214L711.443 239.765H709.821L705.36 235.214L710.226 230.25L705.36 225.285L710.226 220.321L705.36 215.353L709.821 210.8Z" fill="#F9EBDA"/>
<path d="M715.44 210.8H717.059L712.602 215.353L717.468 220.321L712.602 225.285L717.468 230.25L712.602 235.214L717.062 239.765H715.44L710.979 235.214L715.846 230.25L710.979 225.285L715.846 220.321L710.979 215.353L715.44 210.8Z" fill="#F9EBDA"/>
<path d="M726.678 210.8H728.297L723.84 215.353L728.706 220.321L723.84 225.285L728.706 230.25L723.84 235.214L728.3 239.765H726.678L722.218 235.214L727.084 230.25L722.218 225.285L727.084 220.321L722.218 215.353L726.678 210.8Z" fill="#F9EBDA"/>
<path d="M721.059 210.8H722.678L718.221 215.353L723.087 220.321L718.221 225.285L723.087 230.25L718.221 235.214L722.681 239.765H721.059L716.599 235.214L721.465 230.25L716.599 225.285L721.465 220.321L716.599 215.353L721.059 210.8Z" fill="#F9EBDA"/>
<path d="M732.297 210.8H733.917L729.459 215.353L734.325 220.321L729.459 225.285L734.325 230.25L729.459 235.214L733.919 239.765H732.297L727.837 235.214L732.703 230.25L727.837 225.285L732.703 220.321L727.837 215.353L732.297 210.8Z" fill="#F9EBDA"/>
</g>
<g clip-path="url(#clip22_1_10553)">
<path d="M798.685 210.8C794.844 210.8 791.161 212.326 788.445 215.042C785.729 217.758 784.203 221.441 784.203 225.282C784.203 229.123 785.729 232.807 788.445 235.523C791.161 238.239 794.844 239.765 798.685 239.765V210.8Z" fill="#E1F4E4"/>
</g>
<g clip-path="url(#clip23_1_10553)">
<path d="M660.01 280.566C662.417 280.566 664.726 281.523 666.428 283.225C668.13 284.927 669.086 287.235 669.086 289.642C669.086 292.049 668.13 294.357 666.428 296.059C664.726 297.761 662.417 298.717 660.01 298.717V280.566Z" stroke="#FBE5E7" stroke-width="1.73787" stroke-linecap="round" stroke-linejoin="round"/>
<path d="M650.935 280.566C653.342 280.566 655.651 281.523 657.353 283.225C659.055 284.927 660.011 287.235 660.011 289.642C660.011 292.049 659.055 294.357 657.353 296.059C655.651 297.761 653.342 298.717 650.935 298.717V280.566Z" stroke="#FBE5E7" stroke-width="1.73787" stroke-linecap="round" stroke-linejoin="round"/>
<path d="M641.859 280.566C644.266 280.566 646.574 281.523 648.276 283.225C649.978 284.927 650.935 287.235 650.935 289.642C650.935 292.049 649.978 294.357 648.276 296.059C646.574 297.761 644.266 298.717 641.859 298.717V280.566Z" stroke="#FBE5E7" stroke-width="1.73787" stroke-linecap="round" stroke-linejoin="round"/>
</g>
<g clip-path="url(#clip24_1_10553)">
<path d="M729.865 304.125H728.246L732.703 299.571L727.837 294.604L732.703 289.64L727.837 284.675L732.703 279.71L728.243 275.16H729.865L734.325 279.71L729.459 284.675L734.325 289.64L729.459 294.604L734.325 299.571L729.865 304.125Z" fill="#F9EBDA"/>
<path d="M724.246 304.125H722.626L727.084 299.571L722.218 294.604L727.084 289.64L722.218 284.675L727.084 279.71L722.623 275.16H724.246L728.706 279.71L723.84 284.675L728.706 289.64L723.84 294.604L728.706 299.571L724.246 304.125Z" fill="#F9EBDA"/>
<path d="M713.007 304.125H711.388L715.846 299.571L710.98 294.604L715.846 289.64L710.98 284.675L715.846 279.71L711.385 275.16H713.007L717.468 279.71L712.602 284.675L717.468 289.64L712.602 294.604L717.468 299.571L713.007 304.125Z" fill="#F9EBDA"/>
<path d="M718.626 304.125H717.007L721.465 299.571L716.599 294.604L721.465 289.64L716.599 284.675L721.465 279.71L717.004 275.16H718.626L723.087 279.71L718.221 284.675L723.087 289.64L718.221 294.604L723.087 299.571L718.626 304.125Z" fill="#F9EBDA"/>
<path d="M707.388 304.125H705.769L710.227 299.571L705.361 294.604L710.227 289.64L705.361 284.675L710.227 279.71L705.766 275.16H707.388L711.849 279.71L706.983 284.675L711.849 289.64L706.983 294.604L711.849 299.571L707.388 304.125Z" fill="#F9EBDA"/>
</g>
<g clip-path="url(#clip25_1_10553)">
<path d="M863.054 275.16V289.643C859.214 289.643 855.53 291.169 852.814 293.885C850.098 296.601 848.573 300.284 848.572 304.125H834.09C834.09 296.443 837.141 289.076 842.573 283.644C848.005 278.212 855.373 275.16 863.054 275.16Z" fill="#FCEEBC"/>
</g>
<g clip-path="url(#clip26_1_10553)">
<path d="M927.415 275.16C923.574 275.16 919.89 276.686 917.174 279.402C914.458 282.118 912.933 285.802 912.933 289.643C912.933 293.484 914.458 297.167 917.174 299.883C919.89 302.599 923.574 304.125 927.415 304.125V275.16Z" fill="#E1F4E4"/>
</g>
<g clip-path="url(#clip27_1_10553)">
<path d="M962.821 275.16H977.303C977.303 279.001 978.829 282.685 981.545 285.401C984.261 288.116 987.944 289.642 991.785 289.643V304.125C984.103 304.125 976.736 301.073 971.304 295.641C965.872 290.21 962.821 282.842 962.821 275.16Z" fill="#FCEEBC"/>
</g>
<g clip-path="url(#clip28_1_10553)">
<path d="M1155.92 239.764C1159.76 239.764 1163.45 238.239 1166.16 235.523C1168.88 232.807 1170.4 229.123 1170.4 225.282C1170.4 221.441 1168.88 217.758 1166.16 215.042C1163.45 212.326 1159.76 210.8 1155.92 210.8V239.764Z" fill="#E1F4E4"/>
</g>
<g clip-path="url(#clip29_1_10553)">
<path d="M1037.14 298.719C1034.73 298.719 1032.42 297.763 1030.72 296.061C1029.02 294.359 1028.06 292.05 1028.06 289.643C1028.06 287.236 1029.02 284.928 1030.72 283.226C1032.42 281.524 1034.73 280.568 1037.14 280.568V298.719Z" stroke="#FBE5E7" stroke-width="1.73787" stroke-linecap="round" stroke-linejoin="round"/>
<path d="M1046.21 298.719C1043.8 298.719 1041.49 297.763 1039.79 296.061C1038.09 294.359 1037.13 292.05 1037.13 289.643C1037.13 287.236 1038.09 284.928 1039.79 283.226C1041.49 281.524 1043.8 280.568 1046.21 280.568V298.719Z" stroke="#FBE5E7" stroke-width="1.73787" stroke-linecap="round" stroke-linejoin="round"/>
<path d="M1055.29 298.719C1052.88 298.719 1050.57 297.763 1048.87 296.061C1047.17 294.359 1046.21 292.05 1046.21 289.643C1046.21 287.236 1047.17 284.928 1048.87 283.226C1050.57 281.524 1052.88 280.568 1055.29 280.568V298.719Z" stroke="#FBE5E7" stroke-width="1.73787" stroke-linecap="round" stroke-linejoin="round"/>
</g>
<g clip-path="url(#clip30_1_10553)">
<path d="M1249.25 275.16V289.643C1245.4 289.643 1241.72 291.169 1239.01 293.885C1236.29 296.601 1234.76 300.284 1234.76 304.125H1220.28C1220.28 296.443 1223.33 289.076 1228.76 283.644C1234.2 278.212 1241.56 275.16 1249.25 275.16Z" fill="#FCEEBC"/>
</g>
<g clip-path="url(#clip31_1_10553)">
<path d="M1377.98 304.125H1363.49C1363.49 300.284 1361.97 296.601 1359.25 293.885C1356.54 291.169 1352.85 289.643 1349.01 289.642V275.16C1356.69 275.16 1364.06 278.212 1369.49 283.644C1374.92 289.076 1377.98 296.443 1377.98 304.125Z" fill="#FCEEBC"/>
</g>
</g>
<defs>
<clipPath id="clip0_1_10553">
<rect width="28.9646" height="28.9646" fill="white" transform="translate(155.035 82.0703) rotate(90)"/>
</clipPath>
<clipPath id="clip1_1_10553">
<rect width="28.9646" height="28.9646" fill="white" transform="translate(219.395 111.035) rotate(180)"/>
</clipPath>
<clipPath id="clip2_1_10553">
<rect width="28.9646" height="28.9646" fill="white" transform="translate(383.53 17.7002)"/>
</clipPath>
<clipPath id="clip3_1_10553">
<rect width="28.9646" height="28.9646" fill="white" transform="translate(576.63 46.665) rotate(-90)"/>
</clipPath>
<clipPath id="clip4_1_10553">
<rect width="28.9646" height="28.9646" fill="white" transform="translate(576.63 111.035) rotate(-90)"/>
</clipPath>
<clipPath id="clip5_1_10553">
<rect width="28.9646" height="28.9646" fill="white" transform="translate(541.225 146.431) rotate(90)"/>
</clipPath>
<clipPath id="clip6_1_10553">
<rect width="28.9646" height="28.9646" fill="white" transform="translate(705.36 17.7002)"/>
</clipPath>
<clipPath id="clip7_1_10553">
<rect width="28.9646" height="28.9646" fill="white" transform="translate(669.955 82.0703) rotate(90)"/>
</clipPath>
<clipPath id="clip8_1_10553">
<rect width="28.9646" height="28.9646" fill="white" transform="translate(734.325 111.035) rotate(180)"/>
</clipPath>
<clipPath id="clip9_1_10553">
<rect width="28.9646" height="28.9646" fill="white" transform="translate(863.055 82.0703) rotate(90)"/>
</clipPath>
<clipPath id="clip10_1_10553">
<rect width="28.9646" height="28.9646" fill="white" transform="translate(927.415 82.0703) rotate(90)"/>
</clipPath>
<clipPath id="clip11_1_10553">
<rect width="28.9646" height="28.9646" fill="white" transform="translate(1155.92 17.7002)"/>
</clipPath>
<clipPath id="clip12_1_10553">
<rect width="28.9646" height="28.9646" fill="white" transform="translate(1091.55 82.0703)"/>
</clipPath>
<clipPath id="clip13_1_10553">
<rect width="28.9646" height="28.9646" fill="white" transform="translate(1284.65 111.035) rotate(-90)"/>
</clipPath>
<clipPath id="clip14_1_10553">
<rect width="28.9646" height="28.9646" fill="white" transform="translate(1377.98 82.0703) rotate(90)"/>
</clipPath>
<clipPath id="clip15_1_10553">
<rect width="28.9646" height="28.9646" fill="white" transform="translate(1313.62 146.431) rotate(90)"/>
</clipPath>
<clipPath id="clip16_1_10553">
<rect width="28.9646" height="28.9646" fill="white" transform="translate(190.431 210.8)"/>
</clipPath>
<clipPath id="clip17_1_10553">
<rect width="28.9646" height="28.9646" fill="white" transform="translate(155.035 304.125) rotate(180)"/>
</clipPath>
<clipPath id="clip18_1_10553">
<rect width="28.9646" height="28.9646" fill="white" transform="translate(219.395 275.16) rotate(90)"/>
</clipPath>
<clipPath id="clip19_1_10553">
<rect width="28.9646" height="28.9646" fill="white" transform="translate(319.16 275.16)"/>
</clipPath>
<clipPath id="clip20_1_10553">
<rect width="28.9646" height="28.9646" fill="white" transform="translate(512.261 339.529)"/>
</clipPath>
<clipPath id="clip21_1_10553">
<rect width="28.9646" height="28.9646" fill="white" transform="translate(705.36 239.765) rotate(-90)"/>
</clipPath>
<clipPath id="clip22_1_10553">
<rect width="28.9646" height="28.9646" fill="white" transform="translate(769.721 239.765) rotate(-90)"/>
</clipPath>
<clipPath id="clip23_1_10553">
<rect width="28.9646" height="28.9646" fill="white" transform="translate(669.955 275.16) rotate(90)"/>
</clipPath>
<clipPath id="clip24_1_10553">
<rect width="28.9646" height="28.9646" fill="white" transform="translate(734.325 275.16) rotate(90)"/>
</clipPath>
<clipPath id="clip25_1_10553">
<rect width="28.9646" height="28.9646" fill="white" transform="translate(834.09 304.125) rotate(-90)"/>
</clipPath>
<clipPath id="clip26_1_10553">
<rect width="28.9646" height="28.9646" fill="white" transform="translate(898.45 304.125) rotate(-90)"/>
</clipPath>
<clipPath id="clip27_1_10553">
<rect width="28.9646" height="28.9646" fill="white" transform="translate(991.785 304.125) rotate(180)"/>
</clipPath>
<clipPath id="clip28_1_10553">
<rect width="28.9646" height="28.9646" fill="white" transform="translate(1184.89 210.8) rotate(90)"/>
</clipPath>
<clipPath id="clip29_1_10553">
<rect width="28.9646" height="28.9646" fill="white" transform="translate(1027.19 304.125) rotate(-90)"/>
</clipPath>
<clipPath id="clip30_1_10553">
<rect width="28.9646" height="28.9646" fill="white" transform="translate(1220.28 304.125) rotate(-90)"/>
</clipPath>
<clipPath id="clip31_1_10553">
<rect width="28.9646" height="28.9646" fill="white" transform="translate(1349.01 275.16)"/>
</clipPath>
</defs>
</svg>
