<svg width="1440" height="400" viewBox="0 0 1440 400" fill="none" xmlns="http://www.w3.org/2000/svg">
<mask id="mask0_1_7022" style="mask-type:alpha" maskUnits="userSpaceOnUse" x="0" y="0" width="1440" height="400">
<rect width="1440" height="400" fill="#F5F8E6"/>
</mask>
<g mask="url(#mask0_1_7022)">
<g clip-path="url(#clip0_1_7022)">
<path d="M204.915 32.1821L198.107 25.374L191.299 32.1821L198.107 38.9902L204.915 32.1821Z" stroke="#FBE5E7" stroke-width="1.73787" stroke-linecap="round" stroke-linejoin="round"/>
<path d="M218.526 32.1831L211.718 25.375L204.91 32.1831L211.718 38.9912L218.526 32.1831Z" stroke="#FBE5E7" stroke-width="1.73787" stroke-linecap="round" stroke-linejoin="round"/>
</g>
<g clip-path="url(#clip1_1_7022)">
<path d="M140.552 82.0706C143.417 82.0706 146.217 82.92 148.598 84.5113C150.98 86.1026 152.836 88.3644 153.932 91.0107C155.028 93.657 155.315 96.5689 154.756 99.3782C154.198 102.188 152.818 104.768 150.793 106.793C148.768 108.819 146.187 110.198 143.378 110.757C140.568 111.316 137.657 111.029 135.01 109.933C132.364 108.837 130.102 106.98 128.511 104.599C126.919 102.217 126.07 99.4172 126.07 96.5529V82.0706H140.552Z" fill="#FCEEBC"/>
</g>
<g clip-path="url(#clip2_1_7022)">
<path d="M76.1825 146.431C73.3182 146.431 70.5182 147.28 68.1366 148.871C65.755 150.463 63.8987 152.725 62.8026 155.371C61.7065 158.017 61.4197 160.929 61.9785 163.738C62.5373 166.548 63.9166 169.128 65.942 171.153C67.9673 173.179 70.5478 174.558 73.3571 175.117C76.1664 175.676 79.0783 175.389 81.7246 174.293C84.3709 173.197 86.6327 171.34 88.2241 168.959C89.8154 166.577 90.6648 163.777 90.6648 160.913C90.6648 157.072 89.139 153.388 86.423 150.672C83.7071 147.956 80.0234 146.431 76.1825 146.431V146.431ZM76.1825 165.446C75.2859 165.446 74.4095 165.18 73.664 164.682C72.9186 164.184 72.3375 163.476 71.9944 162.648C71.6512 161.82 71.5614 160.908 71.7363 160.029C71.9112 159.149 72.3429 158.342 72.9768 157.708C73.6107 157.074 74.4184 156.642 75.2978 156.467C76.1771 156.292 77.0885 156.382 77.9168 156.725C78.7451 157.068 79.4531 157.649 79.9512 158.395C80.4493 159.14 80.7152 160.016 80.7152 160.913C80.7152 162.115 80.2376 163.268 79.3876 164.118C78.5376 164.968 77.3847 165.446 76.1825 165.446Z" fill="#E1F4E4"/>
</g>
<g clip-path="url(#clip3_1_7022)">
<path d="M155.035 160.913C155.035 157.072 153.509 153.388 150.793 150.672C148.077 147.956 144.394 146.431 140.553 146.431C136.712 146.431 133.028 147.956 130.312 150.672C127.596 153.388 126.07 157.072 126.07 160.913H155.035Z" fill="#F9EBDA"/>
<path d="M155.035 175.395C155.035 171.554 153.509 167.871 150.793 165.155C148.077 162.439 144.394 160.913 140.553 160.913C136.712 160.913 133.028 162.439 130.312 165.155C127.596 167.871 126.07 171.554 126.07 175.395H155.035Z" fill="#F9EBDA"/>
</g>
<g clip-path="url(#clip4_1_7022)">
<path d="M269.283 175.395C266.418 175.395 263.618 174.546 261.237 172.955C258.855 171.363 256.999 169.101 255.903 166.455C254.807 163.809 254.52 160.897 255.079 158.088C255.637 155.278 257.017 152.698 259.042 150.672C261.067 148.647 263.648 147.268 266.457 146.709C269.267 146.15 272.178 146.437 274.825 147.533C277.471 148.629 279.733 150.485 281.324 152.867C282.915 155.249 283.765 158.049 283.765 160.913V175.395H269.283Z" fill="#FCEEBC"/>
</g>
<g clip-path="url(#clip5_1_7022)">
<path d="M526.74 32.1831L533.548 38.9912L540.356 32.1831L533.548 25.375L526.74 32.1831Z" stroke="#FBE5E7" stroke-width="1.73787" stroke-linecap="round" stroke-linejoin="round"/>
<path d="M513.129 32.1821L519.937 38.9902L526.745 32.1821L519.937 25.374L513.129 32.1821Z" stroke="#FBE5E7" stroke-width="1.73787" stroke-linecap="round" stroke-linejoin="round"/>
</g>
<g clip-path="url(#clip6_1_7022)">
<path d="M591.115 32.1821L584.307 25.374L577.499 32.1821L584.307 38.9902L591.115 32.1821Z" stroke="#FBE5E7" stroke-width="1.73787" stroke-linecap="round" stroke-linejoin="round"/>
<path d="M604.726 32.1831L597.918 25.375L591.11 32.1831L597.918 38.9912L604.726 32.1831Z" stroke="#FBE5E7" stroke-width="1.73787" stroke-linecap="round" stroke-linejoin="round"/>
</g>
<g clip-path="url(#clip7_1_7022)">
<path d="M447.89 160.912C447.89 163.777 448.74 166.577 450.331 168.958C451.922 171.34 454.184 173.196 456.83 174.292C459.477 175.388 462.388 175.675 465.198 175.116C468.007 174.557 470.588 173.178 472.613 171.153C474.638 169.127 476.018 166.547 476.576 163.738C477.135 160.928 476.848 158.016 475.752 155.37C474.656 152.724 472.8 150.462 470.418 148.871C468.037 147.279 465.237 146.43 462.372 146.43C458.531 146.43 454.848 147.956 452.132 150.672C449.416 153.388 447.89 157.071 447.89 160.912V160.912ZM466.905 160.912C466.905 161.809 466.64 162.685 466.142 163.431C465.644 164.176 464.936 164.757 464.107 165.1C463.279 165.443 462.368 165.533 461.488 165.358C460.609 165.184 459.801 164.752 459.167 164.118C458.533 163.484 458.102 162.676 457.927 161.797C457.752 160.918 457.841 160.006 458.184 159.178C458.528 158.35 459.109 157.642 459.854 157.144C460.599 156.645 461.476 156.38 462.372 156.38C463.575 156.38 464.728 156.857 465.578 157.707C466.428 158.557 466.905 159.71 466.905 160.912Z" fill="#E1F4E4"/>
</g>
<g clip-path="url(#clip8_1_7022)">
<path d="M512.26 160.912C512.26 164.753 513.786 168.437 516.502 171.153C519.218 173.869 522.901 175.395 526.742 175.395C530.583 175.395 534.267 173.869 536.983 171.153C539.699 168.437 541.225 164.753 541.225 160.912H512.26Z" fill="#F9EBDA"/>
<path d="M512.26 146.43C512.26 150.271 513.786 153.955 516.502 156.671C519.218 159.387 522.901 160.912 526.742 160.912C530.583 160.912 534.267 159.387 536.983 156.671C539.699 153.955 541.225 150.271 541.225 146.43H512.26Z" fill="#F9EBDA"/>
</g>
<g clip-path="url(#clip9_1_7022)">
<path d="M719.843 46.6648C716.978 46.6648 714.178 45.8154 711.797 44.2241C709.415 42.6327 707.559 40.3709 706.463 37.7246C705.367 35.0783 705.08 32.1664 705.639 29.3571C706.197 26.5478 707.577 23.9673 709.602 21.942C711.628 19.9166 714.208 18.5373 717.017 17.9785C719.827 17.4197 722.738 17.7065 725.385 18.8026C728.031 19.8987 730.293 21.755 731.884 24.1366C733.476 26.5182 734.325 29.3182 734.325 32.1825V46.6648H719.843Z" fill="#FCEEBC"/>
</g>
<g clip-path="url(#clip10_1_7022)">
<path d="M719.843 82.0703C716.978 82.0703 714.178 82.9197 711.797 84.511C709.415 86.1024 707.559 88.3642 706.463 91.0105C705.367 93.6568 705.08 96.5687 705.639 99.378C706.197 102.187 707.577 104.768 709.602 106.793C711.628 108.819 714.208 110.198 717.017 110.757C719.827 111.315 722.738 111.029 725.385 109.932C728.031 108.836 730.293 106.98 731.884 104.599C733.476 102.217 734.325 99.4169 734.325 96.5526C734.325 92.7117 732.799 89.028 730.083 86.3121C727.367 83.5961 723.684 82.0703 719.843 82.0703V82.0703ZM719.843 101.086C718.946 101.086 718.07 100.82 717.324 100.322C716.579 99.8237 715.998 99.1158 715.655 98.2875C715.311 97.4592 715.222 96.5478 715.396 95.6684C715.571 94.7891 716.003 93.9814 716.637 93.3474C717.271 92.7134 718.079 92.2817 718.958 92.1068C719.837 91.9318 720.749 92.0216 721.577 92.3647C722.405 92.7077 723.113 93.2887 723.611 94.0342C724.109 94.7796 724.375 95.6561 724.375 96.5526C724.375 97.7548 723.898 98.9077 723.048 99.7578C722.198 100.608 721.045 101.085 719.843 101.086Z" fill="#E1F4E4"/>
</g>
<g clip-path="url(#clip11_1_7022)">
<path d="M784.203 82.0703C781.338 82.0703 778.538 82.9197 776.157 84.511C773.775 86.1024 771.919 88.3642 770.823 91.0105C769.726 93.6568 769.44 96.5687 769.998 99.378C770.557 102.187 771.937 104.768 773.962 106.793C775.987 108.819 778.568 110.198 781.377 110.757C784.186 111.315 787.098 111.029 789.745 109.932C792.391 108.836 794.653 106.98 796.244 104.599C797.835 102.217 798.685 99.4169 798.685 96.5526C798.685 92.7117 797.159 89.028 794.443 86.3121C791.727 83.5961 788.043 82.0703 784.203 82.0703V82.0703ZM784.203 101.086C783.306 101.086 782.43 100.82 781.684 100.322C780.939 99.8237 780.358 99.1158 780.014 98.2875C779.671 97.4592 779.581 96.5478 779.756 95.6684C779.931 94.7891 780.363 93.9814 780.997 93.3474C781.631 92.7134 782.438 92.2817 783.318 92.1068C784.197 91.9318 785.109 92.0216 785.937 92.3647C786.765 92.7077 787.473 93.2887 787.971 94.0342C788.469 94.7796 788.735 95.6561 788.735 96.5526C788.735 97.7548 788.258 98.9077 787.408 99.7578C786.558 100.608 785.405 101.085 784.203 101.086Z" fill="#E1F4E4"/>
</g>
<g clip-path="url(#clip12_1_7022)">
<path d="M669.955 160.913C669.955 158.049 669.105 155.249 667.514 152.867C665.923 150.485 663.661 148.629 661.014 147.533C658.368 146.437 655.456 146.15 652.647 146.709C649.838 147.268 647.257 148.647 645.232 150.672C643.206 152.698 641.827 155.278 641.268 158.088C640.709 160.897 640.996 163.809 642.092 166.455C643.189 169.101 645.045 171.363 647.426 172.955C649.808 174.546 652.608 175.395 655.472 175.395C659.313 175.395 662.997 173.869 665.713 171.153C668.429 168.438 669.955 164.754 669.955 160.913V160.913ZM650.939 160.913C650.939 160.016 651.205 159.14 651.703 158.395C652.201 157.649 652.909 157.068 653.737 156.725C654.566 156.382 655.477 156.292 656.356 156.467C657.236 156.642 658.044 157.073 658.677 157.707C659.311 158.341 659.743 159.149 659.918 160.028C660.093 160.908 660.003 161.819 659.66 162.647C659.317 163.476 658.736 164.184 657.991 164.682C657.245 165.18 656.369 165.446 655.472 165.446C654.27 165.446 653.117 164.968 652.267 164.118C651.417 163.268 650.939 162.115 650.939 160.913Z" fill="#E1F4E4"/>
</g>
<g clip-path="url(#clip13_1_7022)">
<path d="M705.36 160.912C705.36 164.753 706.886 168.437 709.602 171.153C712.318 173.869 716.001 175.395 719.842 175.395C723.683 175.395 727.367 173.869 730.083 171.153C732.799 168.437 734.325 164.753 734.325 160.912H705.36Z" fill="#F9EBDA"/>
<path d="M705.36 146.43C705.36 150.271 706.886 153.955 709.602 156.671C712.318 159.387 716.001 160.912 719.842 160.912C723.683 160.912 727.367 159.387 730.083 156.671C732.799 153.955 734.325 150.271 734.325 146.43H705.36Z" fill="#F9EBDA"/>
</g>
<g clip-path="url(#clip14_1_7022)">
<path d="M863.055 160.913C863.055 158.049 862.205 155.249 860.614 152.867C859.023 150.485 856.761 148.629 854.115 147.533C851.468 146.437 848.556 146.15 845.747 146.709C842.938 147.268 840.357 148.647 838.332 150.672C836.306 152.698 834.927 155.278 834.368 158.088C833.81 160.897 834.096 163.809 835.193 166.455C836.289 169.101 838.145 171.363 840.526 172.955C842.908 174.546 845.708 175.395 848.572 175.395C852.413 175.395 856.097 173.869 858.813 171.153C861.529 168.438 863.055 164.754 863.055 160.913V160.913ZM844.039 160.913C844.039 160.016 844.305 159.14 844.803 158.395C845.301 157.649 846.009 157.068 846.838 156.725C847.666 156.382 848.577 156.292 849.457 156.467C850.336 156.642 851.144 157.073 851.778 157.707C852.412 158.341 852.843 159.149 853.018 160.028C853.193 160.908 853.103 161.819 852.76 162.647C852.417 163.476 851.836 164.184 851.091 164.682C850.345 165.18 849.469 165.446 848.572 165.446C847.37 165.446 846.217 164.968 845.367 164.118C844.517 163.268 844.04 162.115 844.039 160.913Z" fill="#E1F4E4"/>
</g>
<g clip-path="url(#clip15_1_7022)">
<path d="M1091.55 96.5529C1091.55 99.4172 1092.4 102.217 1093.99 104.599C1095.58 106.98 1097.84 108.837 1100.49 109.933C1103.14 111.029 1106.05 111.316 1108.86 110.757C1111.67 110.198 1114.25 108.819 1116.27 106.793C1118.3 104.768 1119.68 102.188 1120.24 99.3782C1120.8 96.5689 1120.51 93.657 1119.41 91.0107C1118.32 88.3644 1116.46 86.1026 1114.08 84.5113C1111.7 82.92 1108.9 82.0706 1106.03 82.0706C1102.19 82.0706 1098.51 83.5964 1095.79 86.3123C1093.08 89.0283 1091.55 92.7119 1091.55 96.5529V96.5529ZM1110.57 96.5529C1110.57 97.4494 1110.3 98.3258 1109.8 99.0713C1109.3 99.8168 1108.6 100.398 1107.77 100.741C1106.94 101.084 1106.03 101.174 1105.15 100.999C1104.27 100.824 1103.46 100.392 1102.83 99.7585C1102.19 99.1246 1101.76 98.3169 1101.59 97.4376C1101.41 96.5583 1101.5 95.6468 1101.84 94.8185C1102.19 93.9902 1102.77 93.2823 1103.51 92.7842C1104.26 92.2861 1105.14 92.0202 1106.03 92.0202C1107.23 92.0202 1108.39 92.4977 1109.24 93.3478C1110.09 94.1978 1110.57 95.3507 1110.57 96.5529Z" fill="#E1F4E4"/>
</g>
<g clip-path="url(#clip16_1_7022)">
<path d="M1155.92 96.5529C1155.92 99.4172 1156.77 102.217 1158.36 104.599C1159.95 106.98 1162.21 108.837 1164.86 109.933C1167.51 111.029 1170.42 111.316 1173.23 110.757C1176.04 110.198 1178.62 108.819 1180.64 106.793C1182.67 104.768 1184.05 102.188 1184.61 99.3782C1185.17 96.5689 1184.88 93.657 1183.78 91.0107C1182.69 88.3644 1180.83 86.1026 1178.45 84.5113C1176.07 82.92 1173.27 82.0706 1170.4 82.0706C1166.56 82.0706 1162.88 83.5964 1160.16 86.3123C1157.45 89.0283 1155.92 92.7119 1155.92 96.5529V96.5529ZM1174.94 96.5529C1174.94 97.4494 1174.67 98.3258 1174.17 99.0713C1173.67 99.8168 1172.97 100.398 1172.14 100.741C1171.31 101.084 1170.4 101.174 1169.52 100.999C1168.64 100.824 1167.83 100.392 1167.2 99.7585C1166.56 99.1246 1166.13 98.3169 1165.96 97.4376C1165.78 96.5583 1165.87 95.6468 1166.21 94.8185C1166.56 93.9902 1167.14 93.2823 1167.88 92.7842C1168.63 92.2861 1169.51 92.0202 1170.4 92.0202C1171.6 92.0202 1172.76 92.4977 1173.61 93.3478C1174.46 94.1978 1174.94 95.3507 1174.94 96.5529Z" fill="#E1F4E4"/>
</g>
<g clip-path="url(#clip17_1_7022)">
<path d="M1377.97 96.5526C1377.97 92.7117 1376.45 89.028 1373.73 86.3121C1371.02 83.5961 1367.33 82.0703 1363.49 82.0703C1359.65 82.0703 1355.97 83.5961 1353.25 86.3121C1350.54 89.028 1349.01 92.7117 1349.01 96.5526H1377.97Z" fill="#F9EBDA"/>
<path d="M1377.97 111.035C1377.97 107.194 1376.45 103.51 1373.73 100.794C1371.02 98.0783 1367.33 96.5525 1363.49 96.5525C1359.65 96.5525 1355.97 98.0783 1353.25 100.794C1350.54 103.51 1349.01 107.194 1349.01 111.035H1377.97Z" fill="#F9EBDA"/>
</g>
<g clip-path="url(#clip18_1_7022)">
<path d="M1249.25 160.913C1249.25 158.049 1248.4 155.249 1246.8 152.867C1245.21 150.485 1242.95 148.629 1240.3 147.533C1237.66 146.437 1234.75 146.15 1231.94 146.709C1229.13 147.268 1226.55 148.647 1224.52 150.672C1222.5 152.698 1221.12 155.278 1220.56 158.088C1220 160.897 1220.29 163.809 1221.38 166.455C1222.48 169.101 1224.34 171.363 1226.72 172.955C1229.1 174.546 1231.9 175.395 1234.76 175.395C1238.6 175.395 1242.29 173.869 1245 171.153C1247.72 168.438 1249.25 164.754 1249.25 160.913V160.913ZM1230.23 160.913C1230.23 160.016 1230.5 159.14 1230.99 158.395C1231.49 157.649 1232.2 157.068 1233.03 156.725C1233.86 156.382 1234.77 156.292 1235.65 156.467C1236.53 156.642 1237.33 157.073 1237.97 157.707C1238.6 158.341 1239.03 159.149 1239.21 160.028C1239.38 160.908 1239.29 161.819 1238.95 162.647C1238.61 163.476 1238.03 164.184 1237.28 164.682C1236.54 165.18 1235.66 165.446 1234.76 165.446C1233.56 165.446 1232.41 164.968 1231.56 164.118C1230.71 163.268 1230.23 162.115 1230.23 160.913Z" fill="#E1F4E4"/>
</g>
<g clip-path="url(#clip19_1_7022)">
<path d="M126.07 289.643C126.07 292.507 126.92 295.307 128.511 297.689C130.102 300.07 132.364 301.926 135.01 303.023C137.657 304.119 140.569 304.406 143.378 303.847C146.187 303.288 148.768 301.909 150.793 299.883C152.819 297.858 154.198 295.277 154.757 292.468C155.315 289.659 155.029 286.747 153.932 284.101C152.836 281.454 150.98 279.192 148.599 277.601C146.217 276.01 143.417 275.16 140.553 275.16C136.712 275.16 133.028 276.686 130.312 279.402C127.596 282.118 126.07 285.802 126.07 289.643V289.643ZM145.086 289.643C145.086 290.539 144.82 291.416 144.322 292.161C143.824 292.907 143.116 293.488 142.287 293.831C141.459 294.174 140.548 294.264 139.668 294.089C138.789 293.914 137.981 293.482 137.347 292.848C136.713 292.214 136.282 291.407 136.107 290.527C135.932 289.648 136.022 288.737 136.365 287.908C136.708 287.08 137.289 286.372 138.034 285.874C138.78 285.376 139.656 285.11 140.553 285.11C141.755 285.11 142.908 285.588 143.758 286.438C144.608 287.288 145.085 288.441 145.086 289.643Z" fill="#E1F4E4"/>
</g>
<g clip-path="url(#clip20_1_7022)">
<path d="M76.1825 339.53C72.3415 339.53 68.6579 341.056 65.942 343.772C63.226 346.488 61.7002 350.171 61.7002 354.012C61.7002 357.853 63.226 361.537 65.942 364.253C68.6579 366.969 72.3415 368.494 76.1825 368.494V339.53Z" fill="#F9EBDA"/>
<path d="M90.6649 339.53C86.824 339.53 83.1403 341.056 80.4244 343.772C77.7084 346.488 76.1826 350.171 76.1826 354.012C76.1826 357.853 77.7084 361.537 80.4244 364.253C83.1403 366.969 86.824 368.494 90.6649 368.494V339.53Z" fill="#F9EBDA"/>
</g>
<g clip-path="url(#clip21_1_7022)">
<path d="M204.915 354.011L198.107 347.203L191.299 354.011L198.107 360.819L204.915 354.011Z" stroke="#FBE5E7" stroke-width="1.73787" stroke-linecap="round" stroke-linejoin="round"/>
<path d="M218.526 354.011L211.718 347.203L204.91 354.011L211.718 360.819L218.526 354.011Z" stroke="#FBE5E7" stroke-width="1.73787" stroke-linecap="round" stroke-linejoin="round"/>
</g>
<g clip-path="url(#clip22_1_7022)">
<path d="M333.643 210.8C336.507 210.8 339.307 211.649 341.689 213.241C344.07 214.832 345.926 217.094 347.023 219.74C348.119 222.387 348.406 225.298 347.847 228.108C347.288 230.917 345.909 233.497 343.883 235.523C341.858 237.548 339.277 238.928 336.468 239.486C333.659 240.045 330.747 239.758 328.101 238.662C325.454 237.566 323.192 235.71 321.601 233.328C320.01 230.947 319.16 228.147 319.16 225.282V210.8H333.643Z" fill="#FCEEBC"/>
</g>
<g clip-path="url(#clip23_1_7022)">
<path d="M398.012 225.285L404.82 218.477L398.012 211.668L391.204 218.477L398.012 225.285Z" stroke="#FBE5E7" stroke-width="1.73787" stroke-linecap="round" stroke-linejoin="round"/>
<path d="M398.012 238.896L404.82 232.088L398.012 225.28L391.204 232.088L398.012 238.896Z" stroke="#FBE5E7" stroke-width="1.73787" stroke-linecap="round" stroke-linejoin="round"/>
</g>
<g clip-path="url(#clip24_1_7022)">
<path d="M269.285 289.642L262.477 282.834L255.669 289.642L262.477 296.45L269.285 289.642Z" stroke="#FBE5E7" stroke-width="1.73787" stroke-linecap="round" stroke-linejoin="round"/>
<path d="M282.896 289.642L276.088 282.834L269.28 289.642L276.088 296.45L282.896 289.642Z" stroke="#FBE5E7" stroke-width="1.73787" stroke-linecap="round" stroke-linejoin="round"/>
</g>
<g clip-path="url(#clip25_1_7022)">
<path d="M383.53 289.643C383.53 292.507 384.38 295.307 385.971 297.689C387.562 300.07 389.824 301.926 392.47 303.023C395.117 304.119 398.029 304.406 400.838 303.847C403.647 303.288 406.228 301.909 408.253 299.883C410.278 297.858 411.658 295.277 412.217 292.468C412.775 289.659 412.489 286.747 411.392 284.101C410.296 281.454 408.44 279.192 406.058 277.601C403.677 276.01 400.877 275.16 398.013 275.16C394.172 275.16 390.488 276.686 387.772 279.402C385.056 282.118 383.53 285.802 383.53 289.643V289.643ZM402.546 289.643C402.546 290.539 402.28 291.416 401.782 292.161C401.284 292.907 400.576 293.488 399.747 293.831C398.919 294.174 398.008 294.264 397.128 294.089C396.249 293.914 395.441 293.482 394.807 292.848C394.173 292.214 393.742 291.407 393.567 290.527C393.392 289.648 393.482 288.737 393.825 287.908C394.168 287.08 394.749 286.372 395.494 285.874C396.24 285.376 397.116 285.11 398.013 285.11C399.215 285.11 400.368 285.588 401.218 286.438C402.068 287.288 402.545 288.441 402.546 289.643Z" fill="#E1F4E4"/>
</g>
<g clip-path="url(#clip26_1_7022)">
<path d="M398.012 354.013L404.82 347.205L398.012 340.397L391.204 347.205L398.012 354.013Z" stroke="#FBE5E7" stroke-width="1.73787" stroke-linecap="round" stroke-linejoin="round"/>
<path d="M398.012 367.625L404.82 360.816L398.012 354.008L391.204 360.816L398.012 367.625Z" stroke="#FBE5E7" stroke-width="1.73787" stroke-linecap="round" stroke-linejoin="round"/>
</g>
<g clip-path="url(#clip27_1_7022)">
<path d="M591.112 225.285L597.92 218.477L591.112 211.668L584.304 218.477L591.112 225.285Z" stroke="#FBE5E7" stroke-width="1.73787" stroke-linecap="round" stroke-linejoin="round"/>
<path d="M591.112 238.896L597.92 232.088L591.112 225.28L584.304 232.088L591.112 238.896Z" stroke="#FBE5E7" stroke-width="1.73787" stroke-linecap="round" stroke-linejoin="round"/>
</g>
<g clip-path="url(#clip28_1_7022)">
<path d="M719.843 225.28L713.035 232.088L719.843 238.896L726.651 232.088L719.843 225.28Z" stroke="#FBE5E7" stroke-width="1.73787" stroke-linecap="round" stroke-linejoin="round"/>
<path d="M719.843 211.668L713.035 218.477L719.843 225.285L726.651 218.477L719.843 211.668Z" stroke="#FBE5E7" stroke-width="1.73787" stroke-linecap="round" stroke-linejoin="round"/>
</g>
<g clip-path="url(#clip29_1_7022)">
<path d="M784.2 225.283L791.008 232.091L797.816 225.283L791.008 218.475L784.2 225.283Z" stroke="#FBE5E7" stroke-width="1.73787" stroke-linecap="round" stroke-linejoin="round"/>
<path d="M770.589 225.282L777.397 232.09L784.205 225.282L777.397 218.474L770.589 225.282Z" stroke="#FBE5E7" stroke-width="1.73787" stroke-linecap="round" stroke-linejoin="round"/>
</g>
<g clip-path="url(#clip30_1_7022)">
<path d="M769.72 289.643C769.72 292.507 770.57 295.307 772.161 297.689C773.752 300.07 776.014 301.926 778.66 303.023C781.307 304.119 784.219 304.406 787.028 303.847C789.837 303.288 792.418 301.909 794.443 299.883C796.468 297.858 797.848 295.277 798.407 292.468C798.965 289.659 798.679 286.747 797.582 284.101C796.486 281.454 794.63 279.192 792.248 277.601C789.867 276.01 787.067 275.16 784.203 275.16C780.362 275.16 776.678 276.686 773.962 279.402C771.246 282.118 769.72 285.802 769.72 289.643V289.643ZM788.735 289.643C788.736 290.539 788.47 291.416 787.972 292.161C787.474 292.907 786.766 293.488 785.937 293.831C785.109 294.174 784.198 294.264 783.318 294.089C782.439 293.914 781.631 293.482 780.997 292.848C780.363 292.214 779.932 291.407 779.757 290.527C779.582 289.648 779.671 288.737 780.015 287.908C780.358 287.08 780.939 286.372 781.684 285.874C782.43 285.376 783.306 285.11 784.203 285.11C785.405 285.11 786.558 285.588 787.408 286.438C788.258 287.288 788.735 288.441 788.735 289.643Z" fill="#E1F4E4"/>
</g>
<g clip-path="url(#clip31_1_7022)">
<path d="M669.955 354.012C669.955 356.876 669.105 359.676 667.514 362.058C665.923 364.44 663.661 366.296 661.015 367.392C658.368 368.488 655.456 368.775 652.647 368.216C649.838 367.657 647.257 366.278 645.232 364.253C643.207 362.227 641.827 359.647 641.269 356.837C640.71 354.028 640.997 351.116 642.093 348.47C643.189 345.824 645.045 343.562 647.427 341.971C649.808 340.379 652.608 339.53 655.473 339.53H669.955V354.012Z" fill="#FCEEBC"/>
</g>
<g clip-path="url(#clip32_1_7022)">
<path d="M977.305 225.282L970.497 218.474L963.689 225.282L970.497 232.09L977.305 225.282Z" stroke="#FBE5E7" stroke-width="1.73787" stroke-linecap="round" stroke-linejoin="round"/>
<path d="M990.916 225.283L984.108 218.475L977.3 225.283L984.108 232.091L990.916 225.283Z" stroke="#FBE5E7" stroke-width="1.73787" stroke-linecap="round" stroke-linejoin="round"/>
</g>
<g clip-path="url(#clip33_1_7022)">
<path d="M848.572 339.53C851.437 339.53 854.237 340.379 856.618 341.971C859 343.562 860.856 345.824 861.952 348.47C863.048 351.116 863.335 354.028 862.776 356.837C862.218 359.647 860.838 362.227 858.813 364.253C856.788 366.278 854.207 367.657 851.398 368.216C848.588 368.775 845.677 368.488 843.03 367.392C840.384 366.296 838.122 364.44 836.531 362.058C834.939 359.676 834.09 356.876 834.09 354.012V339.53H848.572Z" fill="#FCEEBC"/>
</g>
<g clip-path="url(#clip34_1_7022)">
<path d="M1091.55 225.282C1091.55 222.418 1092.4 219.618 1093.99 217.236C1095.58 214.855 1097.84 212.998 1100.49 211.902C1103.14 210.806 1106.05 210.519 1108.86 211.078C1111.67 211.637 1114.25 213.016 1116.27 215.042C1118.3 217.067 1119.68 219.647 1120.24 222.457C1120.8 225.266 1120.51 228.178 1119.41 230.824C1118.32 233.471 1116.46 235.732 1114.08 237.324C1111.7 238.915 1108.9 239.764 1106.03 239.764H1091.55V225.282Z" fill="#FCEEBC"/>
</g>
<g clip-path="url(#clip35_1_7022)">
<path d="M1170.41 225.282L1163.6 218.474L1156.79 225.282L1163.6 232.09L1170.41 225.282Z" stroke="#FBE5E7" stroke-width="1.73787" stroke-linecap="round" stroke-linejoin="round"/>
<path d="M1184.02 225.283L1177.21 218.475L1170.4 225.283L1177.21 232.091L1184.02 225.283Z" stroke="#FBE5E7" stroke-width="1.73787" stroke-linecap="round" stroke-linejoin="round"/>
</g>
<g clip-path="url(#clip36_1_7022)">
<path d="M1170.4 275.16C1167.54 275.16 1164.74 276.01 1162.36 277.601C1159.98 279.192 1158.12 281.454 1157.02 284.1C1155.93 286.747 1155.64 289.659 1156.2 292.468C1156.76 295.277 1158.14 297.858 1160.16 299.883C1162.19 301.908 1164.77 303.288 1167.58 303.846C1170.39 304.405 1173.3 304.118 1175.94 303.022C1178.59 301.926 1180.85 300.07 1182.44 297.688C1184.04 295.307 1184.88 292.507 1184.88 289.642C1184.88 285.802 1183.36 282.118 1180.64 279.402C1177.93 276.686 1174.24 275.16 1170.4 275.16V275.16ZM1170.4 294.175C1169.51 294.175 1168.63 293.91 1167.88 293.412C1167.14 292.914 1166.56 292.206 1166.21 291.377C1165.87 290.549 1165.78 289.638 1165.96 288.758C1166.13 287.879 1166.56 287.071 1167.2 286.437C1167.83 285.803 1168.64 285.372 1169.52 285.197C1170.4 285.022 1171.31 285.111 1172.14 285.455C1172.97 285.798 1173.67 286.379 1174.17 287.124C1174.67 287.869 1174.94 288.746 1174.94 289.642C1174.94 290.845 1174.46 291.998 1173.61 292.848C1172.76 293.698 1171.6 294.175 1170.4 294.175Z" fill="#E1F4E4"/>
</g>
<g clip-path="url(#clip37_1_7022)">
<path d="M1299.13 239.764C1296.27 239.764 1293.47 238.915 1291.09 237.324C1288.71 235.732 1286.85 233.471 1285.75 230.824C1284.66 228.178 1284.37 225.266 1284.93 222.457C1285.49 219.647 1286.87 217.067 1288.89 215.042C1290.92 213.016 1293.5 211.637 1296.31 211.078C1299.12 210.519 1302.03 210.806 1304.67 211.902C1307.32 212.998 1309.58 214.855 1311.17 217.236C1312.77 219.618 1313.61 222.418 1313.61 225.282V239.764H1299.13Z" fill="#FCEEBC"/>
</g>
<g clip-path="url(#clip38_1_7022)">
<path d="M1284.65 289.642C1284.65 286.778 1285.5 283.978 1287.09 281.597C1288.68 279.215 1290.94 277.359 1293.59 276.263C1296.24 275.166 1299.15 274.88 1301.96 275.438C1304.77 275.997 1307.35 277.377 1309.37 279.402C1311.4 281.427 1312.78 284.008 1313.34 286.817C1313.9 289.626 1313.61 292.538 1312.51 295.185C1311.42 297.831 1309.56 300.093 1307.18 301.684C1304.8 303.275 1302 304.125 1299.13 304.125H1284.65V289.642Z" fill="#FCEEBC"/>
</g>
<g clip-path="url(#clip39_1_7022)">
<path d="M1313.61 354.012C1313.61 350.171 1312.09 346.487 1309.37 343.771C1306.66 341.055 1302.97 339.529 1299.13 339.529C1295.29 339.529 1291.61 341.055 1288.89 343.771C1286.18 346.487 1284.65 350.171 1284.65 354.012H1313.61Z" fill="#F9EBDA"/>
<path d="M1313.61 368.494C1313.61 364.653 1312.09 360.969 1309.37 358.253C1306.66 355.537 1302.97 354.011 1299.13 354.011C1295.29 354.011 1291.61 355.537 1288.89 358.253C1286.18 360.969 1284.65 364.653 1284.65 368.494H1313.61Z" fill="#F9EBDA"/>
</g>
</g>
<defs>
<clipPath id="clip0_1_7022">
<rect width="28.9646" height="28.9646" fill="white" transform="translate(190.43 17.7002)"/>
</clipPath>
<clipPath id="clip1_1_7022">
<rect width="28.9646" height="28.9646" fill="white" transform="translate(155.035 111.035) rotate(180)"/>
</clipPath>
<clipPath id="clip2_1_7022">
<rect width="28.9646" height="28.9646" fill="white" transform="translate(61.7002 146.431)"/>
</clipPath>
<clipPath id="clip3_1_7022">
<rect width="28.9646" height="28.9646" fill="white" transform="translate(126.07 146.431)"/>
</clipPath>
<clipPath id="clip4_1_7022">
<rect width="28.9646" height="28.9646" fill="white" transform="translate(254.8 146.431)"/>
</clipPath>
<clipPath id="clip5_1_7022">
<rect width="28.9646" height="28.9646" fill="white" transform="translate(541.225 46.665) rotate(180)"/>
</clipPath>
<clipPath id="clip6_1_7022">
<rect width="28.9646" height="28.9646" fill="white" transform="translate(576.63 17.7002)"/>
</clipPath>
<clipPath id="clip7_1_7022">
<rect width="28.9646" height="28.9646" fill="white" transform="translate(447.89 175.395) rotate(-90)"/>
</clipPath>
<clipPath id="clip8_1_7022">
<rect width="28.9646" height="28.9646" fill="white" transform="translate(541.225 175.395) rotate(180)"/>
</clipPath>
<clipPath id="clip9_1_7022">
<rect width="28.9646" height="28.9646" fill="white" transform="translate(705.36 17.7002)"/>
</clipPath>
<clipPath id="clip10_1_7022">
<rect width="28.9646" height="28.9646" fill="white" transform="translate(705.36 82.0703)"/>
</clipPath>
<clipPath id="clip11_1_7022">
<rect width="28.9646" height="28.9646" fill="white" transform="translate(769.72 82.0703)"/>
</clipPath>
<clipPath id="clip12_1_7022">
<rect width="28.9646" height="28.9646" fill="white" transform="translate(669.955 146.431) rotate(90)"/>
</clipPath>
<clipPath id="clip13_1_7022">
<rect width="28.9646" height="28.9646" fill="white" transform="translate(734.325 175.395) rotate(180)"/>
</clipPath>
<clipPath id="clip14_1_7022">
<rect width="28.9646" height="28.9646" fill="white" transform="translate(863.055 146.431) rotate(90)"/>
</clipPath>
<clipPath id="clip15_1_7022">
<rect width="28.9646" height="28.9646" fill="white" transform="translate(1091.55 111.035) rotate(-90)"/>
</clipPath>
<clipPath id="clip16_1_7022">
<rect width="28.9646" height="28.9646" fill="white" transform="translate(1155.92 111.035) rotate(-90)"/>
</clipPath>
<clipPath id="clip17_1_7022">
<rect width="28.9646" height="28.9646" fill="white" transform="translate(1349.01 82.0703)"/>
</clipPath>
<clipPath id="clip18_1_7022">
<rect width="28.9646" height="28.9646" fill="white" transform="translate(1249.25 146.431) rotate(90)"/>
</clipPath>
<clipPath id="clip19_1_7022">
<rect width="28.9646" height="28.9646" fill="white" transform="translate(126.07 304.125) rotate(-90)"/>
</clipPath>
<clipPath id="clip20_1_7022">
<rect width="28.9646" height="28.9646" fill="white" transform="translate(61.7002 368.494) rotate(-90)"/>
</clipPath>
<clipPath id="clip21_1_7022">
<rect width="28.9646" height="28.9646" fill="white" transform="translate(190.43 339.529)"/>
</clipPath>
<clipPath id="clip22_1_7022">
<rect width="28.9646" height="28.9646" fill="white" transform="translate(348.125 239.765) rotate(180)"/>
</clipPath>
<clipPath id="clip23_1_7022">
<rect width="28.9646" height="28.9646" fill="white" transform="translate(412.495 210.8) rotate(90)"/>
</clipPath>
<clipPath id="clip24_1_7022">
<rect width="28.9646" height="28.9646" fill="white" transform="translate(254.8 275.16)"/>
</clipPath>
<clipPath id="clip25_1_7022">
<rect width="28.9646" height="28.9646" fill="white" transform="translate(383.53 304.125) rotate(-90)"/>
</clipPath>
<clipPath id="clip26_1_7022">
<rect width="28.9646" height="28.9646" fill="white" transform="translate(412.495 339.529) rotate(90)"/>
</clipPath>
<clipPath id="clip27_1_7022">
<rect width="28.9646" height="28.9646" fill="white" transform="translate(605.595 210.8) rotate(90)"/>
</clipPath>
<clipPath id="clip28_1_7022">
<rect width="28.9646" height="28.9646" fill="white" transform="translate(705.36 239.765) rotate(-90)"/>
</clipPath>
<clipPath id="clip29_1_7022">
<rect width="28.9646" height="28.9646" fill="white" transform="translate(798.685 239.765) rotate(180)"/>
</clipPath>
<clipPath id="clip30_1_7022">
<rect width="28.9646" height="28.9646" fill="white" transform="translate(769.72 304.125) rotate(-90)"/>
</clipPath>
<clipPath id="clip31_1_7022">
<rect width="28.9646" height="28.9646" fill="white" transform="translate(640.99 368.494) rotate(-90)"/>
</clipPath>
<clipPath id="clip32_1_7022">
<rect width="28.9646" height="28.9646" fill="white" transform="translate(962.82 210.8)"/>
</clipPath>
<clipPath id="clip33_1_7022">
<rect width="28.9646" height="28.9646" fill="white" transform="translate(863.055 368.494) rotate(180)"/>
</clipPath>
<clipPath id="clip34_1_7022">
<rect width="28.9646" height="28.9646" fill="white" transform="translate(1120.51 210.8) rotate(90)"/>
</clipPath>
<clipPath id="clip35_1_7022">
<rect width="28.9646" height="28.9646" fill="white" transform="translate(1155.92 210.8)"/>
</clipPath>
<clipPath id="clip36_1_7022">
<rect width="28.9646" height="28.9646" fill="white" transform="translate(1155.92 275.16)"/>
</clipPath>
<clipPath id="clip37_1_7022">
<rect width="28.9646" height="28.9646" fill="white" transform="translate(1284.65 210.8)"/>
</clipPath>
<clipPath id="clip38_1_7022">
<rect width="28.9646" height="28.9646" fill="white" transform="translate(1313.61 275.16) rotate(90)"/>
</clipPath>
<clipPath id="clip39_1_7022">
<rect width="28.9646" height="28.9646" fill="white" transform="translate(1284.65 339.529)"/>
</clipPath>
</defs>
</svg>
