<svg width="1440" height="400" viewBox="0 0 1440 400" fill="none" xmlns="http://www.w3.org/2000/svg">
<mask id="mask0_1_4271" style="mask-type:alpha" maskUnits="userSpaceOnUse" x="0" y="0" width="1440" height="400">
<rect width="1440" height="400" fill="#F5F8E6"/>
</mask>
<g mask="url(#mask0_1_4271)">
<g clip-path="url(#clip0_1_4271)">
<path d="M155.035 23.3699C151.194 23.3699 147.51 24.8957 144.794 27.6117C142.079 30.3276 140.553 34.0112 140.553 37.8522C140.553 41.6931 142.079 45.3768 144.794 48.0927C147.51 50.8087 151.194 52.3345 155.035 52.3345V23.3699Z" fill="#FCEEBC"/>
</g>
<g clip-path="url(#clip1_1_4271)">
<path d="M254.836 52.2993C254.836 52.2993 253.88 38.4073 261.858 30.4287C269.837 22.4501 283.729 23.4059 283.729 23.4059C283.729 23.4059 284.685 37.2979 276.706 45.2765C268.728 53.2551 254.836 52.2993 254.836 52.2993Z" fill="#E1F4E4"/>
</g>
<g clip-path="url(#clip2_1_4271)">
<path d="M319.16 52.3347C323.001 52.3347 326.685 50.8089 329.401 48.0929C332.117 45.377 333.643 41.6933 333.643 37.8524C333.643 34.0115 332.117 30.3278 329.401 27.6119C326.685 24.8959 323.001 23.3701 319.16 23.3701V52.3347Z" fill="#FCEEBC"/>
</g>
<g clip-path="url(#clip3_1_4271)">
<path d="M408.755 51.466L411.626 48.595L400.884 37.8526L411.626 27.1102L408.755 24.2393L398.013 34.9816L387.27 24.2393L384.399 27.1102L395.142 37.8526L384.399 48.595L387.27 51.466L398.013 40.7236L408.755 51.466Z" stroke="#FBE5E7" stroke-width="1.73787" stroke-linecap="round" stroke-linejoin="round"/>
</g>
<g clip-path="url(#clip4_1_4271)">
<path d="M319.16 116.695C323.001 116.695 326.685 115.169 329.401 112.453C332.117 109.737 333.643 106.053 333.643 102.212C333.643 98.3713 332.117 94.6877 329.401 91.9717C326.685 89.2558 323.001 87.73 319.16 87.73V116.695Z" fill="#FCEEBC"/>
</g>
<g clip-path="url(#clip5_1_4271)">
<path d="M541.224 52.3348C541.224 48.4939 539.699 44.8103 536.983 42.0943C534.267 39.3783 530.583 37.8525 526.742 37.8525C522.901 37.8525 519.217 39.3783 516.502 42.0943C513.786 44.8103 512.26 48.4939 512.26 52.3348H541.224Z" fill="#FCEEBC"/>
</g>
<g clip-path="url(#clip6_1_4271)">
<path d="M770.589 112.955L773.46 115.826L784.202 105.083L794.944 115.826L797.815 112.955L787.073 102.212L797.815 91.47L794.944 88.599L784.202 99.3414L773.46 88.599L770.589 91.47L781.331 102.212L770.589 112.955Z" stroke="#FBE5E7" stroke-width="1.73787" stroke-linecap="round" stroke-linejoin="round"/>
</g>
<g clip-path="url(#clip7_1_4271)">
<path d="M927.415 23.3699C923.574 23.3699 919.89 24.8957 917.174 27.6117C914.458 30.3276 912.933 34.0112 912.933 37.8522C912.933 41.6931 914.458 45.3768 917.174 48.0927C919.89 50.8087 923.574 52.3345 927.415 52.3345V23.3699Z" fill="#FCEEBC"/>
</g>
<g clip-path="url(#clip8_1_4271)">
<path d="M962.821 87.7301C962.821 91.5711 964.346 95.2547 967.062 97.9706C969.778 100.687 973.462 102.212 977.303 102.212C981.144 102.212 984.827 100.687 987.543 97.9706C990.259 95.2547 991.785 91.5711 991.785 87.7301H962.821Z" fill="#FCEEBC"/>
</g>
<g clip-path="url(#clip9_1_4271)">
<path d="M1056.15 37.8524C1056.15 34.0115 1054.63 30.3278 1051.91 27.6119C1049.2 24.8959 1045.51 23.3701 1041.67 23.3701C1037.83 23.3701 1034.15 24.8959 1031.43 27.6119C1028.72 30.3278 1027.19 34.0115 1027.19 37.8524V52.3347H1041.67C1045.51 52.3343 1049.2 50.8084 1051.91 48.0925C1054.63 45.3766 1056.15 41.6932 1056.15 37.8524V37.8524ZM1034.43 45.0935V37.8524C1034.43 36.4202 1034.86 35.0202 1035.65 33.8294C1036.45 32.6386 1037.58 31.7105 1038.9 31.1625C1040.22 30.6144 1041.68 30.471 1043.08 30.7504C1044.49 31.0298 1045.78 31.7194 1046.79 32.7321C1047.8 33.7448 1048.49 35.0351 1048.77 36.4397C1049.05 37.8444 1048.91 39.3003 1048.36 40.6235C1047.81 41.9466 1046.89 43.0775 1045.69 43.8732C1044.5 44.6689 1043.1 45.0935 1041.67 45.0935H1034.43Z" fill="#F9EBDA"/>
</g>
<g clip-path="url(#clip10_1_4271)">
<path d="M1156.79 48.5944L1159.66 51.4653L1170.4 40.723L1181.14 51.4653L1184.02 48.5944L1173.27 37.852L1184.02 27.1096L1181.14 24.2386L1170.4 34.981L1159.66 24.2386L1156.79 27.1096L1167.53 37.852L1156.79 48.5944Z" stroke="#FBE5E7" stroke-width="1.73787" stroke-linecap="round" stroke-linejoin="round"/>
</g>
<g clip-path="url(#clip11_1_4271)">
<path d="M1106.03 116.695C1109.87 116.695 1113.56 115.169 1116.27 112.453C1118.99 109.737 1120.51 106.053 1120.51 102.212C1120.51 98.3714 1118.99 94.6877 1116.27 91.9718C1113.56 89.2558 1109.87 87.73 1106.03 87.73H1091.55V102.212C1091.55 106.053 1093.08 109.737 1095.79 112.452C1098.51 115.168 1102.19 116.694 1106.03 116.695V116.695ZM1098.79 94.9712H1106.03C1107.46 94.9712 1108.86 95.3958 1110.06 96.1915C1111.25 96.9872 1112.17 98.1181 1112.72 99.4412C1113.27 100.764 1113.41 102.22 1113.13 103.625C1112.85 105.03 1112.17 106.32 1111.15 107.333C1110.14 108.345 1108.85 109.035 1107.45 109.314C1106.04 109.594 1104.58 109.45 1103.26 108.902C1101.94 108.354 1100.81 107.426 1100.01 106.235C1099.22 105.044 1098.79 103.644 1098.79 102.212V94.9712Z" fill="#F9EBDA"/>
</g>
<g clip-path="url(#clip12_1_4271)">
<path d="M1170.4 116.695C1174.24 116.695 1177.93 115.169 1180.64 112.453C1183.36 109.737 1184.88 106.053 1184.88 102.212C1184.88 98.3714 1183.36 94.6877 1180.64 91.9718C1177.93 89.2558 1174.24 87.73 1170.4 87.73H1155.92V102.212C1155.92 106.053 1157.45 109.737 1160.16 112.452C1162.88 115.168 1166.56 116.694 1170.4 116.695V116.695ZM1163.16 94.9712H1170.4C1171.83 94.9712 1173.23 95.3958 1174.43 96.1915C1175.62 96.9872 1176.54 98.1181 1177.09 99.4412C1177.64 100.764 1177.78 102.22 1177.5 103.625C1177.23 105.03 1176.54 106.32 1175.52 107.333C1174.51 108.345 1173.22 109.035 1171.82 109.314C1170.41 109.594 1168.95 109.45 1167.63 108.902C1166.31 108.354 1165.18 107.426 1164.38 106.235C1163.59 105.044 1163.16 103.644 1163.16 102.212V94.9712Z" fill="#F9EBDA"/>
</g>
<g clip-path="url(#clip13_1_4271)">
<path d="M1313.61 52.3348C1313.61 48.4939 1312.09 44.8103 1309.37 42.0943C1306.66 39.3783 1302.97 37.8525 1299.13 37.8525C1295.29 37.8525 1291.61 39.3783 1288.89 42.0943C1286.18 44.8103 1284.65 48.4939 1284.65 52.3348H1313.61Z" fill="#FCEEBC"/>
</g>
<g clip-path="url(#clip14_1_4271)">
<path d="M1299.13 87.73C1295.29 87.73 1291.61 89.2558 1288.89 91.9717C1286.18 94.6877 1284.65 98.3713 1284.65 102.212C1284.65 106.053 1286.18 109.737 1288.89 112.453C1291.61 115.169 1295.29 116.695 1299.13 116.695H1313.61V102.212C1313.61 98.3714 1312.09 94.688 1309.37 91.9722C1306.66 89.2563 1302.97 87.7304 1299.13 87.73V87.73ZM1306.37 109.453H1299.13C1297.7 109.453 1296.3 109.029 1295.11 108.233C1293.92 107.437 1292.99 106.306 1292.44 104.983C1291.89 103.66 1291.75 102.204 1292.03 100.8C1292.31 99.3949 1293 98.1047 1294.01 97.092C1295.03 96.0793 1296.32 95.3897 1297.72 95.1103C1299.12 94.8309 1300.58 94.9743 1301.9 95.5223C1303.23 96.0704 1304.36 96.9985 1305.15 98.1893C1305.95 99.3801 1306.37 100.78 1306.37 102.212V109.453Z" fill="#F9EBDA"/>
</g>
<g clip-path="url(#clip15_1_4271)">
<path d="M126.07 245.425C129.911 245.425 133.595 243.899 136.311 241.183C139.027 238.467 140.553 234.783 140.553 230.942C140.553 227.102 139.027 223.418 136.311 220.702C133.595 217.986 129.911 216.46 126.07 216.46V245.425Z" fill="#FCEEBC"/>
</g>
<g clip-path="url(#clip16_1_4271)">
<path d="M140.553 309.795C144.394 309.795 148.077 308.269 150.793 305.553C153.509 302.837 155.035 299.153 155.035 295.312C155.035 291.471 153.509 287.788 150.793 285.072C148.077 282.356 144.394 280.83 140.553 280.83H126.071V295.312C126.071 299.153 127.597 302.837 130.313 305.552C133.029 308.268 136.712 309.794 140.553 309.795V309.795ZM133.312 288.071H140.553C141.985 288.071 143.385 288.496 144.576 289.292C145.767 290.087 146.695 291.218 147.243 292.541C147.791 293.864 147.934 295.32 147.655 296.725C147.375 298.13 146.686 299.42 145.673 300.433C144.66 301.445 143.37 302.135 141.966 302.414C140.561 302.694 139.105 302.55 137.782 302.002C136.459 301.454 135.328 300.526 134.532 299.335C133.736 298.145 133.312 296.745 133.312 295.312V288.071Z" fill="#F9EBDA"/>
</g>
<g clip-path="url(#clip17_1_4271)">
<path d="M219.395 280.83C215.554 280.83 211.871 282.356 209.155 285.072C206.439 287.788 204.913 291.471 204.913 295.312C204.913 299.153 206.439 302.837 209.155 305.553C211.871 308.269 215.554 309.795 219.395 309.795V280.83Z" fill="#FCEEBC"/>
</g>
<g clip-path="url(#clip18_1_4271)">
<path d="M280.025 180.196L282.896 177.325L272.153 166.582L282.896 155.84L280.025 152.969L269.282 163.711L258.54 152.969L255.669 155.84L266.411 166.582L255.669 177.325L258.54 180.196L269.282 169.453L280.025 180.196Z" stroke="#FBE5E7" stroke-width="1.73787" stroke-linecap="round" stroke-linejoin="round"/>
</g>
<g clip-path="url(#clip19_1_4271)">
<path d="M319.16 245.425C323.001 245.425 326.685 243.899 329.401 241.183C332.117 238.467 333.643 234.783 333.643 230.942C333.643 227.102 332.117 223.418 329.401 220.702C326.685 217.986 323.001 216.46 319.16 216.46V245.425Z" fill="#FCEEBC"/>
</g>
<g clip-path="url(#clip20_1_4271)">
<path d="M344.385 308.926L347.256 306.055L336.513 295.312L347.256 284.57L344.385 281.699L333.643 292.441L322.9 281.699L320.029 284.57L330.772 295.312L320.029 306.055L322.9 308.926L333.643 298.183L344.385 308.926Z" stroke="#FBE5E7" stroke-width="1.73787" stroke-linecap="round" stroke-linejoin="round"/>
</g>
<g clip-path="url(#clip21_1_4271)">
<path d="M412.495 280.83C408.654 280.83 404.97 282.356 402.254 285.072C399.539 287.788 398.013 291.471 398.013 295.312C398.013 299.153 399.539 302.837 402.254 305.553C404.97 308.269 408.654 309.795 412.495 309.795V280.83Z" fill="#FCEEBC"/>
</g>
<g clip-path="url(#clip22_1_4271)">
<path d="M541.189 181.029C541.189 181.029 527.297 181.985 519.318 174.006C511.34 166.028 512.296 152.136 512.296 152.136C512.296 152.136 526.188 151.18 534.166 159.158C542.145 167.137 541.189 181.029 541.189 181.029Z" fill="#E1F4E4"/>
</g>
<g clip-path="url(#clip23_1_4271)">
<path d="M541.225 216.46C537.385 216.46 533.701 217.986 530.985 220.702C528.269 223.418 526.743 227.101 526.743 230.942C526.743 234.783 528.269 238.467 530.985 241.183C533.701 243.899 537.385 245.425 541.225 245.425V216.46Z" fill="#FCEEBC"/>
</g>
<g clip-path="url(#clip24_1_4271)">
<path d="M655.473 245.425C659.314 245.425 662.997 243.899 665.713 241.183C668.429 238.467 669.955 234.783 669.955 230.942C669.955 227.101 668.429 223.418 665.713 220.702C662.997 217.986 659.314 216.46 655.473 216.46H640.991V230.942C640.991 234.783 642.517 238.467 645.233 241.182C647.949 243.898 651.632 245.424 655.473 245.425V245.425ZM648.232 223.701H655.473C656.905 223.701 658.305 224.126 659.496 224.921C660.687 225.717 661.615 226.848 662.163 228.171C662.711 229.494 662.854 230.95 662.575 232.355C662.295 233.76 661.606 235.05 660.593 236.063C659.58 237.075 658.29 237.765 656.885 238.044C655.481 238.324 654.025 238.18 652.702 237.632C651.379 237.084 650.248 236.156 649.452 234.965C648.656 233.774 648.232 232.374 648.232 230.942V223.701Z" fill="#F9EBDA"/>
</g>
<g clip-path="url(#clip25_1_4271)">
<path d="M770.589 241.685L773.46 244.556L784.202 233.813L794.944 244.556L797.815 241.685L787.073 230.942L797.815 220.2L794.944 217.329L784.202 228.071L773.46 217.329L770.589 220.2L781.331 230.942L770.589 241.685Z" stroke="#FBE5E7" stroke-width="1.73787" stroke-linecap="round" stroke-linejoin="round"/>
</g>
<g clip-path="url(#clip26_1_4271)">
<path d="M769.721 295.312C769.721 299.153 771.247 302.837 773.962 305.553C776.678 308.269 780.362 309.795 784.203 309.795C788.044 309.795 791.728 308.269 794.444 305.553C797.159 302.837 798.685 299.153 798.685 295.312V280.83H784.203C780.362 280.83 776.679 282.356 773.963 285.072C771.247 287.788 769.721 291.472 769.721 295.312V295.312ZM791.444 288.071V295.312C791.444 296.745 791.019 298.145 790.224 299.335C789.428 300.526 788.297 301.454 786.974 302.002C785.651 302.55 784.195 302.694 782.79 302.414C781.386 302.135 780.095 301.445 779.083 300.433C778.07 299.42 777.38 298.13 777.101 296.725C776.822 295.32 776.965 293.864 777.513 292.541C778.061 291.218 778.989 290.087 780.18 289.292C781.371 288.496 782.771 288.071 784.203 288.071H791.444Z" fill="#F9EBDA"/>
</g>
<g clip-path="url(#clip27_1_4271)">
<path d="M862.186 155.84L859.315 152.969L848.572 163.711L837.83 152.969L834.959 155.84L845.701 166.582L834.959 177.325L837.83 180.196L848.572 169.453L859.315 180.196L862.186 177.325L851.443 166.582L862.186 155.84Z" stroke="#FBE5E7" stroke-width="1.73787" stroke-linecap="round" stroke-linejoin="round"/>
</g>
<g clip-path="url(#clip28_1_4271)">
<path d="M834.09 230.942C834.09 234.783 835.616 238.467 838.332 241.183C841.048 243.899 844.731 245.425 848.572 245.425C852.413 245.425 856.097 243.899 858.813 241.183C861.529 238.467 863.054 234.783 863.054 230.942V216.46H848.572C844.731 216.46 841.048 217.986 838.332 220.702C835.616 223.418 834.09 227.101 834.09 230.942V230.942ZM855.813 223.701V230.942C855.813 232.374 855.389 233.774 854.593 234.965C853.797 236.156 852.666 237.084 851.343 237.632C850.02 238.18 848.564 238.324 847.159 238.044C845.755 237.765 844.465 237.075 843.452 236.063C842.439 235.05 841.75 233.76 841.47 232.355C841.191 230.95 841.334 229.494 841.882 228.171C842.43 226.848 843.358 225.717 844.549 224.921C845.74 224.126 847.14 223.701 848.572 223.701H855.813Z" fill="#F9EBDA"/>
</g>
<g clip-path="url(#clip29_1_4271)">
<path d="M1056.12 216.496C1056.12 216.496 1057.08 230.388 1049.1 238.366C1041.12 246.345 1027.23 245.389 1027.23 245.389C1027.23 245.389 1026.27 231.497 1034.25 223.518C1042.23 215.54 1056.12 216.496 1056.12 216.496Z" fill="#E1F4E4"/>
</g>
<g clip-path="url(#clip30_1_4271)">
<path d="M1091.55 216.46C1091.55 220.301 1093.08 223.985 1095.79 226.701C1098.51 229.417 1102.19 230.942 1106.03 230.942C1109.87 230.942 1113.56 229.417 1116.27 226.701C1118.99 223.985 1120.51 220.301 1120.51 216.46H1091.55Z" fill="#FCEEBC"/>
</g>
<g clip-path="url(#clip31_1_4271)">
<path d="M1159.66 217.329L1156.79 220.2L1167.53 230.942L1156.79 241.685L1159.66 244.556L1170.4 233.813L1181.14 244.556L1184.02 241.685L1173.27 230.942L1184.02 220.2L1181.14 217.329L1170.4 228.071L1159.66 217.329Z" stroke="#FBE5E7" stroke-width="1.73787" stroke-linecap="round" stroke-linejoin="round"/>
</g>
<g clip-path="url(#clip32_1_4271)">
<path d="M1120.52 309.795C1120.52 305.954 1118.99 302.27 1116.27 299.554C1113.56 296.838 1109.87 295.312 1106.03 295.312C1102.19 295.312 1098.51 296.838 1095.79 299.554C1093.08 302.27 1091.55 305.954 1091.55 309.795H1120.52Z" fill="#FCEEBC"/>
</g>
<g clip-path="url(#clip33_1_4271)">
<path d="M1184.02 284.57L1181.14 281.699L1170.4 292.441L1159.66 281.699L1156.79 284.57L1167.53 295.312L1156.79 306.055L1159.66 308.926L1170.4 298.183L1181.14 308.926L1184.02 306.055L1173.27 295.312L1184.02 284.57Z" stroke="#FBE5E7" stroke-width="1.73787" stroke-linecap="round" stroke-linejoin="round"/>
</g>
<g clip-path="url(#clip34_1_4271)">
<path d="M1374.23 308.926L1377.11 306.055L1366.36 295.312L1377.11 284.57L1374.23 281.699L1363.49 292.441L1352.75 281.699L1349.88 284.57L1360.62 295.312L1349.88 306.055L1352.75 308.926L1363.49 298.183L1374.23 308.926Z" stroke="#FBE5E7" stroke-width="1.73787" stroke-linecap="round" stroke-linejoin="round"/>
</g>
<g clip-path="url(#clip35_1_4271)">
<path d="M190.466 345.226C190.466 345.226 204.358 344.27 212.337 352.249C220.316 360.227 219.36 374.119 219.36 374.119C219.36 374.119 205.468 375.075 197.489 367.096C189.511 359.118 190.466 345.226 190.466 345.226Z" fill="#E1F4E4"/>
</g>
<g clip-path="url(#clip36_1_4271)">
<path d="M255.669 370.415L258.54 373.286L269.282 362.543L280.025 373.286L282.896 370.415L272.153 359.672L282.896 348.93L280.025 346.059L269.282 356.801L258.54 346.059L255.669 348.93L266.411 359.672L255.669 370.415Z" stroke="#FBE5E7" stroke-width="1.73787" stroke-linecap="round" stroke-linejoin="round"/>
</g>
<g clip-path="url(#clip37_1_4271)">
<path d="M541.19 345.225C541.19 345.225 542.146 359.117 534.167 367.096C526.188 375.075 512.296 374.119 512.296 374.119C512.296 374.119 511.341 360.227 519.319 352.248C527.298 344.27 541.19 345.225 541.19 345.225Z" fill="#E1F4E4"/>
</g>
<g clip-path="url(#clip38_1_4271)">
<path d="M669.086 348.93L666.215 346.059L655.473 356.801L644.73 346.059L641.859 348.93L652.602 359.672L641.859 370.415L644.73 373.286L655.473 362.543L666.215 373.286L669.086 370.415L658.344 359.672L669.086 348.93Z" stroke="#FBE5E7" stroke-width="1.73787" stroke-linecap="round" stroke-linejoin="round"/>
</g>
<g clip-path="url(#clip39_1_4271)">
<path d="M734.289 345.225C734.289 345.225 735.245 359.117 727.267 367.096C719.288 375.075 705.396 374.119 705.396 374.119C705.396 374.119 704.44 360.227 712.419 352.248C720.397 344.27 734.289 345.225 734.289 345.225Z" fill="#E1F4E4"/>
</g>
<g clip-path="url(#clip40_1_4271)">
<path d="M862.186 348.93L859.315 346.059L848.572 356.801L837.83 346.059L834.959 348.93L845.701 359.672L834.959 370.415L837.83 373.286L848.572 362.543L859.315 373.286L862.186 370.415L851.443 359.672L862.186 348.93Z" stroke="#FBE5E7" stroke-width="1.73787" stroke-linecap="round" stroke-linejoin="round"/>
</g>
<g clip-path="url(#clip41_1_4271)">
<path d="M1284.69 374.119C1284.69 374.119 1283.73 360.227 1291.71 352.249C1299.69 344.27 1313.58 345.226 1313.58 345.226C1313.58 345.226 1314.54 359.118 1306.56 367.096C1298.58 375.075 1284.69 374.119 1284.69 374.119Z" fill="#E1F4E4"/>
</g>
</g>
<defs>
<clipPath id="clip0_1_4271">
<rect width="28.9646" height="28.9646" fill="white" transform="translate(126.07 52.3345) rotate(-90)"/>
</clipPath>
<clipPath id="clip1_1_4271">
<rect width="28.9646" height="28.9646" fill="white" transform="translate(283.765 52.3345) rotate(180)"/>
</clipPath>
<clipPath id="clip2_1_4271">
<rect width="28.9646" height="28.9646" fill="white" transform="translate(348.125 23.3701) rotate(90)"/>
</clipPath>
<clipPath id="clip3_1_4271">
<rect width="28.9646" height="28.9646" fill="white" transform="translate(412.495 23.3701) rotate(90)"/>
</clipPath>
<clipPath id="clip4_1_4271">
<rect width="28.9646" height="28.9646" fill="white" transform="translate(348.125 87.73) rotate(90)"/>
</clipPath>
<clipPath id="clip5_1_4271">
<rect width="28.9646" height="28.9646" fill="white" transform="translate(512.26 23.3701)"/>
</clipPath>
<clipPath id="clip6_1_4271">
<rect width="28.9646" height="28.9646" fill="white" transform="translate(798.685 116.695) rotate(180)"/>
</clipPath>
<clipPath id="clip7_1_4271">
<rect width="28.9646" height="28.9646" fill="white" transform="translate(898.45 52.3345) rotate(-90)"/>
</clipPath>
<clipPath id="clip8_1_4271">
<rect width="28.9646" height="28.9646" fill="white" transform="translate(991.785 116.695) rotate(180)"/>
</clipPath>
<clipPath id="clip9_1_4271">
<rect width="28.9646" height="28.9646" fill="white" transform="translate(1056.15 23.3701) rotate(90)"/>
</clipPath>
<clipPath id="clip10_1_4271">
<rect width="28.9646" height="28.9646" fill="white" transform="translate(1184.88 52.3345) rotate(180)"/>
</clipPath>
<clipPath id="clip11_1_4271">
<rect width="28.9646" height="28.9646" fill="white" transform="translate(1120.51 116.695) rotate(180)"/>
</clipPath>
<clipPath id="clip12_1_4271">
<rect width="28.9646" height="28.9646" fill="white" transform="translate(1184.88 116.695) rotate(180)"/>
</clipPath>
<clipPath id="clip13_1_4271">
<rect width="28.9646" height="28.9646" fill="white" transform="translate(1284.65 23.3701)"/>
</clipPath>
<clipPath id="clip14_1_4271">
<rect width="28.9646" height="28.9646" fill="white" transform="translate(1284.65 87.73)"/>
</clipPath>
<clipPath id="clip15_1_4271">
<rect width="28.9646" height="28.9646" fill="white" transform="translate(155.035 216.46) rotate(90)"/>
</clipPath>
<clipPath id="clip16_1_4271">
<rect width="28.9646" height="28.9646" fill="white" transform="translate(155.035 309.795) rotate(180)"/>
</clipPath>
<clipPath id="clip17_1_4271">
<rect width="28.9646" height="28.9646" fill="white" transform="translate(190.431 309.795) rotate(-90)"/>
</clipPath>
<clipPath id="clip18_1_4271">
<rect width="28.9646" height="28.9646" fill="white" transform="translate(283.765 152.1) rotate(90)"/>
</clipPath>
<clipPath id="clip19_1_4271">
<rect width="28.9646" height="28.9646" fill="white" transform="translate(348.125 216.46) rotate(90)"/>
</clipPath>
<clipPath id="clip20_1_4271">
<rect width="28.9646" height="28.9646" fill="white" transform="translate(348.125 280.83) rotate(90)"/>
</clipPath>
<clipPath id="clip21_1_4271">
<rect width="28.9646" height="28.9646" fill="white" transform="translate(383.53 309.795) rotate(-90)"/>
</clipPath>
<clipPath id="clip22_1_4271">
<rect width="28.9646" height="28.9646" fill="white" transform="translate(541.225 152.1) rotate(90)"/>
</clipPath>
<clipPath id="clip23_1_4271">
<rect width="28.9646" height="28.9646" fill="white" transform="translate(512.261 245.425) rotate(-90)"/>
</clipPath>
<clipPath id="clip24_1_4271">
<rect width="28.9646" height="28.9646" fill="white" transform="translate(669.955 245.425) rotate(180)"/>
</clipPath>
<clipPath id="clip25_1_4271">
<rect width="28.9646" height="28.9646" fill="white" transform="translate(798.685 245.425) rotate(180)"/>
</clipPath>
<clipPath id="clip26_1_4271">
<rect width="28.9646" height="28.9646" fill="white" transform="translate(769.721 309.795) rotate(-90)"/>
</clipPath>
<clipPath id="clip27_1_4271">
<rect width="28.9646" height="28.9646" fill="white" transform="translate(834.09 152.1)"/>
</clipPath>
<clipPath id="clip28_1_4271">
<rect width="28.9646" height="28.9646" fill="white" transform="translate(834.09 245.425) rotate(-90)"/>
</clipPath>
<clipPath id="clip29_1_4271">
<rect width="28.9646" height="28.9646" fill="white" transform="translate(1027.19 216.46)"/>
</clipPath>
<clipPath id="clip30_1_4271">
<rect width="28.9646" height="28.9646" fill="white" transform="translate(1120.51 245.425) rotate(180)"/>
</clipPath>
<clipPath id="clip31_1_4271">
<rect width="28.9646" height="28.9646" fill="white" transform="translate(1155.92 245.425) rotate(-90)"/>
</clipPath>
<clipPath id="clip32_1_4271">
<rect width="28.9646" height="28.9646" fill="white" transform="translate(1091.55 280.83)"/>
</clipPath>
<clipPath id="clip33_1_4271">
<rect width="28.9646" height="28.9646" fill="white" transform="translate(1155.92 280.83)"/>
</clipPath>
<clipPath id="clip34_1_4271">
<rect width="28.9646" height="28.9646" fill="white" transform="translate(1377.97 280.83) rotate(90)"/>
</clipPath>
<clipPath id="clip35_1_4271">
<rect width="28.9646" height="28.9646" fill="white" transform="translate(190.431 374.155) rotate(-90)"/>
</clipPath>
<clipPath id="clip36_1_4271">
<rect width="28.9646" height="28.9646" fill="white" transform="translate(283.765 374.155) rotate(180)"/>
</clipPath>
<clipPath id="clip37_1_4271">
<rect width="28.9646" height="28.9646" fill="white" transform="translate(512.261 345.19)"/>
</clipPath>
<clipPath id="clip38_1_4271">
<rect width="28.9646" height="28.9646" fill="white" transform="translate(640.99 345.19)"/>
</clipPath>
<clipPath id="clip39_1_4271">
<rect width="28.9646" height="28.9646" fill="white" transform="translate(705.36 345.19)"/>
</clipPath>
<clipPath id="clip40_1_4271">
<rect width="28.9646" height="28.9646" fill="white" transform="translate(834.09 345.19)"/>
</clipPath>
<clipPath id="clip41_1_4271">
<rect width="28.9646" height="28.9646" fill="white" transform="translate(1313.62 374.155) rotate(180)"/>
</clipPath>
</defs>
</svg>
