<svg width="1440" height="400" viewBox="0 0 1440 400" fill="none" xmlns="http://www.w3.org/2000/svg">
<mask id="mask0_1_9750" style="mask-type:alpha" maskUnits="userSpaceOnUse" x="0" y="0" width="1440" height="400">
<rect width="1440" height="400" fill="#F5F8E6"/>
</mask>
<g mask="url(#mask0_1_9750)">
<g clip-path="url(#clip0_1_9750)">
<path d="M76.1828 16.4593C68.1844 16.4593 61.7005 22.9432 61.7005 30.9415C61.7005 38.9399 68.1844 45.4238 76.1828 45.4238C84.1811 45.4238 90.665 38.9399 90.665 30.9415C90.665 22.9432 84.1811 16.4593 76.1828 16.4593Z" fill="#F9EBDA"/>
</g>
<g clip-path="url(#clip1_1_9750)">
<path d="M134.966 39.256L136.958 37.2638L140.555 40.8572L144.148 37.2638L146.141 39.256L140.555 44.8447L134.966 39.256Z" stroke="#FBE5E7" stroke-width="1.15858" stroke-miterlimit="10"/>
<path d="M134.966 29.1434L136.958 27.1512L140.555 30.7446L144.148 27.1512L146.141 29.1434L140.555 34.7324L134.966 29.1434Z" stroke="#FBE5E7" stroke-width="1.15858" stroke-miterlimit="10"/>
<path d="M134.966 19.0304L136.958 17.0382L140.555 20.6316L144.148 17.0382L146.141 19.0304L140.555 24.6191L134.966 19.0304Z" stroke="#FBE5E7" stroke-width="1.15858" stroke-miterlimit="10"/>
</g>
<g clip-path="url(#clip2_1_9750)">
<path d="M339.229 22.6278L337.237 24.62L333.64 21.0266L330.047 24.62L328.055 22.6278L333.64 17.0391L339.229 22.6278Z" stroke="#FBE5E7" stroke-width="1.15858" stroke-miterlimit="10"/>
<path d="M339.229 32.7404L337.237 34.7326L333.64 31.1392L330.047 34.7326L328.055 32.7404L333.64 27.1514L339.229 32.7404Z" stroke="#FBE5E7" stroke-width="1.15858" stroke-miterlimit="10"/>
<path d="M339.229 42.8534L337.237 44.8455L333.64 41.2522L330.047 44.8455L328.055 42.8534L333.64 37.2646L339.229 42.8534Z" stroke="#FBE5E7" stroke-width="1.15858" stroke-miterlimit="10"/>
</g>
<g clip-path="url(#clip3_1_9750)">
<path d="M518.428 25.3548L520.42 27.3469L516.826 30.9438L520.42 34.5371L518.428 36.5293L512.839 30.9438L518.428 25.3548Z" stroke="#FBE5E7" stroke-width="1.15858" stroke-miterlimit="10"/>
<path d="M528.54 25.3548L530.532 27.3469L526.939 30.9438L530.532 34.5371L528.54 36.5293L522.951 30.9438L528.54 25.3548Z" stroke="#FBE5E7" stroke-width="1.15858" stroke-miterlimit="10"/>
<path d="M538.653 25.3548L540.645 27.3469L537.052 30.9438L540.645 34.5371L538.653 36.5293L533.064 30.9438L538.653 25.3548Z" stroke="#FBE5E7" stroke-width="1.15858" stroke-miterlimit="10"/>
</g>
<g clip-path="url(#clip4_1_9750)">
<path d="M476.855 109.795C476.855 102.113 473.804 94.7455 468.372 89.3136C462.94 83.8817 455.573 80.8301 447.891 80.8301V109.795H476.855Z" fill="#E1F4E4"/>
</g>
<g clip-path="url(#clip5_1_9750)">
<path d="M591.112 95.3124L605.595 88.0712L591.112 80.8301V95.3124Z" fill="#FCEEBC"/>
<path d="M576.63 95.3124L591.113 88.0712L576.63 80.8301V95.3124Z" fill="#FCEEBC"/>
<path d="M591.112 109.795L605.595 102.553L591.112 95.3123V109.795Z" fill="#FCEEBC"/>
<path d="M576.63 109.795L591.113 102.553L576.63 95.3123V109.795Z" fill="#FCEEBC"/>
</g>
<g clip-path="url(#clip6_1_9750)">
<path d="M655.473 16.4593C647.474 16.4593 640.991 22.9432 640.991 30.9415C640.991 38.9399 647.474 45.4238 655.473 45.4238C663.471 45.4238 669.955 38.9399 669.955 30.9415C669.955 22.9432 663.471 16.4593 655.473 16.4593Z" fill="#F9EBDA"/>
</g>
<g clip-path="url(#clip7_1_9750)">
<path d="M711.528 25.3548L713.52 27.3469L709.927 30.9438L713.52 34.5371L711.528 36.5293L705.939 30.9438L711.528 25.3548Z" stroke="#FBE5E7" stroke-width="1.15858" stroke-miterlimit="10"/>
<path d="M721.641 25.3548L723.633 27.3469L720.04 30.9438L723.633 34.5371L721.641 36.5293L716.052 30.9438L721.641 25.3548Z" stroke="#FBE5E7" stroke-width="1.15858" stroke-miterlimit="10"/>
<path d="M731.754 25.3548L733.746 27.3469L730.153 30.9438L733.746 34.5371L731.754 36.5293L726.165 30.9438L731.754 25.3548Z" stroke="#FBE5E7" stroke-width="1.15858" stroke-miterlimit="10"/>
</g>
<g clip-path="url(#clip8_1_9750)">
<path d="M725.43 86.9979L723.438 88.9901L719.841 85.3967L716.248 88.9901L714.256 86.9979L719.841 81.4092L725.43 86.9979Z" stroke="#FBE5E7" stroke-width="1.15858" stroke-miterlimit="10"/>
<path d="M725.43 97.1105L723.438 99.1027L719.841 95.5093L716.248 99.1027L714.256 97.1105L719.841 91.5215L725.43 97.1105Z" stroke="#FBE5E7" stroke-width="1.15858" stroke-miterlimit="10"/>
<path d="M725.43 107.223L723.438 109.216L719.841 105.622L716.248 109.216L714.256 107.223L719.841 101.635L725.43 107.223Z" stroke="#FBE5E7" stroke-width="1.15858" stroke-miterlimit="10"/>
</g>
<g clip-path="url(#clip9_1_9750)">
<path d="M848.572 16.4593C840.574 16.4593 834.09 22.9432 834.09 30.9415C834.09 38.9399 840.574 45.4238 848.572 45.4238C856.571 45.4238 863.055 38.9399 863.055 30.9415C863.055 22.9432 856.571 16.4593 848.572 16.4593Z" fill="#F9EBDA"/>
</g>
<g clip-path="url(#clip10_1_9750)">
<path d="M907.345 39.256L909.337 37.2638L912.934 40.8572L916.527 37.2638L918.52 39.256L912.934 44.8447L907.345 39.256Z" stroke="#FBE5E7" stroke-width="1.15858" stroke-miterlimit="10"/>
<path d="M907.345 29.1434L909.337 27.1512L912.934 30.7446L916.527 27.1512L918.52 29.1434L912.934 34.7324L907.345 29.1434Z" stroke="#FBE5E7" stroke-width="1.15858" stroke-miterlimit="10"/>
<path d="M907.345 19.0304L909.337 17.0382L912.934 20.6316L916.527 17.0382L918.52 19.0304L912.934 24.6191L907.345 19.0304Z" stroke="#FBE5E7" stroke-width="1.15858" stroke-miterlimit="10"/>
</g>
<g clip-path="url(#clip11_1_9750)">
<path d="M962.821 80.8294C962.821 88.5113 965.872 95.8785 971.304 101.31C976.736 106.742 984.103 109.794 991.785 109.794V80.8294H962.821Z" fill="#E1F4E4"/>
</g>
<g clip-path="url(#clip12_1_9750)">
<path d="M1114.35 36.53L1112.35 34.5378L1115.95 30.941L1112.35 27.3477L1114.35 25.3555L1119.94 30.941L1114.35 36.53Z" stroke="#FBE5E7" stroke-width="1.15858" stroke-miterlimit="10"/>
<path d="M1104.23 36.53L1102.24 34.5378L1105.84 30.941L1102.24 27.3477L1104.23 25.3555L1109.82 30.941L1104.23 36.53Z" stroke="#FBE5E7" stroke-width="1.15858" stroke-miterlimit="10"/>
<path d="M1094.12 36.53L1092.13 34.5378L1095.72 30.941L1092.13 27.3477L1094.12 25.3555L1099.71 30.941L1094.12 36.53Z" stroke="#FBE5E7" stroke-width="1.15858" stroke-miterlimit="10"/>
</g>
<g clip-path="url(#clip13_1_9750)">
<path d="M1027.19 109.795C1034.87 109.795 1042.24 106.743 1047.67 101.311C1053.1 95.8792 1056.15 88.512 1056.15 80.8301H1027.19V109.795Z" fill="#E1F4E4"/>
</g>
<g clip-path="url(#clip14_1_9750)">
<path d="M1170.4 95.3124L1184.89 88.0712L1170.4 80.8301V95.3124Z" fill="#FCEEBC"/>
<path d="M1155.92 95.3124L1170.4 88.0712L1155.92 80.8301V95.3124Z" fill="#FCEEBC"/>
<path d="M1170.4 109.795L1184.89 102.553L1170.4 95.3123V109.795Z" fill="#FCEEBC"/>
<path d="M1155.92 109.795L1170.4 102.553L1155.92 95.3123V109.795Z" fill="#FCEEBC"/>
</g>
<g clip-path="url(#clip15_1_9750)">
<path d="M219.395 145.19C211.713 145.19 204.346 148.241 198.914 153.673C193.482 159.105 190.431 166.472 190.431 174.154H219.395V145.19Z" fill="#E1F4E4"/>
</g>
<g clip-path="url(#clip16_1_9750)">
<path d="M61.7005 209.56C61.7005 217.242 64.7521 224.609 70.184 230.041C75.6159 235.473 82.9832 238.524 90.665 238.524V209.56H61.7005Z" fill="#E1F4E4"/>
</g>
<g clip-path="url(#clip17_1_9750)">
<path d="M134.966 232.357L136.958 230.364L140.555 233.958L144.148 230.364L146.141 232.357L140.555 237.945L134.966 232.357Z" stroke="#FBE5E7" stroke-width="1.15858" stroke-miterlimit="10"/>
<path d="M134.966 222.244L136.958 220.252L140.555 223.845L144.148 220.252L146.141 222.244L140.555 227.833L134.966 222.244Z" stroke="#FBE5E7" stroke-width="1.15858" stroke-miterlimit="10"/>
<path d="M134.966 212.131L136.958 210.139L140.555 213.732L144.148 210.139L146.141 212.131L140.555 217.72L134.966 212.131Z" stroke="#FBE5E7" stroke-width="1.15858" stroke-miterlimit="10"/>
</g>
<g clip-path="url(#clip18_1_9750)">
<path d="M90.6648 273.93C82.9829 273.93 75.6156 276.982 70.1837 282.413C64.7518 287.845 61.7002 295.213 61.7002 302.895H90.6648V273.93Z" fill="#E1F4E4"/>
</g>
<g clip-path="url(#clip19_1_9750)">
<path d="M333.642 159.672L326.401 145.189L319.16 159.672H333.642Z" fill="#FCEEBC"/>
<path d="M333.642 174.154L326.401 159.672L319.16 174.154H333.642Z" fill="#FCEEBC"/>
<path d="M348.125 159.672L340.883 145.189L333.642 159.672H348.125Z" fill="#FCEEBC"/>
<path d="M348.125 174.154L340.883 159.672L333.642 174.154H348.125Z" fill="#FCEEBC"/>
</g>
<g clip-path="url(#clip20_1_9750)">
<path d="M269.282 209.56C261.284 209.56 254.8 216.044 254.8 224.042C254.8 232.04 261.284 238.524 269.282 238.524C277.281 238.524 283.765 232.04 283.765 224.042C283.765 216.044 277.281 209.56 269.282 209.56Z" fill="#F9EBDA"/>
</g>
<g clip-path="url(#clip21_1_9750)">
<path d="M328.056 232.357L330.048 230.364L333.645 233.958L337.238 230.364L339.23 232.357L333.645 237.945L328.056 232.357Z" stroke="#FBE5E7" stroke-width="1.15858" stroke-miterlimit="10"/>
<path d="M328.056 222.244L330.048 220.252L333.645 223.845L337.238 220.252L339.23 222.244L333.645 227.833L328.056 222.244Z" stroke="#FBE5E7" stroke-width="1.15858" stroke-miterlimit="10"/>
<path d="M328.056 212.131L330.048 210.139L333.645 213.732L337.238 210.139L339.23 212.131L333.645 217.72L328.056 212.131Z" stroke="#FBE5E7" stroke-width="1.15858" stroke-miterlimit="10"/>
</g>
<g clip-path="url(#clip22_1_9750)">
<path d="M383.531 273.93C383.531 281.612 386.582 288.979 392.014 294.411C397.446 299.843 404.813 302.895 412.495 302.895V273.93H383.531Z" fill="#E1F4E4"/>
</g>
<g clip-path="url(#clip23_1_9750)">
<path d="M454.058 154.085L456.051 156.077L452.457 159.674L456.051 163.268L454.058 165.26L448.47 159.674L454.058 154.085Z" stroke="#FBE5E7" stroke-width="1.15858" stroke-miterlimit="10"/>
<path d="M464.171 154.085L466.163 156.077L462.57 159.674L466.163 163.268L464.171 165.26L458.582 159.674L464.171 154.085Z" stroke="#FBE5E7" stroke-width="1.15858" stroke-miterlimit="10"/>
<path d="M474.284 154.085L476.276 156.077L472.683 159.674L476.276 163.268L474.284 165.26L468.695 159.674L474.284 154.085Z" stroke="#FBE5E7" stroke-width="1.15858" stroke-miterlimit="10"/>
</g>
<g clip-path="url(#clip24_1_9750)">
<path d="M526.743 159.672L541.225 152.431L526.743 145.189V159.672Z" fill="#FCEEBC"/>
<path d="M512.26 159.672L526.743 152.431L512.26 145.189V159.672Z" fill="#FCEEBC"/>
<path d="M526.743 174.154L541.225 166.913L526.743 159.672V174.154Z" fill="#FCEEBC"/>
<path d="M512.26 174.154L526.743 166.913L512.26 159.672V174.154Z" fill="#FCEEBC"/>
</g>
<g clip-path="url(#clip25_1_9750)">
<path d="M591.112 145.19C583.114 145.19 576.63 151.674 576.63 159.672C576.63 167.67 583.114 174.154 591.112 174.154C599.111 174.154 605.595 167.67 605.595 159.672C605.595 151.674 599.111 145.19 591.112 145.19Z" fill="#F9EBDA"/>
</g>
<g clip-path="url(#clip26_1_9750)">
<path d="M518.428 218.454L520.42 220.447L516.826 224.043L520.42 227.637L518.428 229.629L512.839 224.043L518.428 218.454Z" stroke="#FBE5E7" stroke-width="1.15858" stroke-miterlimit="10"/>
<path d="M528.54 218.454L530.532 220.447L526.939 224.043L530.532 227.637L528.54 229.629L522.951 224.043L528.54 218.454Z" stroke="#FBE5E7" stroke-width="1.15858" stroke-miterlimit="10"/>
<path d="M538.653 218.454L540.645 220.447L537.052 224.043L540.645 227.637L538.653 229.629L533.064 224.043L538.653 218.454Z" stroke="#FBE5E7" stroke-width="1.15858" stroke-miterlimit="10"/>
</g>
<g clip-path="url(#clip27_1_9750)">
<path d="M605.594 302.894C605.594 295.212 602.543 287.845 597.111 282.413C591.679 276.981 584.312 273.93 576.63 273.93V302.894H605.594Z" fill="#E1F4E4"/>
</g>
<g clip-path="url(#clip28_1_9750)">
<path d="M719.843 159.672L727.084 174.154L734.325 159.672H719.843Z" fill="#FCEEBC"/>
<path d="M719.843 145.19L727.084 159.672L734.325 145.19H719.843Z" fill="#FCEEBC"/>
<path d="M705.361 159.672L712.602 174.154L719.843 159.672H705.361Z" fill="#FCEEBC"/>
<path d="M705.361 145.19L712.602 159.672L719.843 145.19H705.361Z" fill="#FCEEBC"/>
</g>
<g clip-path="url(#clip29_1_9750)">
<path d="M769.72 159.672C769.72 167.67 776.204 174.154 784.203 174.154C792.201 174.154 798.685 167.67 798.685 159.672C798.685 151.673 792.201 145.189 784.203 145.189C776.204 145.189 769.72 151.673 769.72 159.672Z" fill="#F9EBDA"/>
</g>
<g clip-path="url(#clip30_1_9750)">
<path d="M714.255 232.357L716.247 230.364L719.844 233.958L723.438 230.364L725.43 232.357L719.844 237.945L714.255 232.357Z" stroke="#FBE5E7" stroke-width="1.15858" stroke-miterlimit="10"/>
<path d="M714.255 222.244L716.247 220.252L719.844 223.845L723.438 220.252L725.43 222.244L719.844 227.833L714.255 222.244Z" stroke="#FBE5E7" stroke-width="1.15858" stroke-miterlimit="10"/>
<path d="M714.255 212.131L716.247 210.139L719.844 213.732L723.438 210.139L725.43 212.131L719.844 217.72L714.255 212.131Z" stroke="#FBE5E7" stroke-width="1.15858" stroke-miterlimit="10"/>
</g>
<g clip-path="url(#clip31_1_9750)">
<path d="M848.572 159.672L863.055 152.431L848.572 145.189V159.672Z" fill="#FCEEBC"/>
<path d="M834.09 159.672L848.573 152.431L834.09 145.189V159.672Z" fill="#FCEEBC"/>
<path d="M848.572 174.154L863.055 166.913L848.572 159.672V174.154Z" fill="#FCEEBC"/>
<path d="M834.09 174.154L848.573 166.913L834.09 159.672V174.154Z" fill="#FCEEBC"/>
</g>
<g clip-path="url(#clip32_1_9750)">
<path d="M904.618 154.085L906.61 156.077L903.017 159.674L906.61 163.268L904.618 165.26L899.029 159.674L904.618 154.085Z" stroke="#FBE5E7" stroke-width="1.15858" stroke-miterlimit="10"/>
<path d="M914.731 154.085L916.723 156.077L913.129 159.674L916.723 163.268L914.731 165.26L909.142 159.674L914.731 154.085Z" stroke="#FBE5E7" stroke-width="1.15858" stroke-miterlimit="10"/>
<path d="M924.844 154.085L926.836 156.077L923.242 159.674L926.836 163.268L924.844 165.26L919.255 159.674L924.844 154.085Z" stroke="#FBE5E7" stroke-width="1.15858" stroke-miterlimit="10"/>
</g>
<g clip-path="url(#clip33_1_9750)">
<path d="M863.054 224.042C863.054 216.044 856.57 209.56 848.572 209.56C840.574 209.56 834.09 216.044 834.09 224.042C834.09 232.04 840.574 238.524 848.572 238.524C856.57 238.524 863.054 232.04 863.054 224.042Z" fill="#F9EBDA"/>
</g>
<g clip-path="url(#clip34_1_9750)">
<path d="M834.09 302.894C841.772 302.894 849.139 299.843 854.571 294.411C860.003 288.979 863.055 281.612 863.055 273.93H834.09V302.894Z" fill="#E1F4E4"/>
</g>
<g clip-path="url(#clip35_1_9750)">
<path d="M1114.35 165.259L1112.35 163.266L1115.95 159.67L1112.35 156.076L1114.35 154.084L1119.94 159.67L1114.35 165.259Z" stroke="#FBE5E7" stroke-width="1.15858" stroke-miterlimit="10"/>
<path d="M1104.23 165.259L1102.24 163.266L1105.84 159.67L1102.24 156.076L1104.23 154.084L1109.82 159.67L1104.23 165.259Z" stroke="#FBE5E7" stroke-width="1.15858" stroke-miterlimit="10"/>
<path d="M1094.12 165.259L1092.13 163.266L1095.72 159.67L1092.13 156.076L1094.12 154.084L1099.71 159.67L1094.12 165.259Z" stroke="#FBE5E7" stroke-width="1.15858" stroke-miterlimit="10"/>
</g>
<g clip-path="url(#clip36_1_9750)">
<path d="M1027.19 224.042C1027.19 232.04 1033.67 238.524 1041.67 238.524C1049.67 238.524 1056.15 232.04 1056.15 224.042C1056.15 216.044 1049.67 209.56 1041.67 209.56C1033.67 209.56 1027.19 216.044 1027.19 224.042Z" fill="#F9EBDA"/>
</g>
<g clip-path="url(#clip37_1_9750)">
<path d="M1027.19 273.93C1027.19 281.612 1030.24 288.979 1035.67 294.411C1041.11 299.843 1048.47 302.895 1056.15 302.895V273.93H1027.19Z" fill="#E1F4E4"/>
</g>
<g clip-path="url(#clip38_1_9750)">
<path d="M1234.76 159.672L1220.28 166.913L1234.76 174.154V159.672Z" fill="#FCEEBC"/>
<path d="M1249.24 159.672L1234.76 166.913L1249.24 174.154V159.672Z" fill="#FCEEBC"/>
<path d="M1234.76 145.19L1220.28 152.431L1234.76 159.672V145.19Z" fill="#FCEEBC"/>
<path d="M1249.24 145.19L1234.76 152.431L1249.24 159.672V145.19Z" fill="#FCEEBC"/>
</g>
<g clip-path="url(#clip39_1_9750)">
<path d="M1234.76 209.56C1226.76 209.56 1220.28 216.044 1220.28 224.042C1220.28 232.04 1226.76 238.524 1234.76 238.524C1242.76 238.524 1249.25 232.04 1249.25 224.042C1249.25 216.044 1242.76 209.56 1234.76 209.56Z" fill="#F9EBDA"/>
</g>
<g clip-path="url(#clip40_1_9750)">
<path d="M81.7702 344.458L79.7781 346.45L76.1812 342.857L72.5879 346.45L70.5957 344.458L76.1812 338.869L81.7702 344.458Z" stroke="#FBE5E7" stroke-width="1.15858" stroke-miterlimit="10"/>
<path d="M81.7702 354.569L79.7781 356.562L76.1812 352.968L72.5879 356.562L70.5957 354.569L76.1812 348.98L81.7702 354.569Z" stroke="#FBE5E7" stroke-width="1.15858" stroke-miterlimit="10"/>
<path d="M81.7702 364.682L79.7781 366.675L76.1812 363.081L72.5879 366.675L70.5957 364.682L76.1812 359.094L81.7702 364.682Z" stroke="#FBE5E7" stroke-width="1.15858" stroke-miterlimit="10"/>
</g>
<g clip-path="url(#clip41_1_9750)">
<path d="M148.867 358.358L146.875 356.366L150.469 352.769L146.875 349.176L148.867 347.184L154.456 352.769L148.867 358.358Z" stroke="#FBE5E7" stroke-width="1.15858" stroke-miterlimit="10"/>
<path d="M138.755 358.358L136.763 356.366L140.356 352.769L136.763 349.176L138.755 347.184L144.344 352.769L138.755 358.358Z" stroke="#FBE5E7" stroke-width="1.15858" stroke-miterlimit="10"/>
<path d="M128.642 358.358L126.65 356.366L130.243 352.769L126.65 349.176L128.642 347.184L134.23 352.769L128.642 358.358Z" stroke="#FBE5E7" stroke-width="1.15858" stroke-miterlimit="10"/>
</g>
<g clip-path="url(#clip42_1_9750)">
<path d="M719.842 352.771L712.601 338.289L705.36 352.771H719.842Z" fill="#FCEEBC"/>
<path d="M719.842 367.254L712.601 352.771L705.36 367.254H719.842Z" fill="#FCEEBC"/>
<path d="M734.325 352.771L727.083 338.289L719.842 352.771H734.325Z" fill="#FCEEBC"/>
<path d="M734.325 367.254L727.083 352.771L719.842 367.254H734.325Z" fill="#FCEEBC"/>
</g>
<g clip-path="url(#clip43_1_9750)">
<path d="M769.72 338.289C769.72 345.971 772.772 353.338 778.204 358.77C783.635 364.202 791.003 367.254 798.685 367.254V338.289H769.72Z" fill="#E1F4E4"/>
</g>
<g clip-path="url(#clip44_1_9750)">
<path d="M912.933 352.771L927.415 345.53L912.933 338.289V352.771Z" fill="#FCEEBC"/>
<path d="M898.451 352.771L912.933 345.53L898.451 338.289V352.771Z" fill="#FCEEBC"/>
<path d="M912.933 367.254L927.415 360.012L912.933 352.771V367.254Z" fill="#FCEEBC"/>
<path d="M898.451 367.254L912.933 360.012L898.451 352.771V367.254Z" fill="#FCEEBC"/>
</g>
<g clip-path="url(#clip45_1_9750)">
<path d="M1033.36 347.185L1035.35 349.177L1031.76 352.774L1035.35 356.367L1033.36 358.359L1027.77 352.774L1033.36 347.185Z" stroke="#FBE5E7" stroke-width="1.15858" stroke-miterlimit="10"/>
<path d="M1043.47 347.185L1045.46 349.177L1041.87 352.774L1045.46 356.367L1043.47 358.359L1037.88 352.774L1043.47 347.185Z" stroke="#FBE5E7" stroke-width="1.15858" stroke-miterlimit="10"/>
<path d="M1053.58 347.185L1055.58 349.177L1051.98 352.774L1055.58 356.367L1053.58 358.359L1048 352.774L1053.58 347.185Z" stroke="#FBE5E7" stroke-width="1.15858" stroke-miterlimit="10"/>
</g>
<g clip-path="url(#clip46_1_9750)">
<path d="M1106.03 352.772L1113.27 367.254L1120.51 352.772H1106.03Z" fill="#FCEEBC"/>
<path d="M1106.03 338.289L1113.27 352.772L1120.51 338.289H1106.03Z" fill="#FCEEBC"/>
<path d="M1091.55 352.772L1098.79 367.254L1106.03 352.772H1091.55Z" fill="#FCEEBC"/>
<path d="M1091.55 338.289L1098.79 352.772L1106.03 338.289H1091.55Z" fill="#FCEEBC"/>
</g>
<g clip-path="url(#clip47_1_9750)">
<path d="M1299.13 352.771L1313.61 345.53L1299.13 338.289V352.771Z" fill="#FCEEBC"/>
<path d="M1284.65 352.771L1299.13 345.53L1284.65 338.289V352.771Z" fill="#FCEEBC"/>
<path d="M1299.13 367.254L1313.61 360.012L1299.13 352.771V367.254Z" fill="#FCEEBC"/>
<path d="M1284.65 367.254L1299.13 360.012L1284.65 352.771V367.254Z" fill="#FCEEBC"/>
</g>
</g>
<defs>
<clipPath id="clip0_1_9750">
<rect width="28.9646" height="28.9646" fill="white" transform="translate(90.665 45.4238) rotate(180)"/>
</clipPath>
<clipPath id="clip1_1_9750">
<rect width="28.9646" height="28.9646" fill="white" transform="translate(155.035 45.4238) rotate(180)"/>
</clipPath>
<clipPath id="clip2_1_9750">
<rect width="28.9646" height="28.9646" fill="white" transform="translate(319.16 16.46)"/>
</clipPath>
<clipPath id="clip3_1_9750">
<rect width="28.9646" height="28.9646" fill="white" transform="translate(512.26 45.4238) rotate(-90)"/>
</clipPath>
<clipPath id="clip4_1_9750">
<rect width="28.9646" height="28.9646" fill="white" transform="translate(447.891 80.8301)"/>
</clipPath>
<clipPath id="clip5_1_9750">
<rect width="28.9646" height="28.9646" fill="white" transform="translate(605.595 80.8301) rotate(90)"/>
</clipPath>
<clipPath id="clip6_1_9750">
<rect width="28.9646" height="28.9646" fill="white" transform="translate(669.955 45.4238) rotate(180)"/>
</clipPath>
<clipPath id="clip7_1_9750">
<rect width="28.9646" height="28.9646" fill="white" transform="translate(705.36 45.4238) rotate(-90)"/>
</clipPath>
<clipPath id="clip8_1_9750">
<rect width="28.9646" height="28.9646" fill="white" transform="translate(705.36 80.8301)"/>
</clipPath>
<clipPath id="clip9_1_9750">
<rect width="28.9646" height="28.9646" fill="white" transform="translate(863.055 45.4238) rotate(180)"/>
</clipPath>
<clipPath id="clip10_1_9750">
<rect width="28.9646" height="28.9646" fill="white" transform="translate(927.415 45.4238) rotate(180)"/>
</clipPath>
<clipPath id="clip11_1_9750">
<rect width="28.9646" height="28.9646" fill="white" transform="translate(991.785 109.794) rotate(180)"/>
</clipPath>
<clipPath id="clip12_1_9750">
<rect width="28.9646" height="28.9646" fill="white" transform="translate(1120.51 16.46) rotate(90)"/>
</clipPath>
<clipPath id="clip13_1_9750">
<rect width="28.9646" height="28.9646" fill="white" transform="translate(1056.15 80.8301) rotate(90)"/>
</clipPath>
<clipPath id="clip14_1_9750">
<rect width="28.9646" height="28.9646" fill="white" transform="translate(1184.89 80.8301) rotate(90)"/>
</clipPath>
<clipPath id="clip15_1_9750">
<rect width="28.9646" height="28.9646" fill="white" transform="translate(190.431 174.154) rotate(-90)"/>
</clipPath>
<clipPath id="clip16_1_9750">
<rect width="28.9646" height="28.9646" fill="white" transform="translate(90.665 238.524) rotate(180)"/>
</clipPath>
<clipPath id="clip17_1_9750">
<rect width="28.9646" height="28.9646" fill="white" transform="translate(155.035 238.524) rotate(180)"/>
</clipPath>
<clipPath id="clip18_1_9750">
<rect width="28.9646" height="28.9646" fill="white" transform="translate(61.7002 302.895) rotate(-90)"/>
</clipPath>
<clipPath id="clip19_1_9750">
<rect width="28.9646" height="28.9646" fill="white" transform="translate(319.16 145.189)"/>
</clipPath>
<clipPath id="clip20_1_9750">
<rect width="28.9646" height="28.9646" fill="white" transform="translate(283.765 238.524) rotate(180)"/>
</clipPath>
<clipPath id="clip21_1_9750">
<rect width="28.9646" height="28.9646" fill="white" transform="translate(348.125 238.524) rotate(180)"/>
</clipPath>
<clipPath id="clip22_1_9750">
<rect width="28.9646" height="28.9646" fill="white" transform="translate(412.495 302.895) rotate(180)"/>
</clipPath>
<clipPath id="clip23_1_9750">
<rect width="28.9646" height="28.9646" fill="white" transform="translate(447.891 174.154) rotate(-90)"/>
</clipPath>
<clipPath id="clip24_1_9750">
<rect width="28.9646" height="28.9646" fill="white" transform="translate(541.225 145.189) rotate(90)"/>
</clipPath>
<clipPath id="clip25_1_9750">
<rect width="28.9646" height="28.9646" fill="white" transform="translate(605.595 174.154) rotate(180)"/>
</clipPath>
<clipPath id="clip26_1_9750">
<rect width="28.9646" height="28.9646" fill="white" transform="translate(512.26 238.524) rotate(-90)"/>
</clipPath>
<clipPath id="clip27_1_9750">
<rect width="28.9646" height="28.9646" fill="white" transform="translate(576.63 273.93)"/>
</clipPath>
<clipPath id="clip28_1_9750">
<rect width="28.9646" height="28.9646" fill="white" transform="translate(734.325 174.154) rotate(180)"/>
</clipPath>
<clipPath id="clip29_1_9750">
<rect width="28.9646" height="28.9646" fill="white" transform="translate(798.685 145.189) rotate(90)"/>
</clipPath>
<clipPath id="clip30_1_9750">
<rect width="28.9646" height="28.9646" fill="white" transform="translate(734.325 238.524) rotate(180)"/>
</clipPath>
<clipPath id="clip31_1_9750">
<rect width="28.9646" height="28.9646" fill="white" transform="translate(863.055 145.189) rotate(90)"/>
</clipPath>
<clipPath id="clip32_1_9750">
<rect width="28.9646" height="28.9646" fill="white" transform="translate(898.45 174.154) rotate(-90)"/>
</clipPath>
<clipPath id="clip33_1_9750">
<rect width="28.9646" height="28.9646" fill="white" transform="translate(834.09 238.524) rotate(-90)"/>
</clipPath>
<clipPath id="clip34_1_9750">
<rect width="28.9646" height="28.9646" fill="white" transform="translate(863.055 273.93) rotate(90)"/>
</clipPath>
<clipPath id="clip35_1_9750">
<rect width="28.9646" height="28.9646" fill="white" transform="translate(1120.51 145.189) rotate(90)"/>
</clipPath>
<clipPath id="clip36_1_9750">
<rect width="28.9646" height="28.9646" fill="white" transform="translate(1056.15 209.56) rotate(90)"/>
</clipPath>
<clipPath id="clip37_1_9750">
<rect width="28.9646" height="28.9646" fill="white" transform="translate(1056.15 302.895) rotate(180)"/>
</clipPath>
<clipPath id="clip38_1_9750">
<rect width="28.9646" height="28.9646" fill="white" transform="translate(1220.28 174.154) rotate(-90)"/>
</clipPath>
<clipPath id="clip39_1_9750">
<rect width="28.9646" height="28.9646" fill="white" transform="translate(1249.25 238.524) rotate(180)"/>
</clipPath>
<clipPath id="clip40_1_9750">
<rect width="28.9646" height="28.9646" fill="white" transform="translate(61.7002 338.289)"/>
</clipPath>
<clipPath id="clip41_1_9750">
<rect width="28.9646" height="28.9646" fill="white" transform="translate(155.035 338.289) rotate(90)"/>
</clipPath>
<clipPath id="clip42_1_9750">
<rect width="28.9646" height="28.9646" fill="white" transform="translate(705.36 338.289)"/>
</clipPath>
<clipPath id="clip43_1_9750">
<rect width="28.9646" height="28.9646" fill="white" transform="translate(798.685 367.254) rotate(180)"/>
</clipPath>
<clipPath id="clip44_1_9750">
<rect width="28.9646" height="28.9646" fill="white" transform="translate(927.415 338.289) rotate(90)"/>
</clipPath>
<clipPath id="clip45_1_9750">
<rect width="28.9646" height="28.9646" fill="white" transform="translate(1027.19 367.254) rotate(-90)"/>
</clipPath>
<clipPath id="clip46_1_9750">
<rect width="28.9646" height="28.9646" fill="white" transform="translate(1120.51 367.254) rotate(180)"/>
</clipPath>
<clipPath id="clip47_1_9750">
<rect width="28.9646" height="28.9646" fill="white" transform="translate(1313.61 338.289) rotate(90)"/>
</clipPath>
</defs>
</svg>
