<svg width="1440" height="400" viewBox="0 0 1440 400" fill="none" xmlns="http://www.w3.org/2000/svg">
<mask id="mask0_1_10879" style="mask-type:alpha" maskUnits="userSpaceOnUse" x="0" y="0" width="1440" height="400">
<rect width="1440" height="400" fill="#F5F8E6"/>
</mask>
<g mask="url(#mask0_1_10879)">
<g clip-path="url(#clip0_1_10879)">
<path d="M204.066 45.796L208.301 41.2584L204.066 36.7223L208.301 32.1847L204.066 27.6465L208.301 23.1081L204.066 18.5693" stroke="#FBE5E7" stroke-width="1.73787" stroke-linecap="round" stroke-linejoin="round"/>
<path d="M201.523 18.5693V45.796" stroke="#FBE5E7" stroke-width="1.73787" stroke-linecap="round" stroke-linejoin="round"/>
</g>
<g clip-path="url(#clip1_1_10879)">
<path d="M401.632 175.395V164.534H412.494V157.292H401.632V146.431H394.391V157.292H383.53V164.534H394.391V175.395H401.632Z" fill="#FCEEBC"/>
</g>
<g clip-path="url(#clip2_1_10879)">
<path d="M513.129 160.066L517.666 164.301L522.203 160.066L526.74 164.301L531.278 160.066L535.817 164.301L540.355 160.066" stroke="#FBE5E7" stroke-width="1.73787" stroke-linecap="round" stroke-linejoin="round"/>
<path d="M540.355 157.523H513.129" stroke="#FBE5E7" stroke-width="1.73787" stroke-linecap="round" stroke-linejoin="round"/>
</g>
<g clip-path="url(#clip3_1_10879)">
<path d="M576.629 164.533H587.491V175.395H594.732V164.533H605.594V157.292H594.732V146.43H587.491V157.292H576.629V164.533Z" fill="#FCEEBC"/>
</g>
<g clip-path="url(#clip4_1_10879)">
<path d="M719.842 17.7002C716.001 17.7002 712.317 19.226 709.601 21.942C706.885 24.6579 705.359 28.3415 705.359 32.1825C705.359 36.0234 706.885 39.707 709.601 42.423C712.317 45.139 716.001 46.6648 719.842 46.6648H734.324V32.1825C734.324 28.3417 732.798 24.6583 730.082 21.9424C727.366 19.2265 723.682 17.7006 719.842 17.7002V17.7002ZM727.083 39.4236H719.842C718.409 39.4236 717.009 38.9989 715.819 38.2033C714.628 37.4076 713.7 36.2767 713.152 34.9535C712.604 33.6304 712.46 32.1744 712.74 30.7698C713.019 29.3652 713.709 28.0749 714.721 27.0622C715.734 26.0495 717.024 25.3599 718.429 25.0805C719.834 24.8011 721.29 24.9445 722.613 25.4925C723.936 26.0406 725.067 26.9687 725.862 28.1595C726.658 29.3503 727.083 30.7503 727.083 32.1825V39.4236Z" fill="#E1F4E4"/>
</g>
<g clip-path="url(#clip5_1_10879)">
<path d="M769.719 100.173H780.581V111.035H787.822V100.173H798.684V92.9323H787.822V82.0706H780.581V92.9323H769.719V100.173Z" fill="#FCEEBC"/>
</g>
<g clip-path="url(#clip6_1_10879)">
<path d="M705.359 160.912C705.359 164.753 706.885 168.437 709.601 171.153C712.317 173.869 716.001 175.395 719.842 175.395C723.683 175.395 727.366 173.869 730.082 171.153C732.798 168.437 734.324 164.753 734.324 160.912V146.43H719.842C716.001 146.43 712.317 147.956 709.602 150.672C706.886 153.388 705.36 157.071 705.359 160.912V160.912ZM727.083 153.671V160.912C727.083 162.344 726.658 163.744 725.862 164.935C725.067 166.126 723.936 167.054 722.613 167.602C721.29 168.15 719.834 168.294 718.429 168.014C717.024 167.735 715.734 167.045 714.721 166.033C713.709 165.02 713.019 163.73 712.74 162.325C712.46 160.92 712.604 159.464 713.152 158.141C713.7 156.818 714.628 155.687 715.819 154.891C717.009 154.096 718.409 153.671 719.842 153.671H727.083Z" fill="#E1F4E4"/>
</g>
<g clip-path="url(#clip7_1_10879)">
<path d="M991.783 82.0706V83.2066C984.405 83.2149 977.331 86.1494 972.114 91.3665C966.897 96.5836 963.963 103.657 963.954 111.035H962.818C962.827 103.356 965.881 95.9937 971.311 90.5637C976.741 85.1336 984.104 82.0792 991.783 82.0706Z" fill="#F9EBDA"/>
<path d="M991.783 88.3895V89.5145C980.458 89.5145 971.242 99.1692 971.242 111.035H970.117C970.117 98.5482 979.836 88.3895 991.783 88.3895Z" fill="#F9EBDA"/>
<path d="M991.782 95.9988V97.1553C988.103 97.1594 984.575 98.623 981.972 101.225C979.37 103.827 977.907 107.355 977.903 111.035H976.746C976.751 107.049 978.336 103.227 981.155 100.408C983.974 97.5889 987.796 96.0033 991.782 95.9988Z" fill="#F9EBDA"/>
<path d="M991.784 103.536V104.647C990.091 104.649 988.467 105.322 987.269 106.52C986.072 107.718 985.398 109.341 985.396 111.035H984.285C984.287 109.047 985.078 107.141 986.484 105.735C987.89 104.329 989.796 103.538 991.784 103.536Z" fill="#F9EBDA"/>
</g>
<g clip-path="url(#clip8_1_10879)">
<path d="M912.085 174.527L916.32 169.989L912.085 165.453L916.32 160.915L912.085 156.377L916.32 151.839L912.085 147.3" stroke="#FBE5E7" stroke-width="1.73787" stroke-linecap="round" stroke-linejoin="round"/>
<path d="M909.543 147.3V174.526" stroke="#FBE5E7" stroke-width="1.73787" stroke-linecap="round" stroke-linejoin="round"/>
</g>
<g clip-path="url(#clip9_1_10879)">
<path d="M991.783 157.292H980.921V146.431H973.68V157.292H962.818V164.534H973.68V175.395H980.921V164.534H991.783V157.292Z" fill="#FCEEBC"/>
</g>
<g clip-path="url(#clip10_1_10879)">
<path d="M1091.55 32.1828C1091.55 36.0237 1093.07 39.7073 1095.79 42.4233C1098.51 45.1392 1102.19 46.665 1106.03 46.665C1109.87 46.665 1113.56 45.1392 1116.27 42.4233C1118.99 39.7073 1120.51 36.0237 1120.51 32.1828V17.7005H1106.03C1102.19 17.7009 1098.51 19.2268 1095.79 21.9427C1093.08 24.6585 1091.55 28.3419 1091.55 32.1828V32.1828ZM1113.27 24.9416V32.1828C1113.27 33.6149 1112.85 35.0149 1112.05 36.2057C1111.26 37.3965 1110.13 38.3246 1108.8 38.8727C1107.48 39.4208 1106.02 39.5642 1104.62 39.2848C1103.21 39.0054 1101.92 38.3157 1100.91 37.303C1099.9 36.2903 1099.21 35.0001 1098.93 33.5954C1098.65 32.1908 1098.79 30.7348 1099.34 29.4117C1099.89 28.0885 1100.82 26.9576 1102.01 26.162C1103.2 25.3663 1104.6 24.9416 1106.03 24.9416H1113.27Z" fill="#E1F4E4"/>
</g>
<g clip-path="url(#clip11_1_10879)">
<path d="M1091.55 111.035V109.899C1098.93 109.891 1106 106.956 1111.22 101.739C1116.43 96.5219 1119.37 89.4484 1119.38 82.0703H1120.51C1120.51 89.7495 1117.45 97.1118 1112.02 102.542C1106.59 107.972 1099.23 111.026 1091.55 111.035Z" fill="#F9EBDA"/>
<path d="M1091.55 104.716V103.591C1102.87 103.591 1112.09 93.9362 1112.09 82.0703H1113.21C1113.21 94.5572 1103.5 104.716 1091.55 104.716Z" fill="#F9EBDA"/>
<path d="M1091.55 97.1067V95.9501C1095.23 95.9461 1098.76 94.4824 1101.36 91.8803C1103.96 89.2783 1105.43 85.7502 1105.43 82.0703H1106.59C1106.58 86.0568 1105 89.8788 1102.18 92.6976C1099.36 95.5165 1095.54 97.1022 1091.55 97.1067Z" fill="#F9EBDA"/>
<path d="M1091.55 89.5695V88.4587C1093.24 88.4568 1094.87 87.7831 1096.06 86.5855C1097.26 85.3878 1097.93 83.764 1097.94 82.0703H1099.05C1099.04 84.0585 1098.25 85.9646 1096.85 87.3705C1095.44 88.7764 1093.54 89.5672 1091.55 89.5695Z" fill="#F9EBDA"/>
</g>
<g clip-path="url(#clip12_1_10879)">
<path d="M1120.51 160.913C1120.51 157.072 1118.99 153.388 1116.27 150.672C1113.56 147.956 1109.87 146.431 1106.03 146.431C1102.19 146.431 1098.51 147.956 1095.79 150.672C1093.07 153.388 1091.55 157.072 1091.55 160.913V175.395H1106.03C1109.87 175.395 1113.56 173.869 1116.27 171.153C1118.99 168.437 1120.51 164.754 1120.51 160.913V160.913ZM1098.79 168.154V160.913C1098.79 159.481 1099.21 158.081 1100.01 156.89C1100.81 155.699 1101.94 154.771 1103.26 154.223C1104.58 153.675 1106.04 153.532 1107.44 153.811C1108.85 154.09 1110.14 154.78 1111.15 155.793C1112.16 156.805 1112.85 158.096 1113.13 159.5C1113.41 160.905 1113.27 162.361 1112.72 163.684C1112.17 165.007 1111.25 166.138 1110.05 166.934C1108.86 167.729 1107.46 168.154 1106.03 168.154H1098.79Z" fill="#E1F4E4"/>
</g>
<g clip-path="url(#clip13_1_10879)">
<path d="M1155.92 164.533H1166.78V175.395H1174.02V164.533H1184.88V157.292H1174.02V146.43H1166.78V157.292H1155.92V164.533Z" fill="#FCEEBC"/>
</g>
<g clip-path="url(#clip14_1_10879)">
<path d="M1285.52 31.3361L1290.06 35.5713L1294.59 31.3361L1299.13 35.5713L1303.67 31.3361L1308.21 35.5713L1312.74 31.3361" stroke="#FBE5E7" stroke-width="1.73787" stroke-linecap="round" stroke-linejoin="round"/>
<path d="M1312.74 28.7939L1285.52 28.7939" stroke="#FBE5E7" stroke-width="1.73787" stroke-linecap="round" stroke-linejoin="round"/>
</g>
<g clip-path="url(#clip15_1_10879)">
<path d="M1299.13 146.431C1295.29 146.431 1291.61 147.956 1288.89 150.672C1286.17 153.388 1284.65 157.072 1284.65 160.913C1284.65 164.754 1286.17 168.438 1288.89 171.153C1291.61 173.869 1295.29 175.395 1299.13 175.395H1313.61V160.913C1313.61 157.072 1312.09 153.389 1309.37 150.673C1306.65 147.957 1302.97 146.431 1299.13 146.431V146.431ZM1306.37 168.154H1299.13C1297.7 168.154 1296.3 167.729 1295.11 166.934C1293.92 166.138 1292.99 165.007 1292.44 163.684C1291.89 162.361 1291.75 160.905 1292.03 159.5C1292.31 158.096 1293 156.805 1294.01 155.793C1295.02 154.78 1296.31 154.09 1297.72 153.811C1299.12 153.532 1300.58 153.675 1301.9 154.223C1303.22 154.771 1304.36 155.699 1305.15 156.89C1305.95 158.081 1306.37 159.481 1306.37 160.913V168.154Z" fill="#E1F4E4"/>
</g>
<g clip-path="url(#clip16_1_10879)">
<path d="M1349.01 164.533H1359.87V175.395H1367.11V164.533H1377.97V157.292H1367.11V146.43H1359.87V157.292H1349.01V164.533Z" fill="#FCEEBC"/>
</g>
<g clip-path="url(#clip17_1_10879)">
<path d="M90.6638 286.022H79.8021V275.16H72.5609V286.022H61.6992V293.263H72.5609V304.125H79.8021V293.263H90.6638V286.022Z" fill="#FCEEBC"/>
</g>
<g clip-path="url(#clip18_1_10879)">
<path d="M219.394 286.022H208.533V275.16H201.291V286.022H190.43V293.263H201.291V304.125H208.533V293.263H219.394V286.022Z" fill="#FCEEBC"/>
</g>
<g clip-path="url(#clip19_1_10879)">
<path d="M72.5609 339.53V350.392H61.6992V357.633H72.5609V368.494H79.8021V357.633H90.6638V350.392H79.8021V339.53H72.5609Z" fill="#FCEEBC"/>
</g>
<g clip-path="url(#clip20_1_10879)">
<path d="M126.068 354.012C126.068 357.853 127.594 361.536 130.31 364.252C133.026 366.968 136.71 368.494 140.551 368.494C144.392 368.494 148.075 366.968 150.791 364.252C153.507 361.536 155.033 357.853 155.033 354.012V339.53H140.551C136.71 339.53 133.026 341.056 130.311 343.772C127.595 346.488 126.069 350.171 126.068 354.012V354.012ZM147.792 346.771V354.012C147.792 355.444 147.367 356.844 146.571 358.035C145.776 359.226 144.645 360.154 143.322 360.702C141.999 361.25 140.543 361.393 139.138 361.114C137.733 360.834 136.443 360.145 135.43 359.132C134.418 358.119 133.728 356.829 133.449 355.425C133.169 354.02 133.313 352.564 133.861 351.241C134.409 349.918 135.337 348.787 136.528 347.991C137.718 347.195 139.118 346.771 140.551 346.771H147.792Z" fill="#E1F4E4"/>
</g>
<g clip-path="url(#clip21_1_10879)">
<path d="M383.53 304.125V302.989C390.908 302.98 397.981 300.046 403.198 294.829C408.415 289.612 411.35 282.538 411.358 275.16H412.494C412.485 282.839 409.431 290.202 404.001 295.632C398.571 301.062 391.209 304.116 383.53 304.125Z" fill="#F9EBDA"/>
<path d="M383.53 297.806V296.681C394.855 296.681 404.071 287.026 404.071 275.16H405.195C405.195 287.647 395.477 297.806 383.53 297.806Z" fill="#F9EBDA"/>
<path d="M383.53 290.197V289.04C387.21 289.036 390.738 287.572 393.34 284.97C395.942 282.368 397.406 278.84 397.41 275.16H398.566C398.562 279.147 396.976 282.969 394.157 285.787C391.338 288.606 387.517 290.192 383.53 290.197Z" fill="#F9EBDA"/>
<path d="M383.528 282.659V281.549C385.222 281.547 386.846 280.873 388.043 279.675C389.241 278.478 389.915 276.854 389.917 275.16H391.027C391.025 277.148 390.234 279.054 388.828 280.46C387.422 281.866 385.516 282.657 383.528 282.659Z" fill="#F9EBDA"/>
</g>
<g clip-path="url(#clip22_1_10879)">
<path d="M332.796 367.625L337.031 363.088L332.796 358.551L337.031 354.014L332.796 349.476L337.031 344.937L332.796 340.398" stroke="#FBE5E7" stroke-width="1.73787" stroke-linecap="round" stroke-linejoin="round"/>
<path d="M330.254 340.398V367.625" stroke="#FBE5E7" stroke-width="1.73787" stroke-linecap="round" stroke-linejoin="round"/>
</g>
<g clip-path="url(#clip23_1_10879)">
<path d="M540.354 226.129L535.816 221.894L531.28 226.129L526.742 221.894L522.204 226.129L517.666 221.894L513.127 226.129" stroke="#FBE5E7" stroke-width="1.73787" stroke-linecap="round" stroke-linejoin="round"/>
<path d="M513.127 228.671H540.354" stroke="#FBE5E7" stroke-width="1.73787" stroke-linecap="round" stroke-linejoin="round"/>
</g>
<g clip-path="url(#clip24_1_10879)">
<path d="M476.855 286.022H465.993V275.16H458.752V286.022H447.891V293.263H458.752V304.125H465.993V293.263H476.855V286.022Z" fill="#FCEEBC"/>
</g>
<g clip-path="url(#clip25_1_10879)">
<path d="M541.222 275.16V276.296C533.844 276.305 526.771 279.239 521.554 284.456C516.337 289.673 513.402 296.747 513.394 304.125H512.258C512.266 296.446 515.321 289.084 520.751 283.654C526.181 278.223 533.543 275.169 541.222 275.16Z" fill="#F9EBDA"/>
<path d="M541.222 281.479V282.604C529.897 282.604 520.681 292.259 520.681 304.125H519.557C519.557 291.638 529.275 281.479 541.222 281.479Z" fill="#F9EBDA"/>
<path d="M541.222 289.089V290.245C537.542 290.249 534.014 291.713 531.412 294.315C528.81 296.917 527.346 300.445 527.342 304.125H526.186C526.19 300.138 527.776 296.317 530.595 293.498C533.413 290.679 537.235 289.093 541.222 289.089Z" fill="#F9EBDA"/>
<path d="M541.222 296.626V297.737C539.528 297.738 537.904 298.412 536.707 299.61C535.509 300.807 534.835 302.431 534.833 304.125H533.723C533.725 302.137 534.516 300.231 535.922 298.825C537.328 297.419 539.234 296.628 541.222 296.626Z" fill="#F9EBDA"/>
</g>
<g clip-path="url(#clip26_1_10879)">
<path d="M513.129 353.165L517.666 357.4L522.203 353.165L526.74 357.4L531.278 353.165L535.817 357.4L540.355 353.165" stroke="#FBE5E7" stroke-width="1.73787" stroke-linecap="round" stroke-linejoin="round"/>
<path d="M540.355 350.623H513.129" stroke="#FBE5E7" stroke-width="1.73787" stroke-linecap="round" stroke-linejoin="round"/>
</g>
<g clip-path="url(#clip27_1_10879)">
<path d="M719.842 239.765C723.683 239.765 727.367 238.239 730.082 235.523C732.798 232.807 734.324 229.123 734.324 225.282C734.324 221.441 732.798 217.758 730.082 215.042C727.367 212.326 723.683 210.8 719.842 210.8H705.36V225.282C705.36 229.123 706.886 232.807 709.602 235.522C712.318 238.238 716.001 239.764 719.842 239.765V239.765ZM712.601 218.041H719.842C721.274 218.041 722.674 218.466 723.865 219.262C725.056 220.057 725.984 221.188 726.532 222.511C727.08 223.834 727.223 225.29 726.944 226.695C726.665 228.1 725.975 229.39 724.962 230.403C723.95 231.415 722.659 232.105 721.255 232.384C719.85 232.664 718.394 232.52 717.071 231.972C715.748 231.424 714.617 230.496 713.821 229.305C713.025 228.115 712.601 226.715 712.601 225.282V218.041Z" fill="#E1F4E4"/>
</g>
<g clip-path="url(#clip28_1_10879)">
<path d="M769.719 357.633H780.581V368.494H787.822V357.633H798.684V350.392H787.822V339.53H780.581V350.392H769.719V357.633Z" fill="#FCEEBC"/>
</g>
<g clip-path="url(#clip29_1_10879)">
<path d="M913.778 340.399L909.543 344.936L913.778 349.472L909.543 354.01L913.778 358.548L909.543 363.086L913.778 367.625" stroke="#FBE5E7" stroke-width="1.73787" stroke-linecap="round" stroke-linejoin="round"/>
<path d="M916.32 367.625V340.399" stroke="#FBE5E7" stroke-width="1.73787" stroke-linecap="round" stroke-linejoin="round"/>
</g>
<g clip-path="url(#clip30_1_10879)">
<path d="M973.68 339.53V350.391H962.818V357.632H973.68V368.494H980.921V357.632H991.783V350.391H980.921V339.53H973.68Z" fill="#FCEEBC"/>
</g>
<g clip-path="url(#clip31_1_10879)">
<path d="M1106.03 368.494C1109.87 368.494 1113.56 366.969 1116.27 364.253C1118.99 361.537 1120.51 357.853 1120.51 354.012C1120.51 350.171 1118.99 346.488 1116.27 343.772C1113.56 341.056 1109.87 339.53 1106.03 339.53H1091.55V354.012C1091.55 357.853 1093.08 361.536 1095.79 364.252C1098.51 366.968 1102.19 368.494 1106.03 368.494V368.494ZM1098.79 346.771H1106.03C1107.46 346.771 1108.86 347.196 1110.05 347.991C1111.25 348.787 1112.17 349.918 1112.72 351.241C1113.27 352.564 1113.41 354.02 1113.13 355.425C1112.85 356.829 1112.16 358.12 1111.15 359.132C1110.14 360.145 1108.85 360.835 1107.44 361.114C1106.04 361.394 1104.58 361.25 1103.26 360.702C1101.94 360.154 1100.81 359.226 1100.01 358.035C1099.21 356.844 1098.79 355.444 1098.79 354.012V346.771Z" fill="#E1F4E4"/>
</g>
<g clip-path="url(#clip32_1_10879)">
<path d="M1284.65 225.282C1284.65 229.123 1286.17 232.807 1288.89 235.523C1291.61 238.239 1295.29 239.765 1299.13 239.765C1302.97 239.765 1306.66 238.239 1309.37 235.523C1312.09 232.807 1313.61 229.123 1313.61 225.282V210.8H1299.13C1295.29 210.8 1291.61 212.326 1288.89 215.042C1286.17 217.758 1284.65 221.442 1284.65 225.282V225.282ZM1306.37 218.041V225.282C1306.37 226.715 1305.95 228.115 1305.15 229.305C1304.36 230.496 1303.22 231.424 1301.9 231.972C1300.58 232.52 1299.12 232.664 1297.72 232.384C1296.31 232.105 1295.02 231.415 1294.01 230.403C1293 229.39 1292.31 228.1 1292.03 226.695C1291.75 225.29 1291.89 223.834 1292.44 222.511C1292.99 221.188 1293.92 220.057 1295.11 219.262C1296.3 218.466 1297.7 218.041 1299.13 218.041H1306.37Z" fill="#E1F4E4"/>
</g>
<g clip-path="url(#clip33_1_10879)">
<path d="M1349.01 293.263H1359.87V304.125H1367.11V293.263H1377.97V286.022H1367.11V275.16H1359.87V286.022H1349.01V293.263Z" fill="#FCEEBC"/>
</g>
<g clip-path="url(#clip34_1_10879)">
<path d="M1220.28 357.633H1231.14V368.494H1238.38V357.633H1249.24V350.392H1238.38V339.53H1231.14V350.392H1220.28V357.633Z" fill="#FCEEBC"/>
</g>
<g clip-path="url(#clip35_1_10879)">
<path d="M1313.61 354.012C1313.61 350.171 1312.09 346.487 1309.37 343.771C1306.66 341.055 1302.97 339.529 1299.13 339.529C1295.29 339.529 1291.61 341.055 1288.89 343.771C1286.17 346.487 1284.65 350.171 1284.65 354.012V368.494H1299.13C1302.97 368.493 1306.66 366.968 1309.37 364.252C1312.09 361.536 1313.61 357.852 1313.61 354.012V354.012ZM1291.89 361.253V354.012C1291.89 352.579 1292.31 351.179 1293.11 349.989C1293.91 348.798 1295.04 347.87 1296.36 347.322C1297.68 346.774 1299.14 346.63 1300.54 346.91C1301.95 347.189 1303.24 347.879 1304.25 348.891C1305.26 349.904 1305.95 351.194 1306.23 352.599C1306.51 354.004 1306.37 355.46 1305.82 356.783C1305.27 358.106 1304.34 359.237 1303.15 360.032C1301.96 360.828 1300.56 361.253 1299.13 361.253H1291.89Z" fill="#E1F4E4"/>
</g>
</g>
<defs>
<clipPath id="clip0_1_10879">
<rect width="28.9646" height="28.9646" fill="white" transform="translate(219.395 17.7002) rotate(90)"/>
</clipPath>
<clipPath id="clip1_1_10879">
<rect width="28.9646" height="28.9646" fill="white" transform="translate(412.494 146.431) rotate(90)"/>
</clipPath>
<clipPath id="clip2_1_10879">
<rect width="28.9646" height="28.9646" fill="white" transform="translate(541.225 175.395) rotate(180)"/>
</clipPath>
<clipPath id="clip3_1_10879">
<rect width="28.9646" height="28.9646" fill="white" transform="translate(605.594 175.395) rotate(180)"/>
</clipPath>
<clipPath id="clip4_1_10879">
<rect width="28.9646" height="28.9646" fill="white" transform="translate(705.359 17.7002)"/>
</clipPath>
<clipPath id="clip5_1_10879">
<rect width="28.9646" height="28.9646" fill="white" transform="translate(798.684 111.035) rotate(180)"/>
</clipPath>
<clipPath id="clip6_1_10879">
<rect width="28.9646" height="28.9646" fill="white" transform="translate(705.359 175.395) rotate(-90)"/>
</clipPath>
<clipPath id="clip7_1_10879">
<rect width="28.9646" height="28.9646" fill="white" transform="translate(962.818 111.035) rotate(-90)"/>
</clipPath>
<clipPath id="clip8_1_10879">
<rect width="28.9646" height="28.9646" fill="white" transform="translate(927.414 146.431) rotate(90)"/>
</clipPath>
<clipPath id="clip9_1_10879">
<rect width="28.9646" height="28.9646" fill="white" transform="translate(962.818 146.431)"/>
</clipPath>
<clipPath id="clip10_1_10879">
<rect width="28.9646" height="28.9646" fill="white" transform="translate(1091.55 46.665) rotate(-90)"/>
</clipPath>
<clipPath id="clip11_1_10879">
<rect width="28.9646" height="28.9646" fill="white" transform="translate(1120.51 82.0703) rotate(90)"/>
</clipPath>
<clipPath id="clip12_1_10879">
<rect width="28.9646" height="28.9646" fill="white" transform="translate(1120.51 146.431) rotate(90)"/>
</clipPath>
<clipPath id="clip13_1_10879">
<rect width="28.9646" height="28.9646" fill="white" transform="translate(1184.88 175.395) rotate(180)"/>
</clipPath>
<clipPath id="clip14_1_10879">
<rect width="28.9646" height="28.9646" fill="white" transform="translate(1313.61 46.665) rotate(180)"/>
</clipPath>
<clipPath id="clip15_1_10879">
<rect width="28.9646" height="28.9646" fill="white" transform="translate(1284.65 146.431)"/>
</clipPath>
<clipPath id="clip16_1_10879">
<rect width="28.9646" height="28.9646" fill="white" transform="translate(1377.97 175.395) rotate(180)"/>
</clipPath>
<clipPath id="clip17_1_10879">
<rect width="28.9646" height="28.9646" fill="white" transform="translate(61.6992 275.16)"/>
</clipPath>
<clipPath id="clip18_1_10879">
<rect width="28.9646" height="28.9646" fill="white" transform="translate(190.43 275.16)"/>
</clipPath>
<clipPath id="clip19_1_10879">
<rect width="28.9646" height="28.9646" fill="white" transform="translate(61.6992 368.494) rotate(-90)"/>
</clipPath>
<clipPath id="clip20_1_10879">
<rect width="28.9646" height="28.9646" fill="white" transform="translate(126.068 368.494) rotate(-90)"/>
</clipPath>
<clipPath id="clip21_1_10879">
<rect width="28.9646" height="28.9646" fill="white" transform="translate(412.494 275.16) rotate(90)"/>
</clipPath>
<clipPath id="clip22_1_10879">
<rect width="28.9646" height="28.9646" fill="white" transform="translate(348.125 339.529) rotate(90)"/>
</clipPath>
<clipPath id="clip23_1_10879">
<rect width="28.9646" height="28.9646" fill="white" transform="translate(512.258 210.8)"/>
</clipPath>
<clipPath id="clip24_1_10879">
<rect width="28.9646" height="28.9646" fill="white" transform="translate(447.891 275.16)"/>
</clipPath>
<clipPath id="clip25_1_10879">
<rect width="28.9646" height="28.9646" fill="white" transform="translate(512.258 304.125) rotate(-90)"/>
</clipPath>
<clipPath id="clip26_1_10879">
<rect width="28.9646" height="28.9646" fill="white" transform="translate(541.225 368.494) rotate(180)"/>
</clipPath>
<clipPath id="clip27_1_10879">
<rect width="28.9646" height="28.9646" fill="white" transform="translate(734.324 239.765) rotate(180)"/>
</clipPath>
<clipPath id="clip28_1_10879">
<rect width="28.9646" height="28.9646" fill="white" transform="translate(798.684 368.494) rotate(180)"/>
</clipPath>
<clipPath id="clip29_1_10879">
<rect width="28.9646" height="28.9646" fill="white" transform="translate(898.449 368.494) rotate(-90)"/>
</clipPath>
<clipPath id="clip30_1_10879">
<rect width="28.9646" height="28.9646" fill="white" transform="translate(962.818 368.494) rotate(-90)"/>
</clipPath>
<clipPath id="clip31_1_10879">
<rect width="28.9646" height="28.9646" fill="white" transform="translate(1120.51 368.494) rotate(180)"/>
</clipPath>
<clipPath id="clip32_1_10879">
<rect width="28.9646" height="28.9646" fill="white" transform="translate(1284.65 239.765) rotate(-90)"/>
</clipPath>
<clipPath id="clip33_1_10879">
<rect width="28.9646" height="28.9646" fill="white" transform="translate(1377.97 304.125) rotate(180)"/>
</clipPath>
<clipPath id="clip34_1_10879">
<rect width="28.9646" height="28.9646" fill="white" transform="translate(1249.24 368.494) rotate(180)"/>
</clipPath>
<clipPath id="clip35_1_10879">
<rect width="28.9646" height="28.9646" fill="white" transform="translate(1313.61 339.529) rotate(90)"/>
</clipPath>
</defs>
</svg>
