<svg width="1440" height="400" viewBox="0 0 1440 400" fill="none" xmlns="http://www.w3.org/2000/svg">
<mask id="mask0_1_12485" style="mask-type:alpha" maskUnits="userSpaceOnUse" x="0" y="0" width="1440" height="400">
<rect width="1440" height="400" fill="#F5F8E6"/>
</mask>
<g mask="url(#mask0_1_12485)">
<g clip-path="url(#clip0_1_12485)">
<path d="M204.912 111.035H219.395V82.0706H204.912V111.035Z" fill="#E1F4E4"/>
</g>
<g clip-path="url(#clip1_1_12485)">
<path d="M218.477 151.458L214.084 151.469L212.244 151.471L207.846 147.309L214.077 147.3L218.477 151.458Z" stroke="#FBE5E7" stroke-width="1.73787" stroke-linecap="round" stroke-linejoin="round"/>
<path d="M218.476 151.457L218.522 174.526H195.711L195.703 170.366L195.697 167.948L212.274 167.915L212.243 151.471L214.083 151.468L218.476 151.457Z" stroke="#FBE5E7" stroke-width="1.73787" stroke-linecap="round" stroke-linejoin="round"/>
<path d="M212.275 167.915L195.698 167.948L191.301 164.139L207.878 164.105L212.275 167.915Z" stroke="#FBE5E7" stroke-width="1.73787" stroke-linecap="round" stroke-linejoin="round"/>
<path d="M212.244 151.471L212.276 167.916L207.878 164.106L207.846 147.31L212.244 151.471Z" stroke="#FBE5E7" stroke-width="1.73787" stroke-linecap="round" stroke-linejoin="round"/>
<path d="M195.698 167.948L195.703 170.366L195.712 174.526L191.312 170.373L191.301 164.139L195.698 167.948Z" stroke="#FBE5E7" stroke-width="1.73787" stroke-linecap="round" stroke-linejoin="round"/>
</g>
<g clip-path="url(#clip2_1_12485)">
<path d="M412.494 96.5526V82.0703H383.53V96.5526H412.494Z" fill="#E1F4E4"/>
</g>
<g clip-path="url(#clip3_1_12485)">
<path d="M254.799 146.431V175.395L283.764 146.431" fill="#FCEEBC"/>
</g>
<g clip-path="url(#clip4_1_12485)">
<path d="M319.16 146.431V175.395L348.125 146.431" fill="#FCEEBC"/>
</g>
<g clip-path="url(#clip5_1_12485)">
<path d="M411.577 151.458L407.184 151.469L405.344 151.471L400.945 147.309L407.177 147.3L411.577 151.458Z" stroke="#FBE5E7" stroke-width="1.73787" stroke-linecap="round" stroke-linejoin="round"/>
<path d="M411.575 151.457L411.622 174.526H388.811L388.802 170.366L388.797 167.948L405.374 167.915L405.343 151.471L407.182 151.468L411.575 151.457Z" stroke="#FBE5E7" stroke-width="1.73787" stroke-linecap="round" stroke-linejoin="round"/>
<path d="M405.375 167.915L388.798 167.948L384.4 164.139L400.977 164.105L405.375 167.915Z" stroke="#FBE5E7" stroke-width="1.73787" stroke-linecap="round" stroke-linejoin="round"/>
<path d="M405.344 151.471L405.375 167.916L400.978 164.106L400.945 147.31L405.344 151.471Z" stroke="#FBE5E7" stroke-width="1.73787" stroke-linecap="round" stroke-linejoin="round"/>
<path d="M388.798 167.948L388.803 170.366L388.811 174.526L384.411 170.373L384.4 164.139L388.798 167.948Z" stroke="#FBE5E7" stroke-width="1.73787" stroke-linecap="round" stroke-linejoin="round"/>
</g>
<g clip-path="url(#clip6_1_12485)">
<path d="M447.891 41.2339V44.8545L476.855 44.8545V41.2339L447.891 41.2339Z" fill="#F9EBDA"/>
<path d="M447.891 33.9927V37.6133L476.855 37.6133V33.9927L447.891 33.9927Z" fill="#F9EBDA"/>
<path d="M447.891 26.7515V30.3721L476.855 30.3721V26.7515L447.891 26.7515Z" fill="#F9EBDA"/>
<path d="M447.891 19.5103V23.1309L476.855 23.1309V19.5103L447.891 19.5103Z" fill="#F9EBDA"/>
</g>
<g clip-path="url(#clip7_1_12485)">
<path d="M447.889 82.0703V111.035L476.854 82.0703" fill="#FCEEBC"/>
</g>
<g clip-path="url(#clip8_1_12485)">
<path d="M576.629 82.0703V111.035L605.594 82.0703" fill="#FCEEBC"/>
</g>
<g clip-path="url(#clip9_1_12485)">
<path d="M793.657 45.7467L793.645 41.3536L793.643 39.5138L797.805 35.1152L797.814 41.3467L793.657 45.7467Z" stroke="#FBE5E7" stroke-width="1.73787" stroke-linecap="round" stroke-linejoin="round"/>
<path d="M793.656 45.7474L770.587 45.7937V22.9827L774.748 22.9743L777.165 22.9688L777.199 39.5458L793.643 39.5145L793.645 41.3543L793.656 45.7474Z" stroke="#FBE5E7" stroke-width="1.73787" stroke-linecap="round" stroke-linejoin="round"/>
<path d="M777.198 39.5454L777.165 22.9684L780.975 18.5713L781.008 35.1483L777.198 39.5454Z" stroke="#FBE5E7" stroke-width="1.73787" stroke-linecap="round" stroke-linejoin="round"/>
<path d="M793.643 39.5138L777.199 39.5451L781.008 35.148L797.805 35.1152L793.643 39.5138Z" stroke="#FBE5E7" stroke-width="1.73787" stroke-linecap="round" stroke-linejoin="round"/>
<path d="M777.165 22.9684L774.748 22.9739L770.587 22.9823L774.74 18.5823L780.975 18.5713L777.165 22.9684Z" stroke="#FBE5E7" stroke-width="1.73787" stroke-linecap="round" stroke-linejoin="round"/>
</g>
<g clip-path="url(#clip10_1_12485)">
<path d="M769.719 111.035H798.683L769.719 82.0703" fill="#FCEEBC"/>
</g>
<g clip-path="url(#clip11_1_12485)">
<path d="M655.473 175.395H669.955V146.43H655.473V175.395Z" fill="#E1F4E4"/>
</g>
<g clip-path="url(#clip12_1_12485)">
<path d="M991.785 23.1313V19.5107H962.821V23.1313H991.785Z" fill="#F9EBDA"/>
<path d="M991.785 30.3725V26.752H962.821V30.3725H991.785Z" fill="#F9EBDA"/>
<path d="M991.785 37.6137V33.9932H962.821V37.6137H991.785Z" fill="#F9EBDA"/>
<path d="M991.785 44.8549V41.2344H962.821V44.8549H991.785Z" fill="#F9EBDA"/>
</g>
<g clip-path="url(#clip13_1_12485)">
<path d="M962.821 82.0703V111.035L991.785 82.0703" fill="#FCEEBC"/>
</g>
<g clip-path="url(#clip14_1_12485)">
<path d="M863.055 146.43H834.09L863.055 175.395" fill="#FCEEBC"/>
</g>
<g clip-path="url(#clip15_1_12485)">
<path d="M990.868 151.458L986.475 151.469L984.635 151.471L980.236 147.309L986.468 147.3L990.868 151.458Z" stroke="#FBE5E7" stroke-width="1.73787" stroke-linecap="round" stroke-linejoin="round"/>
<path d="M990.866 151.457L990.913 174.526H968.102L968.093 170.366L968.088 167.948L984.665 167.915L984.634 151.471L986.473 151.468L990.866 151.457Z" stroke="#FBE5E7" stroke-width="1.73787" stroke-linecap="round" stroke-linejoin="round"/>
<path d="M984.666 167.915L968.089 167.948L963.691 164.139L980.268 164.105L984.666 167.915Z" stroke="#FBE5E7" stroke-width="1.73787" stroke-linecap="round" stroke-linejoin="round"/>
<path d="M984.635 151.471L984.666 167.916L980.269 164.106L980.236 147.31L984.635 151.471Z" stroke="#FBE5E7" stroke-width="1.73787" stroke-linecap="round" stroke-linejoin="round"/>
<path d="M968.089 167.948L968.094 170.366L968.102 174.526L963.702 170.373L963.691 164.139L968.089 167.948Z" stroke="#FBE5E7" stroke-width="1.73787" stroke-linecap="round" stroke-linejoin="round"/>
</g>
<g clip-path="url(#clip16_1_12485)">
<path d="M90.6641 289.642V275.16H61.6995V289.642H90.6641Z" fill="#E1F4E4"/>
</g>
<g clip-path="url(#clip17_1_12485)">
<path d="M407.467 238.846L407.456 234.453L407.454 232.613L411.615 228.215L411.625 234.446L407.467 238.846Z" stroke="#FBE5E7" stroke-width="1.73787" stroke-linecap="round" stroke-linejoin="round"/>
<path d="M407.467 238.847L384.398 238.893V216.082L388.558 216.074L390.976 216.068L391.009 232.645L407.453 232.614L407.456 234.454L407.467 238.847Z" stroke="#FBE5E7" stroke-width="1.73787" stroke-linecap="round" stroke-linejoin="round"/>
<path d="M391.009 232.645L390.976 216.068L394.785 211.671L394.818 228.248L391.009 232.645Z" stroke="#FBE5E7" stroke-width="1.73787" stroke-linecap="round" stroke-linejoin="round"/>
<path d="M407.453 232.613L391.009 232.645L394.819 228.248L411.615 228.215L407.453 232.613Z" stroke="#FBE5E7" stroke-width="1.73787" stroke-linecap="round" stroke-linejoin="round"/>
<path d="M390.976 216.068L388.558 216.074L384.398 216.082L388.551 211.682L394.785 211.671L390.976 216.068Z" stroke="#FBE5E7" stroke-width="1.73787" stroke-linecap="round" stroke-linejoin="round"/>
</g>
<g clip-path="url(#clip18_1_12485)">
<path d="M348.123 280.591V276.971H319.158V280.591H348.123Z" fill="#F9EBDA"/>
<path d="M348.123 287.832V284.211H319.158V287.832H348.123Z" fill="#F9EBDA"/>
<path d="M348.123 295.074V291.453H319.158V295.074H348.123Z" fill="#F9EBDA"/>
<path d="M348.123 302.314V298.693H319.158V302.314H348.123Z" fill="#F9EBDA"/>
</g>
<g clip-path="url(#clip19_1_12485)">
<path d="M398.012 275.16H383.529V304.125H398.012V275.16Z" fill="#E1F4E4"/>
</g>
<g clip-path="url(#clip20_1_12485)">
<path d="M453.32 210.8H449.699V239.764H453.32V210.8Z" fill="#F9EBDA"/>
<path d="M460.56 210.8H456.939V239.764H460.56V210.8Z" fill="#F9EBDA"/>
<path d="M467.802 210.8H464.182V239.764H467.802V210.8Z" fill="#F9EBDA"/>
<path d="M475.042 210.8H471.422V239.764H475.042V210.8Z" fill="#F9EBDA"/>
</g>
<g clip-path="url(#clip21_1_12485)">
<path d="M591.111 275.16H576.629V304.125H591.111V275.16Z" fill="#E1F4E4"/>
</g>
<g clip-path="url(#clip22_1_12485)">
<path d="M600.567 367.577L600.555 363.184L600.553 361.344L604.715 356.945L604.725 363.177L600.567 367.577Z" stroke="#FBE5E7" stroke-width="1.73787" stroke-linecap="round" stroke-linejoin="round"/>
<path d="M600.566 367.575L577.498 367.622V344.811L581.658 344.802L584.075 344.797L584.109 361.374L600.553 361.343L600.555 363.182L600.566 367.575Z" stroke="#FBE5E7" stroke-width="1.73787" stroke-linecap="round" stroke-linejoin="round"/>
<path d="M584.109 361.375L584.075 344.798L587.885 340.4L587.918 356.977L584.109 361.375Z" stroke="#FBE5E7" stroke-width="1.73787" stroke-linecap="round" stroke-linejoin="round"/>
<path d="M600.553 361.344L584.109 361.375L587.918 356.978L604.715 356.945L600.553 361.344Z" stroke="#FBE5E7" stroke-width="1.73787" stroke-linecap="round" stroke-linejoin="round"/>
<path d="M584.075 344.798L581.658 344.803L577.497 344.811L581.65 340.411L587.885 340.4L584.075 344.798Z" stroke="#FBE5E7" stroke-width="1.73787" stroke-linecap="round" stroke-linejoin="round"/>
</g>
<g clip-path="url(#clip23_1_12485)">
<path d="M793.657 238.846L793.645 234.453L793.643 232.613L797.805 228.215L797.814 234.446L793.657 238.846Z" stroke="#FBE5E7" stroke-width="1.73787" stroke-linecap="round" stroke-linejoin="round"/>
<path d="M793.656 238.847L770.587 238.893V216.082L774.748 216.074L777.165 216.068L777.199 232.645L793.643 232.614L793.645 234.454L793.656 238.847Z" stroke="#FBE5E7" stroke-width="1.73787" stroke-linecap="round" stroke-linejoin="round"/>
<path d="M777.198 232.645L777.165 216.068L780.975 211.671L781.008 228.248L777.198 232.645Z" stroke="#FBE5E7" stroke-width="1.73787" stroke-linecap="round" stroke-linejoin="round"/>
<path d="M793.643 232.613L777.199 232.645L781.008 228.248L797.805 228.215L793.643 232.613Z" stroke="#FBE5E7" stroke-width="1.73787" stroke-linecap="round" stroke-linejoin="round"/>
<path d="M777.165 216.068L774.748 216.074L770.587 216.082L774.74 211.682L780.975 211.671L777.165 216.068Z" stroke="#FBE5E7" stroke-width="1.73787" stroke-linecap="round" stroke-linejoin="round"/>
</g>
<g clip-path="url(#clip24_1_12485)">
<path d="M669.953 339.53H640.989L669.953 368.494" fill="#FCEEBC"/>
</g>
<g clip-path="url(#clip25_1_12485)">
<path d="M734.324 339.53H705.36L734.324 368.494" fill="#FCEEBC"/>
</g>
<g clip-path="url(#clip26_1_12485)">
<path d="M991.783 216.231V212.61H962.819V216.231H991.783Z" fill="#F9EBDA"/>
<path d="M991.783 223.472V219.852H962.819V223.472H991.783Z" fill="#F9EBDA"/>
<path d="M991.783 230.713V227.093H962.819V230.713H991.783Z" fill="#F9EBDA"/>
<path d="M991.783 237.955V234.334H962.819V237.955H991.783Z" fill="#F9EBDA"/>
</g>
<g clip-path="url(#clip27_1_12485)">
<path d="M1184.88 216.231V212.61H1155.92V216.231H1184.88Z" fill="#F9EBDA"/>
<path d="M1184.88 223.472V219.852H1155.92V223.472H1184.88Z" fill="#F9EBDA"/>
<path d="M1184.88 230.713V227.093H1155.92V230.713H1184.88Z" fill="#F9EBDA"/>
<path d="M1184.88 237.955V234.334H1155.92V237.955H1184.88Z" fill="#F9EBDA"/>
</g>
<g clip-path="url(#clip28_1_12485)">
<path d="M1184.88 304.125V275.16L1155.92 304.125" fill="#FCEEBC"/>
</g>
<g clip-path="url(#clip29_1_12485)">
<path d="M1308.18 304.125H1311.8V275.16H1308.18V304.125Z" fill="#F9EBDA"/>
<path d="M1300.94 304.125H1304.56V275.16H1300.94V304.125Z" fill="#F9EBDA"/>
<path d="M1293.7 304.125H1297.32V275.16H1293.7V304.125Z" fill="#F9EBDA"/>
<path d="M1286.46 304.125H1290.08V275.16H1286.46V304.125Z" fill="#F9EBDA"/>
</g>
</g>
<defs>
<clipPath id="clip0_1_12485">
<rect width="28.9646" height="28.9646" fill="white" transform="translate(219.395 111.035) rotate(180)"/>
</clipPath>
<clipPath id="clip1_1_12485">
<rect width="28.9646" height="28.9646" fill="white" transform="translate(190.43 146.431)"/>
</clipPath>
<clipPath id="clip2_1_12485">
<rect width="28.9646" height="28.9646" fill="white" transform="translate(412.494 82.0703) rotate(90)"/>
</clipPath>
<clipPath id="clip3_1_12485">
<rect width="28.9646" height="28.9646" fill="white" transform="translate(283.764 146.431) rotate(90)"/>
</clipPath>
<clipPath id="clip4_1_12485">
<rect width="28.9646" height="28.9646" fill="white" transform="translate(348.125 146.431) rotate(90)"/>
</clipPath>
<clipPath id="clip5_1_12485">
<rect width="28.9646" height="28.9646" fill="white" transform="translate(383.529 146.431)"/>
</clipPath>
<clipPath id="clip6_1_12485">
<rect width="28.9646" height="28.9646" fill="white" transform="translate(447.891 46.665) rotate(-90)"/>
</clipPath>
<clipPath id="clip7_1_12485">
<rect width="28.9646" height="28.9646" fill="white" transform="translate(476.854 82.0703) rotate(90)"/>
</clipPath>
<clipPath id="clip8_1_12485">
<rect width="28.9646" height="28.9646" fill="white" transform="translate(605.594 82.0703) rotate(90)"/>
</clipPath>
<clipPath id="clip9_1_12485">
<rect width="28.9646" height="28.9646" fill="white" transform="translate(798.684 17.7002) rotate(90)"/>
</clipPath>
<clipPath id="clip10_1_12485">
<rect width="28.9646" height="28.9646" fill="white" transform="translate(769.719 82.0703)"/>
</clipPath>
<clipPath id="clip11_1_12485">
<rect width="28.9646" height="28.9646" fill="white" transform="translate(669.955 175.395) rotate(180)"/>
</clipPath>
<clipPath id="clip12_1_12485">
<rect width="28.9646" height="28.9646" fill="white" transform="translate(991.785 17.7002) rotate(90)"/>
</clipPath>
<clipPath id="clip13_1_12485">
<rect width="28.9646" height="28.9646" fill="white" transform="translate(991.785 82.0703) rotate(90)"/>
</clipPath>
<clipPath id="clip14_1_12485">
<rect width="28.9646" height="28.9646" fill="white" transform="translate(863.055 175.395) rotate(180)"/>
</clipPath>
<clipPath id="clip15_1_12485">
<rect width="28.9646" height="28.9646" fill="white" transform="translate(962.82 146.431)"/>
</clipPath>
<clipPath id="clip16_1_12485">
<rect width="28.9646" height="28.9646" fill="white" transform="translate(90.6641 275.16) rotate(90)"/>
</clipPath>
<clipPath id="clip17_1_12485">
<rect width="28.9646" height="28.9646" fill="white" transform="translate(412.494 210.8) rotate(90)"/>
</clipPath>
<clipPath id="clip18_1_12485">
<rect width="28.9646" height="28.9646" fill="white" transform="translate(348.123 275.16) rotate(90)"/>
</clipPath>
<clipPath id="clip19_1_12485">
<rect width="28.9646" height="28.9646" fill="white" transform="translate(383.529 275.16)"/>
</clipPath>
<clipPath id="clip20_1_12485">
<rect width="28.9646" height="28.9646" fill="white" transform="translate(447.889 210.8)"/>
</clipPath>
<clipPath id="clip21_1_12485">
<rect width="28.9646" height="28.9646" fill="white" transform="translate(576.629 275.16)"/>
</clipPath>
<clipPath id="clip22_1_12485">
<rect width="28.9646" height="28.9646" fill="white" transform="translate(605.594 339.529) rotate(90)"/>
</clipPath>
<clipPath id="clip23_1_12485">
<rect width="28.9646" height="28.9646" fill="white" transform="translate(798.684 210.8) rotate(90)"/>
</clipPath>
<clipPath id="clip24_1_12485">
<rect width="28.9646" height="28.9646" fill="white" transform="translate(669.953 368.494) rotate(180)"/>
</clipPath>
<clipPath id="clip25_1_12485">
<rect width="28.9646" height="28.9646" fill="white" transform="translate(734.324 368.494) rotate(180)"/>
</clipPath>
<clipPath id="clip26_1_12485">
<rect width="28.9646" height="28.9646" fill="white" transform="translate(991.783 210.8) rotate(90)"/>
</clipPath>
<clipPath id="clip27_1_12485">
<rect width="28.9646" height="28.9646" fill="white" transform="translate(1184.88 210.8) rotate(90)"/>
</clipPath>
<clipPath id="clip28_1_12485">
<rect width="28.9646" height="28.9646" fill="white" transform="translate(1155.92 304.125) rotate(-90)"/>
</clipPath>
<clipPath id="clip29_1_12485">
<rect width="28.9646" height="28.9646" fill="white" transform="translate(1313.61 304.125) rotate(180)"/>
</clipPath>
</defs>
</svg>
