<svg width="1440" height="400" viewBox="0 0 1440 400" fill="none" xmlns="http://www.w3.org/2000/svg">
<mask id="mask0_1_15739" style="mask-type:alpha" maskUnits="userSpaceOnUse" x="0" y="0" width="1440" height="400">
<rect width="1440" height="400" fill="#F5F8E6"/>
</mask>
<g mask="url(#mask0_1_15739)">
<g clip-path="url(#clip0_1_15739)">
<path d="M61.7003 111.035C65.5413 111.035 69.2249 109.509 71.9409 106.793C74.6568 104.077 76.1826 100.394 76.1826 96.5526C76.1826 92.7117 74.6568 89.028 71.9409 86.3121C69.2249 83.5961 65.5413 82.0703 61.7003 82.0703V111.035Z" fill="#FCEEBC"/>
</g>
<g clip-path="url(#clip1_1_15739)">
<path d="M190.43 175.395C194.271 175.395 197.954 173.869 200.67 171.153C203.386 168.438 204.912 164.754 204.912 160.913C204.912 157.072 203.386 153.388 200.67 150.672C197.954 147.956 194.271 146.431 190.43 146.431V175.395Z" fill="#FCEEBC"/>
</g>
<g clip-path="url(#clip2_1_15739)">
<path d="M330.951 20.7881V43.5768L347.256 32.1825L330.951 20.7881Z" stroke="#FBE5E7" stroke-width="1.73787" stroke-linecap="round" stroke-linejoin="round"/>
<path d="M320.029 20.7881V43.5768L336.334 32.1825L320.029 20.7881Z" stroke="#FBE5E7" stroke-width="1.73787" stroke-linecap="round" stroke-linejoin="round"/>
</g>
<g clip-path="url(#clip3_1_15739)">
<path d="M383.531 46.6648V32.1825C387.371 32.1821 391.055 30.6562 393.771 27.9403C396.487 25.2244 398.012 21.541 398.013 17.7002H412.495C412.495 25.3821 409.444 32.7493 404.012 38.1812C398.58 43.6131 391.212 46.6648 383.531 46.6648Z" fill="#F9EBDA"/>
</g>
<g clip-path="url(#clip4_1_15739)">
<path d="M269.264 96.5346C269.264 96.5346 262.319 97.0128 258.329 93.0232C254.34 89.0336 254.818 82.0882 254.818 82.0882C254.818 82.0882 261.764 81.61 265.753 85.5996C269.742 89.5891 269.264 96.5346 269.264 96.5346Z" fill="#E1F4E4"/>
<path d="M283.747 111.017C283.747 111.017 276.801 111.495 272.812 107.506C268.823 103.516 269.3 96.5706 269.3 96.5706C269.3 96.5706 276.246 96.0924 280.235 100.082C284.225 104.072 283.747 111.017 283.747 111.017Z" fill="#E1F4E4"/>
<path d="M269.3 96.5345C269.3 96.5345 268.822 89.5888 272.812 85.5995C276.801 81.6103 283.747 82.0882 283.747 82.0882C283.747 82.0882 284.225 89.0339 280.235 93.0232C276.246 97.0125 269.3 96.5345 269.3 96.5345Z" fill="#E1F4E4"/>
<path d="M254.818 111.017C254.818 111.017 254.34 104.071 258.329 100.082C262.319 96.0927 269.264 96.5706 269.264 96.5706C269.264 96.5706 269.743 103.516 265.753 107.506C261.763 111.495 254.818 111.017 254.818 111.017Z" fill="#E1F4E4"/>
</g>
<g clip-path="url(#clip5_1_15739)">
<path d="M257.889 163.605H280.677L269.283 147.3L257.889 163.605Z" stroke="#FBE5E7" stroke-width="1.73787" stroke-linecap="round" stroke-linejoin="round"/>
<path d="M257.889 174.526H280.677L269.283 158.222L257.889 174.526Z" stroke="#FBE5E7" stroke-width="1.73787" stroke-linecap="round" stroke-linejoin="round"/>
</g>
<g clip-path="url(#clip6_1_15739)">
<path d="M524.051 20.7881V43.5768L540.355 32.1825L524.051 20.7881Z" stroke="#FBE5E7" stroke-width="1.73787" stroke-linecap="round" stroke-linejoin="round"/>
<path d="M513.129 20.7881V43.5768L529.434 32.1825L513.129 20.7881Z" stroke="#FBE5E7" stroke-width="1.73787" stroke-linecap="round" stroke-linejoin="round"/>
</g>
<g clip-path="url(#clip7_1_15739)">
<path d="M605.594 17.7005V32.1828C601.754 32.1831 598.07 33.7091 595.354 36.4249C592.638 39.1408 591.113 42.8242 591.112 46.665H576.63C576.63 38.9832 579.681 31.6159 585.113 26.184C590.545 20.7521 597.913 17.7005 605.594 17.7005Z" fill="#F9EBDA"/>
</g>
<g clip-path="url(#clip8_1_15739)">
<path d="M462.391 96.5709C462.391 96.5709 469.337 96.0927 473.326 100.082C477.315 104.072 476.837 111.017 476.837 111.017C476.837 111.017 469.892 111.495 465.902 107.506C461.913 103.516 462.391 96.5709 462.391 96.5709Z" fill="#E1F4E4"/>
<path d="M447.908 82.0885C447.908 82.0885 454.854 81.6103 458.843 85.5999C462.833 89.5894 462.355 96.5349 462.355 96.5349C462.355 96.5349 455.409 97.0131 451.42 93.0235C447.431 89.0339 447.908 82.0885 447.908 82.0885Z" fill="#E1F4E4"/>
<path d="M462.355 96.5709C462.355 96.5709 462.833 103.517 458.843 107.506C454.854 111.495 447.909 111.017 447.909 111.017C447.909 111.017 447.43 104.072 451.42 100.082C455.409 96.093 462.355 96.5709 462.355 96.5709Z" fill="#E1F4E4"/>
<path d="M476.837 82.0885C476.837 82.0885 477.316 89.0342 473.326 93.0235C469.336 97.0128 462.391 96.5349 462.391 96.5349C462.391 96.5349 461.913 89.5892 465.902 85.5999C469.892 81.6106 476.837 82.0885 476.837 82.0885Z" fill="#E1F4E4"/>
</g>
<g clip-path="url(#clip9_1_15739)">
<path d="M462.355 160.931C462.355 160.931 462.833 167.877 458.843 171.866C454.854 175.855 447.909 175.377 447.909 175.377C447.909 175.377 447.43 168.432 451.42 164.442C455.409 160.453 462.355 160.931 462.355 160.931Z" fill="#E1F4E4"/>
<path d="M476.837 146.449C476.837 146.449 477.316 153.394 473.326 157.384C469.336 161.373 462.391 160.895 462.391 160.895C462.391 160.895 461.913 153.949 465.902 149.96C469.892 145.971 476.837 146.449 476.837 146.449Z" fill="#E1F4E4"/>
<path d="M462.355 160.895C462.355 160.895 455.409 161.373 451.42 157.384C447.431 153.394 447.908 146.449 447.908 146.449C447.908 146.449 454.854 145.97 458.843 149.96C462.833 153.95 462.355 160.895 462.355 160.895Z" fill="#E1F4E4"/>
<path d="M476.837 175.377C476.837 175.377 469.892 175.856 465.902 171.866C461.913 167.876 462.391 160.931 462.391 160.931C462.391 160.931 469.337 160.453 473.326 164.442C477.315 168.432 476.837 175.377 476.837 175.377Z" fill="#E1F4E4"/>
</g>
<g clip-path="url(#clip10_1_15739)">
<path d="M798.684 46.6648H784.202C784.202 42.8239 782.676 39.1405 779.96 36.4247C777.244 33.7088 773.561 32.1829 769.72 32.1825V17.7002C777.402 17.7002 784.769 20.7518 790.201 26.1837C795.633 31.6156 798.684 38.9829 798.684 46.6648Z" fill="#F9EBDA"/>
</g>
<g clip-path="url(#clip11_1_15739)">
<path d="M669.955 82.0706C666.114 82.0706 662.43 83.5964 659.714 86.3123C656.998 89.0283 655.473 92.7119 655.473 96.5529C655.473 100.394 656.998 104.077 659.714 106.793C662.43 109.509 666.114 111.035 669.955 111.035V82.0706Z" fill="#FCEEBC"/>
</g>
<g clip-path="url(#clip12_1_15739)">
<path d="M798.685 146.43C794.844 146.43 791.161 147.956 788.445 150.672C785.729 153.388 784.203 157.071 784.203 160.912C784.203 164.753 785.729 168.437 788.445 171.153C791.161 173.869 794.844 175.395 798.685 175.395V146.43Z" fill="#FCEEBC"/>
</g>
<g clip-path="url(#clip13_1_15739)">
<path d="M991.785 46.6648H977.303C977.302 42.8239 975.776 39.1405 973.06 36.4247C970.345 33.7088 966.661 32.1829 962.82 32.1825V17.7002C970.502 17.7002 977.869 20.7518 983.301 26.1837C988.733 31.6156 991.785 38.9829 991.785 46.6648Z" fill="#F9EBDA"/>
</g>
<g clip-path="url(#clip14_1_15739)">
<path d="M1155.92 17.7005L1170.4 17.7005C1170.4 21.5413 1171.93 25.2247 1174.64 27.9406C1177.36 30.6564 1181.04 32.1824 1184.88 32.1828V46.665C1177.2 46.665 1169.84 43.6134 1164.4 38.1815C1158.97 32.7496 1155.92 25.3824 1155.92 17.7005Z" fill="#F9EBDA"/>
</g>
<g clip-path="url(#clip15_1_15739)">
<path d="M1041.65 96.5706C1041.65 96.5706 1042.13 103.516 1038.14 107.506C1034.15 111.495 1027.21 111.017 1027.21 111.017C1027.21 111.017 1026.73 104.071 1030.72 100.082C1034.71 96.0927 1041.65 96.5706 1041.65 96.5706Z" fill="#E1F4E4"/>
<path d="M1056.14 82.0882C1056.14 82.0882 1056.62 89.0339 1052.63 93.0232C1048.64 97.0125 1041.69 96.5345 1041.69 96.5345C1041.69 96.5345 1041.21 89.5888 1045.2 85.5995C1049.19 81.6103 1056.14 82.0882 1056.14 82.0882Z" fill="#E1F4E4"/>
<path d="M1041.65 96.5346C1041.65 96.5346 1034.71 97.0128 1030.72 93.0232C1026.73 89.0336 1027.21 82.0882 1027.21 82.0882C1027.21 82.0882 1034.15 81.61 1038.14 85.5996C1042.13 89.5891 1041.65 96.5346 1041.65 96.5346Z" fill="#E1F4E4"/>
<path d="M1056.14 111.017C1056.14 111.017 1049.19 111.495 1045.2 107.506C1041.21 103.516 1041.69 96.5706 1041.69 96.5706C1041.69 96.5706 1048.64 96.0924 1052.63 100.082C1056.61 104.072 1056.14 111.017 1056.14 111.017Z" fill="#E1F4E4"/>
</g>
<g clip-path="url(#clip16_1_15739)">
<path d="M1234.78 96.5709C1234.78 96.5709 1241.73 96.0927 1245.72 100.082C1249.7 104.072 1249.23 111.017 1249.23 111.017C1249.23 111.017 1242.28 111.495 1238.29 107.506C1234.3 103.516 1234.78 96.5709 1234.78 96.5709Z" fill="#E1F4E4"/>
<path d="M1220.3 82.0885C1220.3 82.0885 1227.24 81.6103 1231.23 85.5999C1235.22 89.5894 1234.74 96.5349 1234.74 96.5349C1234.74 96.5349 1227.8 97.0131 1223.81 93.0235C1219.82 89.0339 1220.3 82.0885 1220.3 82.0885Z" fill="#E1F4E4"/>
<path d="M1234.74 96.5709C1234.74 96.5709 1235.22 103.517 1231.23 107.506C1227.24 111.495 1220.3 111.017 1220.3 111.017C1220.3 111.017 1219.82 104.072 1223.81 100.082C1227.8 96.093 1234.74 96.5709 1234.74 96.5709Z" fill="#E1F4E4"/>
<path d="M1249.23 82.0885C1249.23 82.0885 1249.71 89.0342 1245.72 93.0235C1241.73 97.0128 1234.78 96.5349 1234.78 96.5349C1234.78 96.5349 1234.3 89.5892 1238.29 85.5999C1242.28 81.6106 1249.23 82.0885 1249.23 82.0885Z" fill="#E1F4E4"/>
</g>
<g clip-path="url(#clip17_1_15739)">
<path d="M1223.37 163.605H1246.16L1234.76 147.3L1223.37 163.605Z" stroke="#FBE5E7" stroke-width="1.73787" stroke-linecap="round" stroke-linejoin="round"/>
<path d="M1223.37 174.526H1246.16L1234.76 158.222L1223.37 174.526Z" stroke="#FBE5E7" stroke-width="1.73787" stroke-linecap="round" stroke-linejoin="round"/>
</g>
<g clip-path="url(#clip18_1_15739)">
<path d="M219.394 210.8V225.282C215.553 225.283 211.87 226.809 209.154 229.525C206.438 232.24 204.912 235.924 204.912 239.765H190.43C190.43 232.083 193.481 224.716 198.913 219.284C204.345 213.852 211.712 210.8 219.394 210.8Z" fill="#F9EBDA"/>
</g>
<g clip-path="url(#clip19_1_15739)">
<path d="M126.071 275.16H140.553C140.553 279.001 142.079 282.685 144.795 285.401C147.511 288.116 151.194 289.642 155.035 289.643V304.125C147.353 304.125 139.986 301.073 134.554 295.641C129.122 290.21 126.071 282.842 126.071 275.16Z" fill="#F9EBDA"/>
</g>
<g clip-path="url(#clip20_1_15739)">
<path d="M76.1648 353.994C76.1648 353.994 69.2191 354.472 65.2298 350.482C61.2405 346.493 61.7184 339.547 61.7184 339.547C61.7184 339.547 68.6641 339.069 72.6534 343.059C76.6427 347.048 76.1648 353.994 76.1648 353.994Z" fill="#E1F4E4"/>
<path d="M90.6472 368.476C90.6472 368.476 83.7015 368.954 79.7122 364.965C75.7229 360.975 76.2008 354.03 76.2008 354.03C76.2008 354.03 83.1465 353.551 87.1358 357.541C91.1251 361.531 90.6472 368.476 90.6472 368.476Z" fill="#E1F4E4"/>
<path d="M76.2008 353.994C76.2008 353.994 75.7226 347.048 79.7122 343.059C83.7017 339.069 90.6472 339.547 90.6472 339.547C90.6472 339.547 91.1254 346.493 87.1358 350.482C83.1462 354.471 76.2008 353.994 76.2008 353.994Z" fill="#E1F4E4"/>
<path d="M61.7184 368.476C61.7184 368.476 61.2402 361.53 65.2297 357.541C69.2193 353.552 76.1647 354.03 76.1647 354.03C76.1647 354.03 76.6429 360.975 72.6534 364.965C68.6638 368.954 61.7184 368.476 61.7184 368.476Z" fill="#E1F4E4"/>
</g>
<g clip-path="url(#clip21_1_15739)">
<path d="M219.394 368.494C219.394 364.653 217.868 360.969 215.152 358.253C212.437 355.538 208.753 354.012 204.912 354.012C201.071 354.012 197.387 355.538 194.671 358.253C191.955 360.969 190.43 364.653 190.43 368.494H219.394Z" fill="#FCEEBC"/>
</g>
<g clip-path="url(#clip22_1_15739)">
<path d="M412.495 239.764H398.013C398.012 235.924 396.486 232.24 393.77 229.524C391.054 226.808 387.371 225.282 383.53 225.282V210.8C391.212 210.8 398.579 213.851 404.011 219.283C409.443 224.715 412.495 232.082 412.495 239.764Z" fill="#F9EBDA"/>
</g>
<g clip-path="url(#clip23_1_15739)">
<path d="M254.8 304.125C258.641 304.125 262.325 302.599 265.04 299.883C267.756 297.167 269.282 293.483 269.282 289.642C269.282 285.802 267.756 282.118 265.04 279.402C262.325 276.686 258.641 275.16 254.8 275.16V304.125Z" fill="#FCEEBC"/>
</g>
<g clip-path="url(#clip24_1_15739)">
<path d="M269.3 353.994C269.3 353.994 268.822 347.048 272.812 343.059C276.801 339.07 283.747 339.547 283.747 339.547C283.747 339.547 284.225 346.493 280.235 350.482C276.246 354.472 269.3 353.994 269.3 353.994Z" fill="#E1F4E4"/>
<path d="M254.818 368.476C254.818 368.476 254.34 361.531 258.329 357.541C262.319 353.552 269.264 354.03 269.264 354.03C269.264 354.03 269.743 360.976 265.753 364.965C261.763 368.954 254.818 368.476 254.818 368.476Z" fill="#E1F4E4"/>
<path d="M269.3 354.03C269.3 354.03 276.246 353.552 280.235 357.541C284.225 361.531 283.747 368.476 283.747 368.476C283.747 368.476 276.801 368.954 272.812 364.965C268.823 360.975 269.3 354.03 269.3 354.03Z" fill="#E1F4E4"/>
<path d="M254.818 339.547C254.818 339.547 261.764 339.069 265.753 343.059C269.742 347.048 269.264 353.994 269.264 353.994C269.264 353.994 262.319 354.472 258.329 350.482C254.34 346.493 254.818 339.547 254.818 339.547Z" fill="#E1F4E4"/>
</g>
<g clip-path="url(#clip25_1_15739)">
<path d="M515.348 227.974H538.136L526.742 211.669L515.348 227.974Z" stroke="#FBE5E7" stroke-width="1.73787" stroke-linecap="round" stroke-linejoin="round"/>
<path d="M515.348 238.896H538.136L526.742 222.591L515.348 238.896Z" stroke="#FBE5E7" stroke-width="1.73787" stroke-linecap="round" stroke-linejoin="round"/>
</g>
<g clip-path="url(#clip26_1_15739)">
<path d="M476.855 304.125H462.373C462.373 300.284 460.847 296.601 458.131 293.885C455.415 291.169 451.731 289.643 447.891 289.642V275.16C455.573 275.16 462.94 278.212 468.372 283.644C473.804 289.076 476.855 296.443 476.855 304.125Z" fill="#F9EBDA"/>
</g>
<g clip-path="url(#clip27_1_15739)">
<path d="M462.391 354.03C462.391 354.03 469.337 353.552 473.326 357.541C477.315 361.531 476.837 368.476 476.837 368.476C476.837 368.476 469.892 368.954 465.902 364.965C461.913 360.975 462.391 354.03 462.391 354.03Z" fill="#E1F4E4"/>
<path d="M447.908 339.547C447.908 339.547 454.854 339.069 458.843 343.059C462.833 347.048 462.355 353.994 462.355 353.994C462.355 353.994 455.409 354.472 451.42 350.482C447.431 346.493 447.908 339.547 447.908 339.547Z" fill="#E1F4E4"/>
<path d="M462.355 354.03C462.355 354.03 462.833 360.976 458.843 364.965C454.854 368.954 447.909 368.476 447.909 368.476C447.909 368.476 447.43 361.531 451.42 357.541C455.409 353.552 462.355 354.03 462.355 354.03Z" fill="#E1F4E4"/>
<path d="M476.837 339.547C476.837 339.547 477.316 346.493 473.326 350.482C469.336 354.472 462.391 353.994 462.391 353.994C462.391 353.994 461.913 347.048 465.902 343.059C469.892 339.07 476.837 339.547 476.837 339.547Z" fill="#E1F4E4"/>
</g>
<g clip-path="url(#clip28_1_15739)">
<path d="M719.825 289.66C719.825 289.66 720.303 296.606 716.313 300.595C712.324 304.585 705.378 304.107 705.378 304.107C705.378 304.107 704.9 297.161 708.89 293.172C712.879 289.183 719.825 289.66 719.825 289.66Z" fill="#E1F4E4"/>
<path d="M734.307 275.178C734.307 275.178 734.785 282.124 730.796 286.113C726.806 290.102 719.861 289.624 719.861 289.624C719.861 289.624 719.382 282.679 723.372 278.689C727.362 274.7 734.307 275.178 734.307 275.178Z" fill="#E1F4E4"/>
<path d="M719.825 289.624C719.825 289.624 712.879 290.103 708.89 286.113C704.9 282.123 705.378 275.178 705.378 275.178C705.378 275.178 712.324 274.7 716.313 278.689C720.302 282.679 719.825 289.624 719.825 289.624Z" fill="#E1F4E4"/>
<path d="M734.307 304.107C734.307 304.107 727.361 304.585 723.372 300.595C719.383 296.606 719.861 289.66 719.861 289.66C719.861 289.66 726.806 289.182 730.796 293.172C734.785 297.161 734.307 304.107 734.307 304.107Z" fill="#E1F4E4"/>
</g>
<g clip-path="url(#clip29_1_15739)">
<path d="M652.781 342.617V365.406L669.086 354.012L652.781 342.617Z" stroke="#FBE5E7" stroke-width="1.73787" stroke-linecap="round" stroke-linejoin="round"/>
<path d="M641.859 342.617V365.406L658.164 354.012L641.859 342.617Z" stroke="#FBE5E7" stroke-width="1.73787" stroke-linecap="round" stroke-linejoin="round"/>
</g>
<g clip-path="url(#clip30_1_15739)">
<path d="M991.785 210.8V225.282C987.944 225.283 984.261 226.809 981.545 229.525C978.829 232.24 977.303 235.924 977.303 239.765H962.82C962.82 232.083 965.872 224.716 971.304 219.284C976.736 213.852 984.103 210.8 991.785 210.8Z" fill="#F9EBDA"/>
</g>
<g clip-path="url(#clip31_1_15739)">
<path d="M851.264 365.406V342.618L834.959 354.012L851.264 365.406Z" stroke="#FBE5E7" stroke-width="1.73787" stroke-linecap="round" stroke-linejoin="round"/>
<path d="M862.186 365.406V342.618L845.881 354.012L862.186 365.406Z" stroke="#FBE5E7" stroke-width="1.73787" stroke-linecap="round" stroke-linejoin="round"/>
</g>
<g clip-path="url(#clip32_1_15739)">
<path d="M1184.88 239.764H1170.4C1170.4 235.924 1168.88 232.24 1166.16 229.524C1163.44 226.808 1159.76 225.282 1155.92 225.282V210.8C1163.6 210.8 1170.97 213.851 1176.4 219.283C1181.83 224.715 1184.88 232.082 1184.88 239.764Z" fill="#F9EBDA"/>
</g>
<g clip-path="url(#clip33_1_15739)">
<path d="M1120.52 304.125H1106.03C1106.03 300.284 1104.51 296.601 1101.79 293.885C1099.08 291.169 1095.39 289.643 1091.55 289.642V275.16C1099.23 275.16 1106.6 278.212 1112.03 283.644C1117.46 289.076 1120.52 296.443 1120.52 304.125Z" fill="#F9EBDA"/>
</g>
<g clip-path="url(#clip34_1_15739)">
<path d="M1030.28 356.703H1053.07L1041.67 340.398L1030.28 356.703Z" stroke="#FBE5E7" stroke-width="1.73787" stroke-linecap="round" stroke-linejoin="round"/>
<path d="M1030.28 367.625H1053.07L1041.67 351.32L1030.28 367.625Z" stroke="#FBE5E7" stroke-width="1.73787" stroke-linecap="round" stroke-linejoin="round"/>
</g>
<g clip-path="url(#clip35_1_15739)">
<path d="M1301.82 236.677V213.888L1285.52 225.282L1301.82 236.677Z" stroke="#FBE5E7" stroke-width="1.73787" stroke-linecap="round" stroke-linejoin="round"/>
<path d="M1312.75 236.677V213.888L1296.44 225.282L1312.75 236.677Z" stroke="#FBE5E7" stroke-width="1.73787" stroke-linecap="round" stroke-linejoin="round"/>
</g>
</g>
<defs>
<clipPath id="clip0_1_15739">
<rect width="28.9646" height="28.9646" fill="white" transform="translate(90.665 82.0703) rotate(90)"/>
</clipPath>
<clipPath id="clip1_1_15739">
<rect width="28.9646" height="28.9646" fill="white" transform="translate(219.395 146.431) rotate(90)"/>
</clipPath>
<clipPath id="clip2_1_15739">
<rect width="28.9646" height="28.9646" fill="white" transform="translate(348.125 17.7002) rotate(90)"/>
</clipPath>
<clipPath id="clip3_1_15739">
<rect width="28.9646" height="28.9646" fill="white" transform="translate(412.495 17.7002) rotate(90)"/>
</clipPath>
<clipPath id="clip4_1_15739">
<rect width="28.9646" height="28.9646" fill="white" transform="translate(283.765 82.0703) rotate(90)"/>
</clipPath>
<clipPath id="clip5_1_15739">
<rect width="28.9646" height="28.9646" fill="white" transform="translate(254.801 146.431)"/>
</clipPath>
<clipPath id="clip6_1_15739">
<rect width="28.9646" height="28.9646" fill="white" transform="translate(541.225 17.7002) rotate(90)"/>
</clipPath>
<clipPath id="clip7_1_15739">
<rect width="28.9646" height="28.9646" fill="white" transform="translate(576.63 46.665) rotate(-90)"/>
</clipPath>
<clipPath id="clip8_1_15739">
<rect width="28.9646" height="28.9646" fill="white" transform="translate(447.891 111.035) rotate(-90)"/>
</clipPath>
<clipPath id="clip9_1_15739">
<rect width="28.9646" height="28.9646" fill="white" transform="translate(447.891 146.431)"/>
</clipPath>
<clipPath id="clip10_1_15739">
<rect width="28.9646" height="28.9646" fill="white" transform="translate(769.72 17.7002)"/>
</clipPath>
<clipPath id="clip11_1_15739">
<rect width="28.9646" height="28.9646" fill="white" transform="translate(640.99 111.035) rotate(-90)"/>
</clipPath>
<clipPath id="clip12_1_15739">
<rect width="28.9646" height="28.9646" fill="white" transform="translate(769.721 175.395) rotate(-90)"/>
</clipPath>
<clipPath id="clip13_1_15739">
<rect width="28.9646" height="28.9646" fill="white" transform="translate(962.82 17.7002)"/>
</clipPath>
<clipPath id="clip14_1_15739">
<rect width="28.9646" height="28.9646" fill="white" transform="translate(1184.88 46.665) rotate(180)"/>
</clipPath>
<clipPath id="clip15_1_15739">
<rect width="28.9646" height="28.9646" fill="white" transform="translate(1027.19 82.0703)"/>
</clipPath>
<clipPath id="clip16_1_15739">
<rect width="28.9646" height="28.9646" fill="white" transform="translate(1220.28 111.035) rotate(-90)"/>
</clipPath>
<clipPath id="clip17_1_15739">
<rect width="28.9646" height="28.9646" fill="white" transform="translate(1220.28 146.431)"/>
</clipPath>
<clipPath id="clip18_1_15739">
<rect width="28.9646" height="28.9646" fill="white" transform="translate(190.43 239.765) rotate(-90)"/>
</clipPath>
<clipPath id="clip19_1_15739">
<rect width="28.9646" height="28.9646" fill="white" transform="translate(155.035 304.125) rotate(180)"/>
</clipPath>
<clipPath id="clip20_1_15739">
<rect width="28.9646" height="28.9646" fill="white" transform="translate(90.665 339.529) rotate(90)"/>
</clipPath>
<clipPath id="clip21_1_15739">
<rect width="28.9646" height="28.9646" fill="white" transform="translate(190.43 339.529)"/>
</clipPath>
<clipPath id="clip22_1_15739">
<rect width="28.9646" height="28.9646" fill="white" transform="translate(383.53 210.8)"/>
</clipPath>
<clipPath id="clip23_1_15739">
<rect width="28.9646" height="28.9646" fill="white" transform="translate(283.765 275.16) rotate(90)"/>
</clipPath>
<clipPath id="clip24_1_15739">
<rect width="28.9646" height="28.9646" fill="white" transform="translate(283.765 368.494) rotate(180)"/>
</clipPath>
<clipPath id="clip25_1_15739">
<rect width="28.9646" height="28.9646" fill="white" transform="translate(512.26 210.8)"/>
</clipPath>
<clipPath id="clip26_1_15739">
<rect width="28.9646" height="28.9646" fill="white" transform="translate(447.891 275.16)"/>
</clipPath>
<clipPath id="clip27_1_15739">
<rect width="28.9646" height="28.9646" fill="white" transform="translate(447.891 368.494) rotate(-90)"/>
</clipPath>
<clipPath id="clip28_1_15739">
<rect width="28.9646" height="28.9646" fill="white" transform="translate(705.36 275.16)"/>
</clipPath>
<clipPath id="clip29_1_15739">
<rect width="28.9646" height="28.9646" fill="white" transform="translate(669.955 339.529) rotate(90)"/>
</clipPath>
<clipPath id="clip30_1_15739">
<rect width="28.9646" height="28.9646" fill="white" transform="translate(962.82 239.765) rotate(-90)"/>
</clipPath>
<clipPath id="clip31_1_15739">
<rect width="28.9646" height="28.9646" fill="white" transform="translate(834.09 368.494) rotate(-90)"/>
</clipPath>
<clipPath id="clip32_1_15739">
<rect width="28.9646" height="28.9646" fill="white" transform="translate(1155.92 210.8)"/>
</clipPath>
<clipPath id="clip33_1_15739">
<rect width="28.9646" height="28.9646" fill="white" transform="translate(1091.55 275.16)"/>
</clipPath>
<clipPath id="clip34_1_15739">
<rect width="28.9646" height="28.9646" fill="white" transform="translate(1027.19 339.529)"/>
</clipPath>
<clipPath id="clip35_1_15739">
<rect width="28.9646" height="28.9646" fill="white" transform="translate(1284.65 239.765) rotate(-90)"/>
</clipPath>
</defs>
</svg>
