<svg width="18" height="14" viewBox="0 0 18 14" fill="none" xmlns="http://www.w3.org/2000/svg">
<path d="M16.9704 2.36336C17.3609 2.75388 17.3609 3.38705 16.9704 3.77757L7.77803 12.97C7.3875 13.3605 6.75434 13.3605 6.36381 12.97L4.9496 11.5557C4.55907 11.1652 4.55907 10.5321 4.9496 10.1415L14.142 0.949143C14.5325 0.558619 15.1657 0.558619 15.5562 0.949143L16.9704 2.36336Z" fill="#1EB53A"/>
<path d="M7.77803 12.97C7.3875 13.3605 6.75434 13.3605 6.36381 12.97L0.706956 7.3131C0.316431 6.92258 0.316431 6.28941 0.706956 5.89889L2.12117 4.48468C2.51169 4.09415 3.14486 4.09415 3.53538 4.48468L9.19224 10.1415C9.58276 10.5321 9.58276 11.1652 9.19224 11.5557L7.77803 12.97Z" fill="#1EB53A"/>
</svg>
