<svg width="22" height="22" viewBox="0 0 22 22" fill="none" xmlns="http://www.w3.org/2000/svg">
<path fill-rule="evenodd" clip-rule="evenodd" d="M22 11C22 4.92487 17.0751 0 11 0C4.92487 0 0 4.92487 0 11C0 17.0751 4.92487 22 11 22C17.0751 22 22 17.0751 22 11ZM2.64232 7.65452C3.5557 5.37479 5.3748 3.5557 7.65452 2.64232C7.11964 3.67487 6.70006 4.96224 6.41726 6.41726C4.96224 6.70006 3.67487 7.11964 2.64232 7.65452ZM14.3455 2.64232C14.8804 3.67487 15.2999 4.96224 15.5827 6.41726C17.0378 6.70006 18.3251 7.11964 19.3577 7.65452C18.4443 5.37479 16.6252 3.5557 14.3455 2.64232ZM2 11C2 10.1008 3.62868 9.125 6.11448 8.53819C6.03905 9.33082 6 10.155 6 11C6 11.845 6.03905 12.6692 6.11448 13.4618C3.62868 12.875 2 11.8992 2 11ZM16 11C16 11.845 15.961 12.6692 15.8855 13.4618C18.3713 12.875 20 11.8992 20 11C20 10.1008 18.3713 9.125 15.8855 8.53819C15.961 9.33082 16 10.155 16 11ZM2.64232 14.3455C3.67487 14.8804 4.96224 15.2999 6.41726 15.5827C6.70006 17.0378 7.11964 18.3251 7.65452 19.3577C5.37479 18.4443 3.5557 16.6252 2.64232 14.3455ZM15.5827 15.5827C15.2999 17.0378 14.8804 18.3251 14.3455 19.3577C16.6252 18.4443 18.4443 16.6252 19.3577 14.3455C18.3251 14.8804 17.0378 15.2999 15.5827 15.5827ZM8 11C8 10.0097 8.06211 9.05971 8.17262 8.17262C9.05971 8.06211 10.0097 8 11 8C11.9903 8 12.9403 8.06211 13.8274 8.17262C13.9379 9.05971 14 10.0097 14 11C14 11.9903 13.9379 12.9403 13.8274 13.8274C12.9403 13.9379 11.9903 14 11 14C10.0097 14 9.05971 13.9379 8.17262 13.8274C8.06211 12.9403 8 11.9903 8 11ZM8.53819 15.8855C9.125 18.3713 10.1008 20 11 20C11.8992 20 12.875 18.3713 13.4618 15.8855C12.6692 15.961 11.845 16 11 16C10.155 16 9.33082 15.961 8.53819 15.8855ZM11 2C10.1008 2 9.125 3.62868 8.53819 6.11448C9.33082 6.03905 10.155 6 11 6C11.845 6 12.6692 6.03905 13.4618 6.11448C12.875 3.62868 11.8992 2 11 2Z" fill="#1EB53A"/>
</svg>
