<svg width="24" height="16" viewBox="0 0 24 16" fill="none" xmlns="http://www.w3.org/2000/svg">
<path d="M24 14.125C24 14.4166 24 14.7084 24 15C23.49 15 22.98 15 22.47 15C22.4661 14.9462 22.4172 14.9441 22.386 14.9244C20.367 13.66 18.3475 12.3962 16.3279 11.1328C15.931 10.8847 15.5335 10.6378 15.1381 10.3919C13.4878 12.3534 10.5029 12.3588 8.84749 10.3794C8.83519 10.3853 8.82109 10.39 8.80879 10.3978C6.38722 11.9138 3.96595 13.4297 1.54468 14.9459C1.52488 14.9584 1.49758 14.9666 1.49998 15C0.999888 15 0.500094 15 0 15C0 14.6666 0 14.3334 0 14C0.0509994 14.0094 0.082199 13.9691 0.119099 13.9459C2.39637 12.5331 4.67304 11.12 6.95001 9.70656C7.31331 9.48094 7.6763 9.25469 8.0432 9.02656C7.6406 8.01562 7.7411 7.01031 8.0288 6.01312C7.9817 5.98031 7.9538 5.95875 7.9241 5.94031C5.63933 4.51094 3.35456 3.08125 1.06859 1.65375C0.714291 1.43281 0.368395 1.19625 0.000299996 1C0.000299996 0.666562 0.000299996 0.333438 0.000299996 0C0.510294 0 1.02029 0 1.53028 0C1.53178 0.0475 1.57348 0.050625 1.60108 0.0678125C3.68035 1.36812 5.75993 2.66844 7.8395 3.96844C8.1806 4.18156 8.52229 4.39406 8.86399 4.60687C9.71748 3.62562 10.7735 3.12562 12.0283 3.13469C13.2814 3.14375 14.3311 3.65875 15.1645 4.63594C15.2002 4.61563 15.2269 4.60156 15.2524 4.58563C17.5249 3.155 19.7977 1.725 22.0689 0.2925C22.2153 0.2 22.3785 0.132812 22.5 0C23.0001 0 23.4999 0 24 0C24 0.333438 24 0.666562 24 1C23.9367 0.984375 23.9001 1.03813 23.8563 1.06594C21.5916 2.49219 19.3279 3.91969 17.0644 5.3475C16.6975 5.57875 16.3315 5.81125 15.961 6.04563C16.1452 6.54563 16.2352 7.05344 16.2331 7.57906C16.231 8.10437 16.1278 8.60906 15.9538 9.10406C15.9907 9.12812 16.0198 9.1475 16.0492 9.16594C18.4501 10.6687 20.8506 12.1719 23.2527 13.6731C23.4996 13.8272 23.7369 13.9994 24 14.125ZM9.26178 9.16125C9.48468 9.16125 9.67848 9.16125 9.87258 9.16125C9.98298 9.35219 10.0895 9.53656 10.2038 9.73406C10.3211 9.52969 10.4279 9.34344 10.5377 9.15219C10.7348 9.15219 10.9277 9.15219 11.1401 9.15219C11.0426 8.95406 10.9529 8.77125 10.8662 8.59562C10.9649 8.39937 11.0576 8.21437 11.1599 8.01031C10.9334 8.01031 10.7345 8.01031 10.5323 8.01031C10.4231 7.82094 10.3172 7.63656 10.2026 7.43781C10.0844 7.64313 9.97788 7.82844 9.86838 8.01875C9.66228 8.01875 9.46458 8.01875 9.24828 8.01875C9.35178 8.22313 9.44598 8.40969 9.53988 8.595C9.44988 8.77875 9.36168 8.95781 9.26178 9.16125ZM13.4116 8.01812C13.2118 8.01812 13.0147 8.01812 12.8029 8.01812C12.9046 8.21906 12.997 8.40125 13.0906 8.58594C13.0024 8.76781 12.9157 8.94563 12.8191 9.14469C13.0366 9.14469 13.2298 9.14469 13.4188 9.14469C13.5298 9.33656 13.6339 9.51688 13.7452 9.71C13.8613 9.50906 13.9663 9.32781 14.0767 9.13688C14.272 9.13688 14.464 9.13688 14.6695 9.13688C14.5729 8.94031 14.4847 8.76125 14.3992 8.58719C14.4952 8.39719 14.587 8.21562 14.6902 8.01156C14.4682 8.01156 14.2705 8.01156 14.0752 8.01156C13.9639 7.81844 13.8595 7.63719 13.7449 7.43875C13.6321 7.63437 13.528 7.81531 13.4116 8.01812ZM11.9894 4.22062C11.8712 4.42438 11.7662 4.60531 11.6588 4.79063C11.4587 4.79063 11.2682 4.79063 11.0642 4.79063C11.1641 4.98875 11.2562 5.17062 11.3441 5.345C11.2538 5.52969 11.1695 5.70219 11.0753 5.895C11.2904 5.895 11.4785 5.895 11.6675 5.895C11.7743 6.08063 11.8766 6.25781 11.9885 6.45156C12.0997 6.25938 12.2041 6.07937 12.316 5.88625C12.5065 5.88625 12.6979 5.88625 12.9007 5.88625C12.8053 5.69281 12.7195 5.51844 12.6343 5.34562C12.7279 5.15875 12.8185 4.9775 12.9184 4.77844C12.6979 4.77844 12.5044 4.77844 12.3115 4.77844C12.2053 4.59469 12.103 4.4175 11.9894 4.22062Z" fill="#FDFDFD"/>
<path d="M23.9996 14.1238C23.7365 13.9982 23.4992 13.826 23.2523 13.6719C20.8503 12.1707 18.4497 10.6675 16.0485 9.16473C16.0191 9.14629 15.99 9.12691 15.9531 9.10285C16.1271 8.60785 16.2303 8.10285 16.2324 7.57785C16.2345 7.05223 16.1445 6.54441 15.9603 6.04441C16.3308 5.81004 16.6968 5.57785 17.0637 5.34629C19.3275 3.91847 21.591 2.49066 23.8556 1.06473C23.8994 1.03723 23.936 0.983475 23.9993 0.998788C23.9996 5.37379 23.9996 9.74879 23.9996 14.1238Z" fill="#1EB53A"/>
<path d="M0 1.00195C0.368095 1.1982 0.713991 1.43477 1.06829 1.6557C3.35456 3.0832 5.63903 4.51289 7.9241 5.94227C7.9538 5.9607 7.9817 5.98227 8.0288 6.01508C7.7411 7.01227 7.6406 8.01758 8.0432 9.02852C7.6766 9.25664 7.31361 9.48289 6.95001 9.70852C4.67334 11.122 2.39637 12.5354 0.119099 13.9479C0.082199 13.971 0.0509994 14.0113 0 14.002C0 9.66852 0 5.33539 0 1.00195Z" fill="#1EB53A"/>
<path d="M22.5 0C22.3785 0.132812 22.2153 0.2 22.0689 0.2925C19.7976 1.725 17.5249 3.155 15.2524 4.58531C15.2269 4.60125 15.2002 4.61531 15.1645 4.63562C14.3308 3.65844 13.2814 3.14344 12.0283 3.13438C10.7735 3.12531 9.71747 3.62531 8.86398 4.60656C8.52229 4.39375 8.18059 4.18125 7.83949 3.96813C5.75992 2.66844 3.68035 1.36812 1.60107 0.0678125C1.57347 0.050625 1.53177 0.0475 1.53027 0C8.52019 0 15.5101 0 22.5 0Z" fill="#CE1126"/>
<path d="M1.50015 15.0015C1.49775 14.968 1.52505 14.9599 1.54485 14.9474C3.96612 13.4312 6.38739 11.9149 8.80896 10.3993C8.82126 10.3915 8.83506 10.3868 8.84766 10.3809C10.503 12.3602 13.488 12.3549 15.1383 10.3934C15.5334 10.6396 15.9312 10.8862 16.3281 11.1343C18.3476 12.3977 20.3672 13.6615 22.3862 14.9259C22.4174 14.9455 22.4663 14.9477 22.4702 15.0015C15.48 15.0015 8.49006 15.0015 1.50015 15.0015Z" fill="#CE1126"/>
<path d="M9.26125 9.16062C9.36145 8.95719 9.44934 8.77812 9.53964 8.59469C9.44574 8.40937 9.35155 8.22281 9.24805 8.01844C9.46434 8.01844 9.66204 8.01844 9.86814 8.01844C9.97764 7.82812 10.0841 7.64281 10.2023 7.4375C10.3169 7.63625 10.4228 7.82062 10.532 8.01C10.7342 8.01 10.9334 8.01 11.1596 8.01C11.0573 8.21406 10.9646 8.39875 10.8659 8.59531C10.9523 8.77125 11.0423 8.95375 11.1398 9.15188C10.9274 9.15188 10.7345 9.15188 10.5374 9.15188C10.4276 9.34312 10.3208 9.52906 10.2035 9.73375C10.0895 9.53625 9.98274 9.35188 9.87234 9.16094C9.67764 9.16063 9.48414 9.16062 9.26125 9.16062ZM9.94614 9.01531C10.0322 9.16375 10.1135 9.30375 10.202 9.45563C10.2968 9.29469 10.3793 9.15438 10.4633 9.01156C10.6166 9.01156 10.7597 9.01156 10.9199 9.01156C10.8455 8.85969 10.7786 8.7225 10.7111 8.58437C10.7831 8.44094 10.8539 8.30031 10.9346 8.13938C10.7588 8.13938 10.6061 8.13938 10.454 8.13938C10.3694 7.99344 10.2908 7.8575 10.2026 7.70563C10.1132 7.85844 10.0334 7.99469 9.94824 8.14031C9.79554 8.14031 9.64284 8.14031 9.46914 8.14031C9.54984 8.3 9.62094 8.44063 9.69324 8.58375C9.62544 8.72281 9.55884 8.86031 9.48324 9.01531C9.64944 9.01531 9.79734 9.01531 9.94614 9.01531Z" fill="#1EB53A"/>
<path d="M13.4114 8.01719C13.5278 7.81469 13.6319 7.63344 13.7447 7.4375C13.8593 7.63594 13.9637 7.81719 14.075 8.01031C14.27 8.01031 14.4677 8.01031 14.69 8.01031C14.5868 8.21406 14.495 8.39594 14.399 8.58594C14.4848 8.76031 14.5727 8.93906 14.6693 9.13562C14.4638 9.13562 14.2718 9.13562 14.0765 9.13562C13.9661 9.32656 13.8611 9.50781 13.745 9.70875C13.6334 9.51562 13.5293 9.33531 13.4186 9.14344C13.2296 9.14344 13.0364 9.14344 12.8189 9.14344C12.9155 8.94437 13.0022 8.76656 13.0904 8.58469C12.9968 8.40031 12.9047 8.21781 12.8027 8.01688C13.0145 8.01719 13.2116 8.01719 13.4114 8.01719ZM13.7462 7.70531C13.658 7.85563 13.5761 7.99469 13.4891 8.1425C13.3343 8.1425 13.1822 8.1425 13.0124 8.1425C13.0928 8.30125 13.1639 8.44188 13.2359 8.58406C13.1672 8.72469 13.1003 8.86125 13.025 9.01594C13.1927 9.01594 13.3403 9.01594 13.4894 9.01594C13.5752 9.16406 13.6559 9.30406 13.745 9.45781C13.8389 9.29562 13.9205 9.15438 14.0039 9.01C14.1563 9.01 14.2997 9.01 14.4626 9.01C14.3873 8.85688 14.3201 8.71969 14.2541 8.585C14.3264 8.43969 14.3957 8.30031 14.4749 8.14156C14.2973 8.14156 14.1488 8.14156 13.9979 8.14156C13.9148 7.99781 13.8356 7.86031 13.7462 7.70531Z" fill="#1EB53A"/>
<path d="M11.9899 4.21875C12.1036 4.41563 12.2056 4.59281 12.3118 4.77688C12.5047 4.77688 12.6985 4.77688 12.9187 4.77688C12.8191 4.97594 12.7282 5.15719 12.6346 5.34406C12.7198 5.51688 12.8059 5.69156 12.901 5.88469C12.6979 5.88469 12.5068 5.88469 12.3163 5.88469C12.2044 6.07781 12.1 6.25781 11.9887 6.45C11.8771 6.25625 11.7748 6.07875 11.6677 5.89344C11.4784 5.89344 11.2904 5.89344 11.0756 5.89344C11.1698 5.70062 11.2541 5.52813 11.3443 5.34344C11.2562 5.16906 11.1644 4.98719 11.0645 4.78906C11.2685 4.78906 11.4589 4.78906 11.659 4.78906C11.767 4.60344 11.8717 4.4225 11.9899 4.21875ZM11.27 4.90313C11.3506 5.06375 11.4193 5.20063 11.4901 5.34156C11.4232 5.47813 11.3566 5.61406 11.2811 5.7675C11.4496 5.7675 11.593 5.7675 11.7409 5.7675C11.8228 5.90937 11.9017 6.04594 11.9899 6.19844C12.0772 6.04688 12.1564 5.91 12.2425 5.76062C12.3886 5.76062 12.5353 5.76062 12.6955 5.76062C12.6202 5.60781 12.5548 5.47438 12.4894 5.34125C12.5605 5.20031 12.6292 5.06375 12.7081 4.90688C12.5377 4.90688 12.3907 4.90688 12.2431 4.90688C12.157 4.75875 12.0763 4.62 11.9887 4.46938C11.8975 4.62719 11.8183 4.76469 11.7382 4.90313C11.5867 4.90313 11.4424 4.90313 11.27 4.90313Z" fill="#1EB53A"/>
<path d="M9.94642 9.01672C9.79762 9.01672 9.65002 9.01672 9.48383 9.01672C9.55913 8.86172 9.62602 8.72453 9.69382 8.58516C9.62152 8.44203 9.55043 8.30141 9.46973 8.14172C9.64372 8.14172 9.79642 8.14172 9.94882 8.14172C10.034 7.99609 10.1138 7.85984 10.2032 7.70703C10.2911 7.85891 10.37 7.99484 10.4546 8.14078C10.6067 8.14078 10.7594 8.14078 10.9352 8.14078C10.8545 8.30172 10.7837 8.44234 10.7117 8.58578C10.7792 8.72391 10.8461 8.86109 10.9205 9.01297C10.76 9.01297 10.6169 9.01297 10.4639 9.01297C10.3799 9.15547 10.2971 9.29609 10.2026 9.45703C10.1138 9.30484 10.0325 9.16516 9.94642 9.01672Z" fill="#CE1126"/>
<path d="M13.7465 7.70703C13.8359 7.86203 13.9154 7.99953 13.9982 8.14328C14.1488 8.14328 14.2976 8.14328 14.4752 8.14328C14.396 8.30203 14.3267 8.44141 14.2544 8.58672C14.3204 8.72109 14.3879 8.85828 14.4629 9.01172C14.3 9.01172 14.1566 9.01172 14.0042 9.01172C13.9208 9.15609 13.8392 9.29703 13.7453 9.45953C13.6565 9.30609 13.5755 9.16609 13.4897 9.01766C13.3406 9.01766 13.193 9.01766 13.0253 9.01766C13.1009 8.86297 13.1675 8.72641 13.2362 8.58578C13.1642 8.44359 13.0931 8.30297 13.0127 8.14422C13.1825 8.14422 13.3346 8.14422 13.4894 8.14422C13.5761 7.99641 13.658 7.85703 13.7465 7.70703Z" fill="#CE1126"/>
<path d="M11.2695 4.90641C11.442 4.90641 11.5863 4.90641 11.7384 4.90641C11.8185 4.76797 11.8977 4.63047 11.9889 4.47266C12.0765 4.62328 12.1572 4.76203 12.2433 4.91016C12.3906 4.91016 12.5379 4.91016 12.7083 4.91016C12.6294 5.06703 12.5607 5.20328 12.4896 5.34453C12.555 5.47766 12.6207 5.61109 12.6957 5.76391C12.5352 5.76391 12.3888 5.76391 12.2427 5.76391C12.1566 5.91328 12.0774 6.05047 11.9901 6.20172C11.9019 6.04922 11.823 5.91266 11.7411 5.77078C11.5935 5.77078 11.4498 5.77078 11.2812 5.77078C11.3565 5.61734 11.4231 5.48141 11.4903 5.34484C11.4192 5.20391 11.3505 5.06703 11.2695 4.90641Z" fill="#CE1126"/>
</svg>
