<svg width="85" height="30" viewBox="0 0 85 30" fill="none" xmlns="http://www.w3.org/2000/svg">
<path fill-rule="evenodd" clip-rule="evenodd" d="M3.93327 15.7298C4.97259 15.7298 6.14774 16.1667 6.76936 17.0312H6.84701V15.9532H9.66363V24.8204C9.66363 27.7632 7.23564 29.1617 4.82686 29.1617C2.48644 29.1617 0.203905 27.8312 0.184414 25.3352H2.98151C3.04958 26.4519 3.85561 26.9668 4.78817 26.9668C5.72044 26.9668 6.6722 26.3937 6.6722 24.9757V23.6161H6.59453C5.96333 24.3735 4.90452 24.7814 3.93327 24.7814C1.57336 24.7814 0 22.5283 0 20.2265C0 17.9248 1.57336 15.7298 3.93327 15.7298ZM31.8653 15.9436V20.9648C31.8653 21.7126 32.4479 22.3147 33.1763 22.3147C33.9047 22.3147 34.4876 21.7126 34.4876 20.9648V15.9436H37.4787V20.9162C37.4787 23.4608 35.7305 25.0147 33.1763 25.0147C30.6706 25.0147 28.8739 23.5189 28.8739 20.9162V15.9436H31.8653ZM80.3281 15.7103C82.9311 15.7103 85 17.6528 85 20.3722C85 20.6256 84.9765 20.84 84.9571 20.9793L84.9514 21.0229H78.7065C78.8133 22.1591 79.5221 22.8002 80.3866 22.8002C80.8687 22.8002 81.3596 22.6057 81.7833 22.1402L81.8432 22.0719H84.7278C83.9801 24.0725 82.1543 25.0047 80.3281 25.0047C77.9877 25.0047 75.6567 23.4608 75.6567 20.3722C75.6567 17.6528 77.7254 15.7103 80.3281 15.7103ZM15.8113 15.6326C18.5212 15.6326 20.7354 17.5461 20.7354 20.3042C20.7354 23.0626 18.5212 24.9757 15.8113 24.9757C13.1114 24.9757 10.9263 23.0818 10.9263 20.3042C10.9263 17.5265 13.1114 15.6326 15.8113 15.6326ZM58.8551 10.5824V24.7814H56.0386V23.6062H55.9609C55.1935 24.4708 54.1252 24.9562 53.0471 24.9562C50.6192 24.9562 49.0068 22.742 49.0068 20.3432C49.0068 17.9443 50.6192 15.7394 53.0471 15.7394C53.9794 15.7394 55.0964 16.089 55.7861 16.9244H55.8637V10.5824H58.8551ZM26.1838 10.3299C26.7373 10.3299 27.3104 10.3977 27.8058 10.5143V12.9327C27.5824 12.8745 27.4076 12.8451 27.2133 12.8451C26.4073 12.8451 25.7079 13.1756 25.7079 14.2436V15.9532H27.5338V18.3716H25.7079V24.7814H22.7165V18.3716H21.4152V15.9532H22.7165V13.6223C22.7165 11.4175 24.2803 10.3299 26.1838 10.3299ZM44.559 15.7103C46.21 15.7103 47.7444 16.8758 47.7444 19.1485V24.7814H44.7533V19.7701C44.7533 18.8861 44.1608 18.2939 43.4129 18.2939C42.6651 18.2939 42.0725 18.9056 42.0725 19.7701V24.7814H39.0814V15.9532H41.8977V17.0603H41.9754C42.6456 16.1475 43.7139 15.7103 44.559 15.7103ZM71.306 15.7103C72.8889 15.7103 74.3945 16.8953 74.3945 19.1194V24.7814H71.4031V19.6634C71.4031 18.8375 70.8591 18.2939 70.1794 18.2939C69.4897 18.2939 68.9457 18.8474 68.9457 19.6634V24.7814H65.9546V19.6634C65.9546 18.8375 65.4107 18.2939 64.7309 18.2939C64.0412 18.2939 63.4973 18.8474 63.4973 19.6634V24.7814H60.5058V15.9532H63.3225V17.0603H63.4001C63.9927 16.1667 64.993 15.7202 65.9447 15.7202C66.8674 15.7202 67.8291 16.2057 68.4117 17.245H68.4893C69.2276 16.1861 70.2861 15.7103 71.306 15.7103ZM53.9116 18.3617C52.8142 18.3617 51.9205 19.2553 51.9205 20.3527C51.9205 21.4502 52.8142 22.3534 53.9116 22.3534C55.0091 22.3534 55.9024 21.4502 55.9024 20.3527C55.9024 19.2553 55.0091 18.3617 53.9116 18.3617ZM15.8309 18.2939C14.7528 18.2939 13.8787 19.1872 13.8787 20.3042C13.8787 21.4212 14.7528 22.3147 15.8309 22.3147C16.9089 22.3147 17.7829 21.4212 17.7829 20.3042C17.7829 19.1872 16.9089 18.2939 15.8309 18.2939ZM4.81726 18.3617C3.76835 18.3617 2.91374 19.2067 2.91374 20.2556C2.91374 21.3045 3.76835 22.1591 4.81726 22.1591C5.86618 22.1591 6.71118 21.3045 6.71118 20.2556C6.71118 19.2067 5.86618 18.3617 4.81726 18.3617ZM80.3476 17.9053C79.5611 17.9053 78.8909 18.4102 78.6675 19.4205H81.9793C81.7946 18.4297 81.1344 17.9053 80.3476 17.9053ZM83.5314 12.9762L84.083 14.5975L84.6306 12.9762H85V14.8938H84.7513V13.7618C84.7513 13.7228 84.7529 13.6581 84.7546 13.5675C84.7562 13.4769 84.757 13.3798 84.757 13.2763L84.2094 14.8938H83.9518L83.3993 13.2763V13.3351C83.3993 13.3822 83.401 13.4535 83.4034 13.5498C83.4058 13.6461 83.4074 13.7165 83.4074 13.7618V14.8938H83.1588V12.9762H83.5314ZM82.9271 12.9762V13.2047H82.2807V14.8938H82.0182V13.2047H81.3718V12.9762H82.9271ZM42.4998 8.40871C45.8628 8.40871 48.7966 10.2367 50.3679 12.9519H34.6321C36.2033 10.2367 39.1372 8.40871 42.4998 8.40871ZM51.5376 4.05202C52.1205 3.46909 53.0741 3.46909 53.6567 4.05202C54.2397 4.63464 54.2397 5.5882 53.6567 6.17113L51.3982 8.42969C50.8156 9.01227 49.862 9.01227 49.2791 8.42969L49.2277 8.37566C48.697 7.7893 48.7141 6.87554 49.2791 6.31057L51.5376 4.05202ZM31.4053 4.00063C31.9917 3.46962 32.9055 3.48675 33.4705 4.05202L35.7293 6.31057C36.312 6.8932 36.312 7.84675 35.7293 8.42969C35.1464 9.01227 34.1928 9.01227 33.6102 8.42969L31.3513 6.17113C30.7687 5.5882 30.7687 4.63464 31.3513 4.05202L31.4053 4.00063ZM42.481 0L42.5457 0.00139153C43.3403 0.0355978 43.9794 0.696079 43.9794 1.4987V4.69252C43.9794 5.51683 43.3053 6.19122 42.481 6.19122C41.6569 6.19122 40.9825 5.51683 40.9825 4.69252V1.4987C40.9825 0.674386 41.6569 0 42.481 0V0Z" fill="#02A95C"/>
</svg>
