<svg width="90" height="24" viewBox="0 0 90 24" fill="none" xmlns="http://www.w3.org/2000/svg">
<path d="M86.7359 5.0576L84.588 18.5528C84.5799 18.6024 84.5828 18.6531 84.5964 18.7014C84.6101 18.7498 84.6341 18.7945 84.6668 18.8326C84.6996 18.8706 84.7403 18.901 84.786 18.9217C84.8318 18.9424 84.8815 18.9528 84.9317 18.9522H87.4736C87.5633 18.953 87.6503 18.9216 87.7189 18.8638C87.7874 18.8059 87.833 18.7254 87.8473 18.6369L89.9953 5.14165C90.0033 5.0921 90.0004 5.04138 89.9868 4.99306C89.9732 4.94474 89.9491 4.89999 89.9164 4.86193C89.8836 4.82388 89.843 4.79345 89.7972 4.77278C89.7515 4.75211 89.7017 4.74169 89.6515 4.74226H87.1096C87.0196 4.74048 86.9321 4.7715 86.8633 4.82953C86.7946 4.88755 86.7493 4.96862 86.7359 5.0576ZM84.0215 8.99583H81.6097C81.5201 8.99495 81.4331 9.02624 81.3647 9.084C81.2962 9.14177 81.2507 9.22218 81.2365 9.31063L81.1567 9.80746C81.1567 9.80746 79.2834 7.77624 75.9668 9.14895C74.064 9.93488 73.1507 11.5587 72.762 12.7483C72.762 12.7483 71.5285 16.3637 74.3183 18.3537C74.3183 18.3537 76.9053 20.2677 79.8183 18.2359L79.768 18.5528C79.7563 18.6273 79.7694 18.7035 79.8051 18.7699C79.8409 18.8362 79.8974 18.889 79.966 18.9201C80.0116 18.9415 80.0613 18.9522 80.1117 18.9522H82.5251C82.6151 18.954 82.7026 18.923 82.7714 18.865C82.8402 18.8069 82.8855 18.7259 82.8988 18.6369L84.3668 9.39522C84.3751 9.34572 84.3722 9.29502 84.3584 9.24677C84.3446 9.19853 84.3202 9.15396 84.2871 9.11629C84.2544 9.07791 84.2136 9.04717 84.1678 9.02626C84.1219 9.00536 84.0719 8.99478 84.0215 8.9953V8.99583ZM80.4725 14.1033C80.3784 14.749 80.0519 15.3382 79.5543 15.7603C79.0546 16.184 78.4186 16.4127 77.7635 16.4044C77.5066 16.4074 77.2508 16.3702 77.0054 16.2941C75.9641 15.9622 75.3698 14.9696 75.5406 13.8935C75.6355 13.2481 75.9623 12.6594 76.4599 12.2375C76.9592 11.8137 77.5947 11.5842 78.2496 11.5913C78.5066 11.5887 78.7624 11.6263 79.0077 11.7027C80.0555 12.0325 80.647 13.0267 80.4752 14.1039H80.4725V14.1033ZM67.5935 14.3587C68.9014 14.3587 70.1665 13.894 71.1602 13.0492C72.1518 12.2072 72.8083 11.0374 73.0104 9.75232C73.4328 7.07918 71.3293 4.74601 68.3473 4.74601H63.5434C63.4537 4.74515 63.3667 4.77651 63.2982 4.83438C63.2297 4.89226 63.1843 4.9728 63.1702 5.06134L61.0217 18.5566C61.0101 18.631 61.0231 18.7073 61.0589 18.7736C61.0947 18.8399 61.1512 18.8927 61.2198 18.9239C61.2659 18.9453 61.3151 18.956 61.3654 18.956H63.909C63.9987 18.9568 64.0857 18.9255 64.1541 18.8676C64.2226 18.8097 64.2681 18.7292 64.2822 18.6406L64.9128 14.6778C64.9261 14.5887 64.9714 14.5075 65.0401 14.4494C65.1089 14.3912 65.1965 14.3602 65.2865 14.3619L67.5935 14.3587ZM69.7211 9.63079C69.5642 10.6191 68.7943 11.3467 67.3215 11.3467H65.4386L66.0104 7.75268H67.8596C69.3822 7.75536 69.8779 8.64676 69.7211 9.63346V9.63079Z" fill="#0070E0"/>
<path d="M58.1246 9.22454L55.2154 14.0991L53.7388 9.26041C53.7157 9.18319 53.6681 9.11558 53.6032 9.06778C53.5383 9.01998 53.4597 8.99457 53.3791 8.9954H50.7536C50.6857 8.99448 50.6197 9.01814 50.5678 9.06202C50.516 9.1059 50.4818 9.16704 50.4714 9.23418C50.465 9.27869 50.4696 9.32409 50.4848 9.36642L53.1307 17.517L50.7375 21.3578C50.7172 21.3894 50.7036 21.4248 50.6974 21.4619C50.6913 21.499 50.6927 21.5369 50.7018 21.5734C50.7108 21.6099 50.7271 21.6442 50.7499 21.6741C50.7726 21.704 50.8012 21.729 50.8339 21.7475C50.8777 21.7727 50.9274 21.7856 50.9779 21.785H53.8058C53.8865 21.7853 53.9659 21.7648 54.0363 21.7254C54.1067 21.686 54.1658 21.6291 54.2078 21.5602L61.5982 9.42477C61.625 9.38252 61.6397 9.33374 61.6407 9.28372C61.6417 9.2337 61.6291 9.18435 61.6041 9.14102C61.5791 9.09754 61.5429 9.06155 61.4993 9.03679C61.4557 9.01202 61.4063 8.9994 61.3562 9.00022H58.5294C58.4483 8.99947 58.3684 9.01974 58.2975 9.05905C58.2265 9.09837 58.167 9.15538 58.1246 9.22454ZM49.2652 8.9954H46.8512C46.7614 8.99454 46.6743 9.02596 46.6057 9.08393C46.5371 9.14191 46.4916 9.22258 46.4775 9.31127L46.3994 9.80757C46.3994 9.80757 44.5245 7.77635 41.2078 9.14905C39.3056 9.93499 38.3917 11.5588 38.0046 12.7484C38.0046 12.7484 36.7701 16.3638 39.5594 18.3538C39.5594 18.3538 42.1469 20.2678 45.0598 18.236L45.0095 18.5529C44.9977 18.6274 45.0107 18.7037 45.0465 18.7701C45.0822 18.8365 45.1389 18.8892 45.2076 18.9202C45.2531 18.9416 45.3029 18.9523 45.3532 18.9523H47.7667C47.8563 18.953 47.9432 18.9215 48.0116 18.8637C48.0801 18.8059 48.1256 18.7255 48.1399 18.637L49.6084 9.39533C49.6204 9.32077 49.6075 9.24436 49.5717 9.17788C49.5358 9.1114 49.4792 9.05856 49.4103 9.02752C49.3646 9.0065 49.315 8.99554 49.2647 8.9954H49.2652ZM45.7157 14.104C45.6207 14.7489 45.2941 15.3371 44.797 15.7588C44.2975 16.1824 43.6621 16.4117 43.0072 16.4045C42.7507 16.4073 42.4953 16.3701 42.2502 16.2942C41.2094 15.9623 40.6157 14.9697 40.7865 13.893C40.8816 13.2462 41.2096 12.6564 41.7089 12.2344C42.2101 11.8106 42.8477 11.5822 43.504 11.5914C43.761 11.5888 44.0175 11.6262 44.2627 11.7028C45.2997 12.0326 45.8902 13.0263 45.7189 14.104H45.7162H45.7157ZM32.8372 14.3588C34.1429 14.3581 35.4059 13.8934 36.4007 13.0477C37.3913 12.2057 38.0471 11.0363 38.2488 9.75189C38.6717 7.07929 36.5677 4.74611 33.5867 4.74611H28.7822C28.6926 4.74521 28.6056 4.77648 28.537 4.83424C28.4685 4.892 28.4229 4.97242 28.4085 5.06091L26.267 18.5524C26.2551 18.627 26.268 18.7034 26.3038 18.7699C26.3396 18.8363 26.3963 18.8892 26.4651 18.9202C26.5106 18.9411 26.5604 18.9523 26.6108 18.9523H29.1527C29.2425 18.9532 29.3296 18.9218 29.3982 18.8638C29.4668 18.8058 29.5123 18.7252 29.5264 18.6365L30.156 14.6736C30.1694 14.5846 30.2147 14.5036 30.2835 14.4455C30.3522 14.3875 30.4398 14.3565 30.5297 14.3583H32.8372V14.3588ZM34.9648 9.63036C34.8079 10.6187 34.0386 11.3462 32.5657 11.3462H30.6828L31.2535 7.75225H33.1027C34.6259 7.75493 35.1211 8.64687 34.9648 9.63303V9.63036Z" fill="#003087"/>
<path d="M16.4034 5.44004C16.4607 2.46013 14.0028 0.174072 10.6229 0.174072H3.63199C3.46907 0.173996 3.31149 0.232096 3.18762 0.337908C3.06374 0.443719 2.98173 0.590287 2.95634 0.751209L0.155247 18.2543C0.142715 18.3336 0.147521 18.4147 0.169334 18.492C0.191147 18.5693 0.229449 18.6409 0.281603 18.702C0.333757 18.763 0.398524 18.812 0.471445 18.8457C0.544366 18.8793 0.623708 18.8967 0.704009 18.8967H4.84569L4.19842 22.9495C4.18588 23.0289 4.19069 23.11 4.2125 23.1872C4.23431 23.2645 4.27262 23.3362 4.32477 23.3972C4.37692 23.4583 4.44169 23.5073 4.51461 23.5409C4.58753 23.5746 4.66688 23.592 4.74718 23.592H8.12112C8.28388 23.592 8.42896 23.5336 8.55317 23.4282C8.67631 23.3222 8.69665 23.176 8.72235 23.0149L9.7128 17.1878C9.73796 17.0272 9.81987 16.8184 9.94355 16.7124C10.0672 16.6064 10.1754 16.5486 10.3387 16.5486H12.4031C15.7133 16.5486 18.5214 14.1956 19.0348 10.9234C19.3983 8.60091 18.4025 6.48724 16.4034 5.43951V5.44004Z" fill="#001C64"/>
<path d="M5.74187 12.4417L4.7102 18.9829L4.06239 23.086C4.04994 23.1653 4.05482 23.2464 4.0767 23.3237C4.09858 23.4009 4.13695 23.4725 4.18915 23.5335C4.24136 23.5945 4.30616 23.6435 4.3791 23.6771C4.45204 23.7106 4.53139 23.728 4.61169 23.7279H8.18265C8.34541 23.7279 8.5028 23.6697 8.62647 23.5639C8.75014 23.4581 8.83197 23.3116 8.85723 23.1508L9.79842 17.1872C9.82379 17.0264 9.90573 16.8799 10.0295 16.7741C10.1533 16.6683 10.3107 16.6101 10.4735 16.6101H12.5754C15.8857 16.6101 18.6937 14.1955 19.2077 10.9233C19.5717 8.60085 18.4025 6.48719 16.4034 5.43945C16.398 5.6868 16.3766 5.93361 16.3386 6.17827C15.8252 9.44943 13.016 11.8645 9.70687 11.8645H6.41698C6.25411 11.8647 6.09665 11.923 5.9729 12.0289C5.84915 12.1347 5.76723 12.2813 5.74187 12.4422" fill="#0070E0"/>
<path d="M4.70965 18.9823H0.555127C0.474844 18.9823 0.395517 18.9649 0.322616 18.9313C0.249716 18.8976 0.184977 18.8486 0.132863 18.7875C0.0807497 18.7265 0.0425009 18.6548 0.0207547 18.5775C-0.000991569 18.5002 -0.00571798 18.4192 0.00690137 18.3399L2.80799 0.577137C2.83337 0.416305 2.91531 0.269809 3.03907 0.164009C3.16283 0.0582089 3.32028 5.09031e-05 3.4831 0H10.6229C14.0027 0 16.4606 2.45952 16.4034 5.4389C15.5623 4.99775 14.574 4.74558 13.4914 4.74558H7.53912C7.37621 4.74551 7.21862 4.80361 7.09475 4.90942C6.97088 5.01523 6.88886 5.1618 6.86347 5.32272L5.7424 12.4411L4.70912 18.9823H4.70965Z" fill="#003087"/>
</svg>
