<svg width="123" height="33" viewBox="0 0 123 33" fill="none" xmlns="http://www.w3.org/2000/svg">
<path d="M117.674 6.85998L114.76 25.1688C114.749 25.2361 114.753 25.3049 114.771 25.3704C114.79 25.436 114.822 25.4967 114.867 25.5483C114.911 25.6 114.967 25.6412 115.029 25.6693C115.091 25.6973 115.158 25.7115 115.226 25.7107H118.675C118.797 25.7117 118.915 25.6692 119.008 25.5907C119.101 25.5122 119.162 25.403 119.182 25.2829L122.096 6.97402C122.107 6.90678 122.103 6.83798 122.084 6.77243C122.066 6.70687 122.033 6.64615 121.989 6.59453C121.944 6.5429 121.889 6.50162 121.827 6.47357C121.765 6.44552 121.698 6.43139 121.63 6.43217H118.181C118.059 6.42975 117.94 6.47183 117.847 6.55056C117.754 6.62928 117.692 6.73927 117.674 6.85998ZM113.991 12.2029H110.719C110.598 12.2017 110.48 12.2442 110.387 12.3226C110.294 12.4009 110.232 12.51 110.213 12.63L110.105 13.3041C110.105 13.3041 107.563 10.5483 103.064 12.4107C100.482 13.4769 99.2431 15.6799 98.7158 17.2939C98.7158 17.2939 97.0423 22.1988 100.827 24.8986C100.827 24.8986 104.337 27.4953 108.289 24.7388L108.221 25.1688C108.205 25.2698 108.223 25.3733 108.271 25.4632C108.32 25.5532 108.396 25.6248 108.489 25.6671C108.551 25.6962 108.619 25.7107 108.687 25.7107H111.961C112.083 25.7131 112.202 25.671 112.295 25.5923C112.389 25.5136 112.45 25.4036 112.468 25.2829L114.46 12.7448C114.471 12.6776 114.467 12.6088 114.448 12.5434C114.43 12.4779 114.397 12.4175 114.352 12.3664C114.307 12.3143 114.252 12.2726 114.19 12.2442C114.128 12.2159 114.06 12.2015 113.991 12.2022V12.2029ZM109.177 19.1322C109.049 20.0082 108.606 20.8076 107.931 21.3802C107.253 21.955 106.39 22.2653 105.501 22.254C105.153 22.2581 104.806 22.2076 104.473 22.1044C103.06 21.6541 102.254 20.3074 102.485 18.8475C102.614 17.9719 103.058 17.1732 103.733 16.6009C104.41 16.0259 105.272 15.7146 106.161 15.7242C106.509 15.7206 106.856 15.7716 107.189 15.8753C108.611 16.3227 109.413 17.6716 109.18 19.1329H109.177V19.1322ZM91.7037 19.4787C93.4781 19.4787 95.1945 18.8482 96.5426 17.7021C97.8878 16.5598 98.7786 14.9726 99.0528 13.2293C99.6259 9.60264 96.7721 6.43725 92.7264 6.43725H86.2089C86.0873 6.43608 85.9693 6.47863 85.8763 6.55715C85.7834 6.63567 85.7218 6.74493 85.7027 6.86506L82.7879 25.1739C82.772 25.2749 82.7898 25.3783 82.8383 25.4683C82.8868 25.5583 82.9635 25.6299 83.0566 25.6722C83.1191 25.7012 83.1859 25.7158 83.2542 25.7158H86.705C86.8266 25.7169 86.9447 25.6744 87.0376 25.5959C87.1305 25.5174 87.1921 25.4081 87.2113 25.288L88.0669 19.9116C88.0849 19.7907 88.1463 19.6806 88.2396 19.6017C88.3329 19.5228 88.4517 19.4807 88.5739 19.483L91.7037 19.4787ZM94.5902 13.0644C94.3773 14.4052 93.3329 15.3923 91.3347 15.3923H88.7802L89.5559 10.5164H92.0647C94.1304 10.52 94.803 11.7294 94.5902 13.068V13.0644Z" fill="#0070E0"/>
<path d="M78.8566 12.5148L74.9097 19.1282L72.9065 12.5635C72.8751 12.4587 72.8105 12.367 72.7225 12.3021C72.6345 12.2373 72.5277 12.2028 72.4184 12.204H68.8564C68.7643 12.2027 68.6748 12.2348 68.6044 12.2943C68.5341 12.3539 68.4876 12.4368 68.4736 12.5279C68.4649 12.5883 68.4712 12.6499 68.4918 12.7073L72.0813 23.7651L68.8346 28.9759C68.807 29.0188 68.7885 29.0668 68.7802 29.1171C68.7718 29.1674 68.7739 29.2189 68.7861 29.2684C68.7983 29.3179 68.8205 29.3644 68.8514 29.405C68.8822 29.4456 68.921 29.4795 68.9653 29.5046C69.0247 29.5388 69.0922 29.5563 69.1607 29.5555H72.9973C73.1067 29.5559 73.2145 29.528 73.31 29.4746C73.4056 29.4211 73.4857 29.3439 73.5427 29.2504L83.5691 12.7865C83.6055 12.7291 83.6254 12.663 83.6268 12.5951C83.6282 12.5273 83.6111 12.4603 83.5771 12.4015C83.5433 12.3425 83.4942 12.2937 83.4351 12.2601C83.3759 12.2265 83.3088 12.2094 83.2408 12.2105H79.4058C79.2957 12.2095 79.1873 12.237 79.0911 12.2903C78.9949 12.3436 78.9141 12.421 78.8566 12.5148ZM66.8372 12.204H63.5621C63.4403 12.2028 63.3221 12.2454 63.229 12.3241C63.136 12.4027 63.0743 12.5122 63.0551 12.6325L62.9491 13.3058C62.9491 13.3058 60.4054 10.5501 55.9058 12.4124C53.3251 13.4787 52.0852 15.6817 51.5601 17.2956C51.5601 17.2956 49.8851 22.2006 53.6693 24.9004C53.6693 24.9004 57.1798 27.497 61.1318 24.7406L61.0635 25.1706C61.0474 25.2716 61.065 25.3751 61.1136 25.4652C61.1622 25.5552 61.239 25.6268 61.3322 25.6688C61.394 25.6979 61.4615 25.7124 61.5298 25.7124H64.8041C64.9257 25.7133 65.0436 25.6706 65.1364 25.5922C65.2293 25.5137 65.291 25.4046 65.3104 25.2846L67.3028 12.7465C67.319 12.6454 67.3015 12.5417 67.2529 12.4515C67.2043 12.3613 67.1274 12.2896 67.034 12.2475C66.972 12.219 66.9047 12.2041 66.8364 12.204H66.8372ZM62.0215 19.1347C61.8926 20.0096 61.4496 20.8077 60.7751 21.3798C60.0975 21.9545 59.2354 22.2655 58.347 22.2558C57.9989 22.2596 57.6524 22.2092 57.3199 22.1061C55.9079 21.6558 55.1024 20.3092 55.3341 18.8485C55.4632 17.971 55.9082 17.1708 56.5856 16.5983C57.2656 16.0233 58.1306 15.7135 59.021 15.726C59.3697 15.7223 59.7176 15.7732 60.0502 15.8771C61.4572 16.3245 62.2583 17.6726 62.0259 19.1347H62.0223H62.0215ZM44.5494 19.4804C46.3209 19.4795 48.0343 18.8491 49.3839 17.7016C50.728 16.5593 51.6177 14.9728 51.8913 13.2303C52.4651 9.60438 49.6106 6.43899 45.5663 6.43899H39.0481C38.9265 6.43777 38.8085 6.48019 38.7155 6.55855C38.6224 6.63691 38.5606 6.74602 38.5411 6.86608L35.6358 25.1698C35.6195 25.271 35.6371 25.3747 35.6856 25.4649C35.7342 25.5551 35.8111 25.6267 35.9045 25.6688C35.9663 25.6972 36.0338 25.7124 36.1021 25.7124H39.5507C39.6726 25.7136 39.7908 25.671 39.8838 25.5923C39.9769 25.5137 40.0386 25.4042 40.0577 25.2839L40.9119 19.9075C40.9301 19.7868 40.9915 19.6768 41.0848 19.5981C41.1781 19.5194 41.2968 19.4773 41.4189 19.4797H44.5494V19.4804ZM47.4359 13.0654C47.2231 14.4062 46.1793 15.3933 44.1812 15.3933H41.6266L42.4009 10.5174H44.9097C46.9761 10.521 47.648 11.7311 47.4359 13.069V13.0654Z" fill="#003087"/>
<path d="M22.2531 7.37933C22.3309 3.33652 18.9962 0.235046 14.4108 0.235046H4.92629C4.70527 0.234943 4.49147 0.313767 4.32342 0.45732C4.15536 0.600873 4.04409 0.79972 4.00965 1.01804L0.209434 24.7643C0.192431 24.8719 0.198951 24.9819 0.228545 25.0867C0.258138 25.1916 0.310103 25.2888 0.38086 25.3716C0.451617 25.4545 0.539485 25.521 0.638416 25.5666C0.737347 25.6122 0.84499 25.6359 0.953933 25.6359H6.5729L5.69476 31.1343C5.67775 31.2419 5.68427 31.3519 5.71387 31.4567C5.74346 31.5616 5.79542 31.6588 5.86618 31.7416C5.93694 31.8245 6.02481 31.891 6.12374 31.9366C6.22267 31.9822 6.33031 32.0059 6.43925 32.0059H11.0166C11.2375 32.0059 11.4343 31.9267 11.6028 31.7836C11.7699 31.6398 11.7975 31.4415 11.8323 31.2229L13.1761 23.3174C13.2102 23.0995 13.3213 22.8162 13.4891 22.6724C13.6569 22.5286 13.8036 22.4502 14.0252 22.4502H16.8259C21.3169 22.4502 25.1265 19.2579 25.8231 14.8185C26.3163 11.6676 24.9653 8.80005 22.2531 7.3786V7.37933Z" fill="#001C64"/>
<path d="M7.78961 16.8789L6.38995 25.7533L5.51108 31.32C5.49418 31.4276 5.50081 31.5376 5.53049 31.6424C5.56018 31.7472 5.61223 31.8443 5.68305 31.9271C5.75388 32.0099 5.8418 32.0763 5.94076 32.1218C6.03972 32.1674 6.14737 32.1909 6.2563 32.1909H11.101C11.3218 32.1908 11.5353 32.1118 11.7031 31.9683C11.8709 31.8247 11.9819 31.626 12.0162 31.4079L13.2931 23.3172C13.3275 23.099 13.4387 22.9002 13.6066 22.7567C13.7745 22.6131 13.9881 22.5342 14.209 22.5342H17.0606C21.5516 22.5342 25.3612 19.2584 26.0585 14.819C26.5524 11.6681 24.9661 8.80054 22.2539 7.37909C22.2467 7.71466 22.2176 8.0495 22.1661 8.38144C21.4695 12.8194 17.6584 16.0959 13.1689 16.0959H8.70552C8.48456 16.0961 8.27093 16.1752 8.10304 16.3189C7.93515 16.4625 7.82401 16.6614 7.78961 16.8796" fill="#0070E0"/>
<path d="M6.38953 25.7531H0.753135C0.644215 25.7531 0.536593 25.7295 0.43769 25.6838C0.338787 25.6382 0.250957 25.5717 0.180254 25.4888C0.109552 25.406 0.0576606 25.3088 0.0281577 25.2039C-0.00134525 25.0991 -0.00775752 24.9891 0.00936302 24.8815L3.80957 0.782995C3.844 0.564797 3.95516 0.366048 4.12307 0.222509C4.29097 0.0789714 4.50459 6.90596e-05 4.72549 0H14.412C18.9973 0 22.332 3.33681 22.2543 7.37889C21.1132 6.78039 19.7724 6.43828 18.3037 6.43828H10.2282C10.0072 6.43818 9.79343 6.517 9.62537 6.66055C9.45731 6.80411 9.34604 7.00295 9.3116 7.22127L7.79064 16.8787L6.38881 25.7531H6.38953Z" fill="#003087"/>
</svg>
