<svg width="109" height="38" viewBox="0 0 109 38" fill="none" xmlns="http://www.w3.org/2000/svg">
<path fill-rule="evenodd" clip-rule="evenodd" d="M5.04384 20.1711C6.37661 20.1711 7.88357 20.7314 8.6807 21.84H8.78029V20.4576H12.3922V31.8285C12.3922 35.6022 9.27864 37.3956 6.18974 37.3956C3.1885 37.3956 0.261479 35.6895 0.236484 32.4887H3.82335C3.91064 33.9207 4.94426 34.5809 6.14013 34.5809C7.33562 34.5809 8.55611 33.8461 8.55611 32.0276V30.2842H8.45652C7.64709 31.2555 6.28932 31.7785 5.04384 31.7785C2.01761 31.7785 0 28.8892 0 25.9375C0 22.9859 2.01761 20.1711 5.04384 20.1711ZM40.8625 20.4453V26.8843C40.8625 27.8432 41.6097 28.6154 42.5437 28.6154C43.4777 28.6154 44.2252 27.8432 44.2252 26.8843V20.4453H48.0609V26.8219C48.0609 30.085 45.8191 32.0777 42.5437 32.0777C39.3306 32.0777 37.0265 30.1596 37.0265 26.8219V20.4453H40.8625ZM103.009 20.1462C106.347 20.1462 109 22.6371 109 26.1244C109 26.4493 108.97 26.7242 108.945 26.9028L108.938 26.9588H100.929C101.066 28.4158 101.975 29.2379 103.084 29.2379C103.702 29.2379 104.332 28.9885 104.875 28.3915L104.952 28.3039H108.651C107.692 30.8695 105.351 32.0649 103.009 32.0649C100.008 32.0649 97.0185 30.085 97.0185 26.1244C97.0185 22.6371 99.6713 20.1462 103.009 20.1462ZM20.2757 20.0466C23.7507 20.0466 26.5901 22.5002 26.5901 26.0371C26.5901 29.5743 23.7507 32.0276 20.2757 32.0276C16.8135 32.0276 14.0114 29.599 14.0114 26.0371C14.0114 22.4752 16.8135 20.0466 20.2757 20.0466ZM75.473 13.5704V31.7785H71.8612V30.2715H71.7616C70.7776 31.3801 69.4076 32.0027 68.0252 32.0027C64.9117 32.0027 62.844 29.1633 62.844 26.0871C62.844 23.0109 64.9117 20.1835 68.0252 20.1835C69.2207 20.1835 70.653 20.6318 71.5375 21.7031H71.637V13.5704H75.473ZM33.5769 13.2466C34.2867 13.2466 35.0215 13.3335 35.6569 13.4831V16.5842C35.3704 16.5097 35.1462 16.472 34.897 16.472C33.8634 16.472 32.9667 16.8958 32.9667 18.2654V20.4576H35.308V23.5588H32.9667V31.7785H29.1306V23.5588H27.4618V20.4576H29.1306V17.4687C29.1306 14.6412 31.1359 13.2466 33.5769 13.2466ZM57.1403 20.1462C59.2576 20.1462 61.2252 21.6408 61.2252 24.5551V31.7785H57.3895V25.3523C57.3895 24.2187 56.6297 23.4592 55.6707 23.4592C54.7117 23.4592 53.9518 24.2437 53.9518 25.3523V31.7785H50.1162V20.4576H53.7277V21.8773H53.8273C54.6867 20.7068 56.0567 20.1462 57.1403 20.1462ZM91.4394 20.1462C93.4693 20.1462 95.4 21.6658 95.4 24.5178V31.7785H91.564V25.2154C91.564 24.1563 90.8664 23.4592 89.9947 23.4592C89.1103 23.4592 88.4128 24.169 88.4128 25.2154V31.7785H84.5771V25.2154C84.5771 24.1563 83.8796 23.4592 83.0078 23.4592C82.1234 23.4592 81.4259 24.169 81.4259 25.2154V31.7785H77.5898V20.4576H81.2017V21.8773H81.3014C82.0612 20.7314 83.344 20.1589 84.5644 20.1589C85.7476 20.1589 86.9808 20.7814 87.7279 22.1141H87.8275C88.7742 20.7564 90.1316 20.1462 91.4394 20.1462ZM69.1337 23.5462C67.7264 23.5462 66.5805 24.692 66.5805 26.0994C66.5805 27.5068 67.7264 28.6649 69.1337 28.6649C70.5411 28.6649 71.6866 27.5068 71.6866 26.0994C71.6866 24.692 70.5411 23.5462 69.1337 23.5462ZM20.3007 23.4592C18.9184 23.4592 17.7974 24.6048 17.7974 26.0371C17.7974 27.4695 18.9184 28.6154 20.3007 28.6154C21.6831 28.6154 22.804 27.4695 22.804 26.0371C22.804 24.6048 21.6831 23.4592 20.3007 23.4592ZM6.17743 23.5462C4.83235 23.5462 3.73645 24.6297 3.73645 25.9748C3.73645 27.3199 4.83235 28.4158 6.17743 28.4158C7.52251 28.4158 8.6061 27.3199 8.6061 25.9748C8.6061 24.6297 7.52251 23.5462 6.17743 23.5462ZM103.034 22.9609C102.025 22.9609 101.166 23.6084 100.88 24.9039H105.126C104.89 23.6334 104.043 22.9609 103.034 22.9609ZM107.117 16.64L107.824 18.7191L108.526 16.64H109V19.0991H108.681V17.6475C108.681 17.5975 108.683 17.5145 108.685 17.3983C108.687 17.2822 108.688 17.1576 108.688 17.0249L107.986 19.0991H107.656L106.947 17.0249V17.1003C106.947 17.1607 106.949 17.2522 106.953 17.3756C106.956 17.4991 106.958 17.5895 106.958 17.6475V19.0991H106.639V16.64H107.117ZM106.342 16.64V16.9331H105.513V19.0991H105.176V16.9331H104.347V16.64H106.342ZM54.4998 10.7829C58.8122 10.7829 62.5744 13.127 64.5894 16.6089H44.4105C46.4254 13.127 50.1877 10.7829 54.4998 10.7829ZM66.0894 5.19612C66.8369 4.4486 68.0598 4.4486 68.8068 5.19612C69.5544 5.94325 69.5544 7.16605 68.8068 7.91357L65.9107 10.8098C65.1635 11.5569 63.9407 11.5569 63.1931 10.8098L63.1273 10.7406C62.4468 9.98864 62.4687 8.81687 63.1931 8.09238L66.0894 5.19612ZM40.2727 5.13022C41.0247 4.44928 42.1964 4.47124 42.921 5.19612L45.8176 8.09238C46.5647 8.83951 46.5647 10.0623 45.8176 10.8098C45.0701 11.5569 43.8472 11.5569 43.1001 10.8098L40.2034 7.91357C39.4564 7.16605 39.4564 5.94325 40.2034 5.19612L40.2727 5.13022ZM54.4756 0L54.5586 0.00178443C55.5775 0.045649 56.3971 0.89262 56.3971 1.92187V6.01747C56.3971 7.07453 55.5326 7.93934 54.4756 7.93934C53.4188 7.93934 52.5541 7.07453 52.5541 6.01747V1.92187C52.5541 0.864801 53.4188 0 54.4756 0V0Z" fill="#02A95C"/>
</svg>
